<svg width="1530" height="9465" viewBox="0 0 1530 9465" fill="none" xmlns="http://www.w3.org/2000/svg">
<path opacity="0.1" fill-rule="evenodd" clip-rule="evenodd" d="M169.5 0L169.5 228.702L0 228.702V229.702L169.5 229.702V466.835H0V467.835H169.5V704.967H0V705.967H169.5L169.5 943.1H0V944.1H169.5L169.5 1181.23H0V1182.23H169.5L169.5 1419.36H0V1420.36H169.5V1657.5H0V1658.5H169.5V1895.63H0V1896.63H169.5V2133.76H0V2134.76H169.5V2371.89H0V2372.89H169.5L169.5 2610.03H0V2611.03H169.5L169.5 2848.16H0V2849.16H169.5L169.5 3086.29H0V3087.29H169.5V3324.42H0V3325.42H169.5V3562.55H0V3563.55H169.5V3800.69H0V3801.69H169.5V4038.82H0V4039.82H169.5V4276.95H0V4277.95H169.5V4515.08H0V4516.08H169.5L169.5 4753.22H0V4754.22H169.5L169.5 4991.35H0V4992.35H169.5L169.5 5229.5H0V5230.5H169.5L169.5 9465H170.5L170.5 5230.5H466.5L466.5 9465H467.5L467.5 5230.5H764.5L764.5 9465H765.5L765.5 5230.5H1062.5L1062.5 9465H1063.5L1063.5 5230.5H1359.5L1359.5 9465H1360.5L1360.5 5230.5H1530V5229.5H1360.5V4992.35H1530V4991.35H1360.5V4754.22H1530V4753.22H1360.5V4516.08H1530V4515.08H1360.5V4277.95H1530V4276.95H1360.5V4039.82H1530V4038.82H1360.5V3801.69H1530V3800.69H1360.5V3563.55H1530V3562.55H1360.5V3325.42H1530V3324.42H1360.5V3087.29H1530V3086.29H1360.5V2849.16H1530V2848.16H1360.5V2611.03H1530V2610.03H1360.5V2372.89H1530V2371.89H1360.5V2134.76H1530V2133.76H1360.5V1896.63H1530V1895.63H1360.5V1658.5H1530V1657.5H1360.5V1420.36H1530V1419.36H1360.5V1182.23H1530V1181.23H1360.5V944.099H1530V943.099H1360.5V705.967H1530V704.967H1360.5V467.835H1530V466.835H1360.5V229.702L1530 229.702V228.702L1360.5 228.702V0H1359.5V228.702L1063.5 228.702V0H1062.5V228.702L765.5 228.702V0H764.5V228.702L467.5 228.702V0H466.5V228.702L170.5 228.702L170.5 0H169.5ZM1359.5 5229.5V4992.35H1063.5V5229.5H1359.5ZM1062.5 5229.5V4992.35H765.5V5229.5H1062.5ZM764.5 5229.5V4992.35H467.5V5229.5H764.5ZM466.5 5229.5V4992.35H170.5L170.5 5229.5H466.5ZM466.5 4991.35H170.5L170.5 4754.22H466.5V4991.35ZM764.5 4991.35H467.5V4754.22H764.5V4991.35ZM1062.5 4991.35H765.5V4754.22H1062.5V4991.35ZM1359.5 4991.35H1063.5V4754.22H1359.5V4991.35ZM1359.5 3324.42V3087.29H1063.5V3324.42H1359.5ZM1062.5 3324.42V3087.29H765.5V3324.42H1062.5ZM765.5 3325.42H1062.5V3562.55H765.5V3325.42ZM764.5 3324.42V3087.29H467.5V3324.42H764.5ZM467.5 3325.42H764.5V3562.55H467.5V3325.42ZM466.5 3324.42V3087.29H170.5V3324.42H466.5ZM170.5 3325.42H466.5V3562.55H170.5V3325.42ZM1063.5 3325.42H1359.5V3562.55H1063.5V3325.42ZM170.5 1895.63V1658.5H466.5V1895.63H170.5ZM170.5 1657.5H466.5V1420.36H170.5V1657.5ZM467.5 1895.63V1658.5H764.5V1895.63H467.5ZM467.5 1657.5H764.5V1420.36H467.5V1657.5ZM765.5 1895.63V1658.5H1062.5V1895.63H765.5ZM765.5 1657.5H1062.5V1420.36H765.5V1657.5ZM1063.5 1895.63V1658.5H1359.5V1895.63H1063.5ZM1063.5 1657.5H1359.5V1420.36H1063.5V1657.5ZM1359.5 4753.22V4516.08H1063.5V4753.22H1359.5ZM1062.5 4753.22V4516.08H765.5V4753.22H1062.5ZM764.5 4753.22V4516.08H467.5V4753.22H764.5ZM466.5 4753.22V4516.08H170.5L170.5 4753.22H466.5ZM170.5 3086.29H466.5V2849.16H170.5L170.5 3086.29ZM467.5 3086.29H764.5V2849.16H467.5V3086.29ZM765.5 3086.29H1062.5V2849.16H765.5V3086.29ZM1063.5 3086.29H1359.5V2849.16H1063.5V3086.29ZM1359.5 1419.36V1182.23H1063.5V1419.36H1359.5ZM1062.5 1419.36V1182.23H765.5V1419.36H1062.5ZM764.5 1419.36V1182.23H467.5V1419.36H764.5ZM466.5 1419.36V1182.23H170.5L170.5 1419.36H466.5ZM170.5 4515.08V4277.95H466.5V4515.08H170.5ZM170.5 4276.95H466.5V4039.82H170.5V4276.95ZM467.5 4515.08V4277.95H764.5V4515.08H467.5ZM467.5 4276.95H764.5V4039.82H467.5V4276.95ZM765.5 4515.08V4277.95H1062.5V4515.08H765.5ZM765.5 4276.95H1062.5V4039.82H765.5V4276.95ZM1063.5 4515.08V4277.95H1359.5V4515.08H1063.5ZM1063.5 4276.95H1359.5V4039.82H1063.5V4276.95ZM1359.5 2610.03V2372.89H1063.5V2610.03H1359.5ZM1062.5 2610.03V2372.89H765.5V2610.03H1062.5ZM765.5 2611.03H1062.5V2848.16H765.5V2611.03ZM764.5 2610.03V2372.89H467.5V2610.03H764.5ZM467.5 2611.03H764.5V2848.16H467.5V2611.03ZM466.5 2610.03V2372.89H170.5L170.5 2610.03H466.5ZM170.5 2611.03H466.5V2848.16H170.5L170.5 2611.03ZM1063.5 2611.03H1359.5V2848.16H1063.5V2611.03ZM170.5 1181.23L170.5 944.1L466.5 944.1V1181.23H170.5ZM170.5 943.1L466.5 943.1V705.967L170.5 705.967L170.5 943.1ZM467.5 1181.23V944.1H764.5V1181.23H467.5ZM467.5 943.1H764.5V705.967H467.5V943.1ZM765.5 1181.23V944.1H1062.5V1181.23H765.5ZM765.5 943.1H1062.5V705.967H765.5V943.1ZM1063.5 1181.23V944.1L1359.5 944.099V1181.23H1063.5ZM1063.5 943.1L1359.5 943.099V705.967L1063.5 705.967V943.1ZM1359.5 3800.69V3563.55H1063.5V3800.69H1359.5ZM1062.5 3800.69V3563.55H765.5V3800.69H1062.5ZM765.5 3801.69H1062.5V4038.82H765.5V3801.69ZM764.5 3800.69V3563.55H467.5V3800.69H764.5ZM467.5 3801.69H764.5V4038.82H467.5V3801.69ZM466.5 3800.69V3563.55H170.5V3800.69H466.5ZM170.5 3801.69H466.5V4038.82H170.5V3801.69ZM1063.5 3801.69H1359.5V4038.82H1063.5V3801.69ZM170.5 2371.89V2134.76H466.5V2371.89H170.5ZM170.5 2133.76H466.5V1896.63H170.5V2133.76ZM467.5 2371.89V2134.76H764.5V2371.89H467.5ZM467.5 2133.76H764.5V1896.63H467.5V2133.76ZM765.5 2371.89V2134.76H1062.5V2371.89H765.5ZM765.5 2133.76H1062.5V1896.63H765.5V2133.76ZM1063.5 2371.89V2134.76H1359.5V2371.89H1063.5ZM1063.5 2133.76H1359.5V1896.63H1063.5V2133.76ZM1359.5 466.835V229.702L1063.5 229.702V466.835L1359.5 466.835ZM1062.5 466.835V229.702L765.5 229.702V466.835L1062.5 466.835ZM765.5 467.835L1062.5 467.835V704.967H765.5V467.835ZM764.5 466.835V229.702L467.5 229.702V466.835L764.5 466.835ZM467.5 467.835L764.5 467.835V704.967H467.5V467.835ZM466.5 466.835V229.702L170.5 229.702V466.835L466.5 466.835ZM170.5 467.835L466.5 467.835V704.967L170.5 704.967V467.835ZM1063.5 467.835L1359.5 467.835V704.967L1063.5 704.967V467.835Z" fill="#FFBB6B"/>
<path opacity="0.1" fill-rule="evenodd" clip-rule="evenodd" d="M1062.67 1648.07C1061.57 1648.07 1060.68 1648.96 1060.68 1650.06V1656.01H1054.73C1053.63 1656.01 1052.74 1656.9 1052.74 1658C1052.74 1659.09 1053.63 1659.98 1054.73 1659.98H1060.68V1665.93C1060.68 1667.03 1061.57 1667.92 1062.67 1667.92C1063.76 1667.92 1064.65 1667.03 1064.65 1665.93V1659.98H1070.6C1071.7 1659.98 1072.59 1659.09 1072.59 1658C1072.59 1656.9 1071.7 1656.01 1070.6 1656.01H1064.65V1650.06C1064.65 1648.96 1063.76 1648.07 1062.67 1648.07Z" fill="#FFBB6B"/>
<path opacity="0.1" fill-rule="evenodd" clip-rule="evenodd" d="M1360.33 1648.07C1359.23 1648.07 1358.35 1648.96 1358.35 1650.06V1656.01H1352.39C1351.3 1656.01 1350.41 1656.9 1350.41 1658C1350.41 1659.09 1351.3 1659.98 1352.39 1659.98H1358.35V1665.93C1358.35 1667.03 1359.23 1667.92 1360.33 1667.92C1361.43 1667.92 1362.32 1667.03 1362.32 1665.93V1659.98H1368.27C1369.36 1659.98 1370.25 1659.09 1370.25 1658C1370.25 1656.9 1369.36 1656.01 1368.27 1656.01H1362.32V1650.06C1362.32 1648.96 1361.43 1648.07 1360.33 1648.07Z" fill="#FFBB6B"/>
<path opacity="0.1" fill-rule="evenodd" clip-rule="evenodd" d="M765 1648.07C763.904 1648.07 763.016 1648.96 763.016 1650.06V1656.01H757.062C755.966 1656.01 755.078 1656.9 755.078 1658C755.078 1659.09 755.966 1659.98 757.062 1659.98H763.016V1665.93C763.016 1667.03 763.904 1667.92 765 1667.92C766.096 1667.92 766.984 1667.03 766.984 1665.93V1659.98H772.938C774.034 1659.98 774.922 1659.09 774.922 1658C774.922 1656.9 774.034 1656.01 772.938 1656.01H766.984V1650.06C766.984 1648.96 766.096 1648.07 765 1648.07Z" fill="#FFBB6B"/>
<path opacity="0.1" fill-rule="evenodd" clip-rule="evenodd" d="M467.335 1648.07C466.239 1648.07 465.35 1648.96 465.35 1650.06V1656.01H459.397C458.301 1656.01 457.412 1656.9 457.412 1658C457.412 1659.09 458.301 1659.98 459.397 1659.98H465.35V1665.93C465.35 1667.03 466.239 1667.92 467.335 1667.92C468.431 1667.92 469.319 1667.03 469.319 1665.93V1659.98H475.272C476.368 1659.98 477.257 1659.09 477.257 1658C477.257 1656.9 476.368 1656.01 475.272 1656.01H469.319V1650.06C469.319 1648.96 468.431 1648.07 467.335 1648.07Z" fill="#FFBB6B"/>
<path opacity="0.1" fill-rule="evenodd" clip-rule="evenodd" d="M169.669 1648.07C168.573 1648.07 167.685 1648.96 167.685 1650.06V1656.01H161.732C160.636 1656.01 159.747 1656.9 159.747 1658C159.747 1659.09 160.636 1659.98 161.732 1659.98H167.685V1665.93C167.685 1667.03 168.573 1667.92 169.669 1667.92C170.765 1667.92 171.654 1667.03 171.654 1665.93V1659.98H177.607C178.703 1659.98 179.591 1659.09 179.591 1658C179.591 1656.9 178.703 1656.01 177.607 1656.01H171.654V1650.06C171.654 1648.96 170.765 1648.07 169.669 1648.07Z" fill="#FFBB6B"/>
<path opacity="0.1" fill-rule="evenodd" clip-rule="evenodd" d="M1062.67 1409.94C1061.57 1409.94 1060.68 1410.83 1060.68 1411.93V1417.88H1054.73C1053.63 1417.88 1052.74 1418.77 1052.74 1419.86C1052.74 1420.96 1053.63 1421.85 1054.73 1421.85H1060.68V1427.8C1060.68 1428.9 1061.57 1429.79 1062.67 1429.79C1063.76 1429.79 1064.65 1428.9 1064.65 1427.8V1421.85H1070.6C1071.7 1421.85 1072.59 1420.96 1072.59 1419.86C1072.59 1418.77 1071.7 1417.88 1070.6 1417.88H1064.65V1411.93C1064.65 1410.83 1063.76 1409.94 1062.67 1409.94Z" fill="#FFBB6B"/>
<path opacity="0.1" fill-rule="evenodd" clip-rule="evenodd" d="M1360.33 1409.94C1359.23 1409.94 1358.35 1410.83 1358.35 1411.93V1417.88H1352.39C1351.3 1417.88 1350.41 1418.77 1350.41 1419.86C1350.41 1420.96 1351.3 1421.85 1352.39 1421.85H1358.35V1427.8C1358.35 1428.9 1359.23 1429.79 1360.33 1429.79C1361.43 1429.79 1362.32 1428.9 1362.32 1427.8V1421.85H1368.27C1369.36 1421.85 1370.25 1420.96 1370.25 1419.86C1370.25 1418.77 1369.36 1417.88 1368.27 1417.88H1362.32V1411.93C1362.32 1410.83 1361.43 1409.94 1360.33 1409.94Z" fill="#FFBB6B"/>
<path opacity="0.1" fill-rule="evenodd" clip-rule="evenodd" d="M765 1409.94C763.904 1409.94 763.016 1410.83 763.016 1411.93V1417.88H757.062C755.966 1417.88 755.078 1418.77 755.078 1419.86C755.078 1420.96 755.966 1421.85 757.062 1421.85H763.016V1427.8C763.016 1428.9 763.904 1429.79 765 1429.79C766.096 1429.79 766.984 1428.9 766.984 1427.8V1421.85H772.938C774.034 1421.85 774.922 1420.96 774.922 1419.86C774.922 1418.77 774.034 1417.88 772.938 1417.88H766.984V1411.93C766.984 1410.83 766.096 1409.94 765 1409.94Z" fill="#FFBB6B"/>
<path opacity="0.1" fill-rule="evenodd" clip-rule="evenodd" d="M467.335 1409.94C466.239 1409.94 465.35 1410.83 465.35 1411.93V1417.88H459.397C458.301 1417.88 457.412 1418.77 457.412 1419.86C457.412 1420.96 458.301 1421.85 459.397 1421.85H465.35V1427.8C465.35 1428.9 466.239 1429.79 467.335 1429.79C468.431 1429.79 469.319 1428.9 469.319 1427.8V1421.85H475.272C476.368 1421.85 477.257 1420.96 477.257 1419.86C477.257 1418.77 476.368 1417.88 475.272 1417.88H469.319V1411.93C469.319 1410.83 468.431 1409.94 467.335 1409.94Z" fill="#FFBB6B"/>
<path opacity="0.1" fill-rule="evenodd" clip-rule="evenodd" d="M169.669 1409.94C168.573 1409.94 167.685 1410.83 167.685 1411.93V1417.88H161.732C160.636 1417.88 159.747 1418.77 159.747 1419.86C159.747 1420.96 160.636 1421.85 161.732 1421.85H167.685V1427.8C167.685 1428.9 168.573 1429.79 169.669 1429.79C170.765 1429.79 171.654 1428.9 171.654 1427.8V1421.85H177.607C178.703 1421.85 179.591 1420.96 179.591 1419.86C179.591 1418.77 178.703 1417.88 177.607 1417.88H171.654V1411.93C171.654 1410.83 170.765 1409.94 169.669 1409.94Z" fill="#FFBB6B"/>
<path opacity="0.1" fill-rule="evenodd" clip-rule="evenodd" d="M1062.67 1171.81C1061.57 1171.81 1060.68 1172.7 1060.68 1173.79V1179.75H1054.73C1053.63 1179.75 1052.74 1180.64 1052.74 1181.73C1052.74 1182.83 1053.63 1183.72 1054.73 1183.72H1060.68V1189.67C1060.68 1190.77 1061.57 1191.65 1062.67 1191.65C1063.76 1191.65 1064.65 1190.77 1064.65 1189.67V1183.72H1070.6C1071.7 1183.72 1072.59 1182.83 1072.59 1181.73C1072.59 1180.64 1071.7 1179.75 1070.6 1179.75H1064.65V1173.79C1064.65 1172.7 1063.76 1171.81 1062.67 1171.81Z" fill="#FFBB6B"/>
<path opacity="0.1" fill-rule="evenodd" clip-rule="evenodd" d="M1360.33 1171.81C1359.23 1171.81 1358.35 1172.7 1358.35 1173.79V1179.75H1352.39C1351.3 1179.75 1350.41 1180.64 1350.41 1181.73C1350.41 1182.83 1351.3 1183.72 1352.39 1183.72H1358.35V1189.67C1358.35 1190.77 1359.23 1191.65 1360.33 1191.65C1361.43 1191.65 1362.32 1190.77 1362.32 1189.67V1183.72H1368.27C1369.36 1183.72 1370.25 1182.83 1370.25 1181.73C1370.25 1180.64 1369.36 1179.75 1368.27 1179.75H1362.32V1173.79C1362.32 1172.7 1361.43 1171.81 1360.33 1171.81Z" fill="#FFBB6B"/>
<path opacity="0.1" fill-rule="evenodd" clip-rule="evenodd" d="M765 1171.81C763.904 1171.81 763.016 1172.7 763.016 1173.79V1179.75H757.062C755.966 1179.75 755.078 1180.64 755.078 1181.73C755.078 1182.83 755.966 1183.72 757.062 1183.72H763.016V1189.67C763.016 1190.77 763.904 1191.65 765 1191.65C766.096 1191.65 766.984 1190.77 766.984 1189.67V1183.72H772.938C774.034 1183.72 774.922 1182.83 774.922 1181.73C774.922 1180.64 774.034 1179.75 772.938 1179.75H766.984V1173.79C766.984 1172.7 766.096 1171.81 765 1171.81Z" fill="#FFBB6B"/>
<path opacity="0.1" fill-rule="evenodd" clip-rule="evenodd" d="M467.335 1171.81C466.239 1171.81 465.35 1172.7 465.35 1173.79V1179.75H459.397C458.301 1179.75 457.412 1180.64 457.412 1181.73C457.412 1182.83 458.301 1183.72 459.397 1183.72H465.35V1189.67C465.35 1190.77 466.239 1191.65 467.335 1191.65C468.431 1191.65 469.319 1190.77 469.319 1189.67V1183.72H475.272C476.368 1183.72 477.257 1182.83 477.257 1181.73C477.257 1180.64 476.368 1179.75 475.272 1179.75H469.319V1173.79C469.319 1172.7 468.431 1171.81 467.335 1171.81Z" fill="#FFBB6B"/>
<path opacity="0.1" fill-rule="evenodd" clip-rule="evenodd" d="M169.669 1171.81C168.573 1171.81 167.685 1172.7 167.685 1173.79V1179.75H161.732C160.636 1179.75 159.747 1180.64 159.747 1181.73C159.747 1182.83 160.636 1183.72 161.732 1183.72H167.685V1189.67C167.685 1190.77 168.573 1191.65 169.669 1191.65C170.765 1191.65 171.654 1190.77 171.654 1189.67V1183.72H177.607C178.703 1183.72 179.591 1182.83 179.591 1181.73C179.591 1180.64 178.703 1179.75 177.607 1179.75H171.654V1173.79C171.654 1172.7 170.765 1171.81 169.669 1171.81Z" fill="#FFBB6B"/>
<path opacity="0.1" fill-rule="evenodd" clip-rule="evenodd" d="M1062.67 933.677C1061.57 933.677 1060.68 934.566 1060.68 935.661V941.615H1054.73C1053.63 941.615 1052.74 942.503 1052.74 943.599C1052.74 944.695 1053.63 945.584 1054.73 945.584H1060.68V951.537C1060.68 952.633 1061.57 953.521 1062.67 953.521C1063.76 953.521 1064.65 952.633 1064.65 951.537V945.584H1070.6C1071.7 945.584 1072.59 944.695 1072.59 943.599C1072.59 942.503 1071.7 941.615 1070.6 941.615H1064.65V935.661C1064.65 934.566 1063.76 933.677 1062.67 933.677Z" fill="#FFBB6B"/>
<path opacity="0.1" fill-rule="evenodd" clip-rule="evenodd" d="M1360.33 933.677C1359.23 933.677 1358.35 934.566 1358.35 935.661V941.615H1352.39C1351.3 941.615 1350.41 942.503 1350.41 943.599C1350.41 944.695 1351.3 945.584 1352.39 945.584H1358.35V951.537C1358.35 952.633 1359.23 953.521 1360.33 953.521C1361.43 953.521 1362.32 952.633 1362.32 951.537V945.584H1368.27C1369.36 945.584 1370.25 944.695 1370.25 943.599C1370.25 942.503 1369.36 941.615 1368.27 941.615H1362.32V935.661C1362.32 934.566 1361.43 933.677 1360.33 933.677Z" fill="#FFBB6B"/>
<path opacity="0.1" fill-rule="evenodd" clip-rule="evenodd" d="M765 933.677C763.904 933.677 763.016 934.566 763.016 935.661V941.615H757.062C755.966 941.615 755.078 942.503 755.078 943.599C755.078 944.695 755.966 945.584 757.062 945.584H763.016V951.537C763.016 952.633 763.904 953.521 765 953.521C766.096 953.521 766.984 952.633 766.984 951.537V945.584H772.938C774.034 945.584 774.922 944.695 774.922 943.599C774.922 942.503 774.034 941.615 772.938 941.615H766.984V935.661C766.984 934.566 766.096 933.677 765 933.677Z" fill="#FFBB6B"/>
<path opacity="0.1" fill-rule="evenodd" clip-rule="evenodd" d="M467.335 933.677C466.239 933.677 465.35 934.566 465.35 935.661V941.615H459.397C458.301 941.615 457.412 942.503 457.412 943.599C457.412 944.695 458.301 945.584 459.397 945.584H465.35V951.537C465.35 952.633 466.239 953.521 467.335 953.521C468.431 953.521 469.319 952.633 469.319 951.537V945.584H475.272C476.368 945.584 477.257 944.695 477.257 943.599C477.257 942.503 476.368 941.615 475.272 941.615H469.319V935.661C469.319 934.566 468.431 933.677 467.335 933.677Z" fill="#FFBB6B"/>
<path opacity="0.1" fill-rule="evenodd" clip-rule="evenodd" d="M169.669 933.677C168.573 933.677 167.685 934.566 167.685 935.661V941.615H161.732C160.636 941.615 159.747 942.503 159.747 943.599C159.747 944.695 160.636 945.584 161.732 945.584H167.685V951.537C167.685 952.633 168.573 953.521 169.669 953.521C170.765 953.521 171.654 952.633 171.654 951.537V945.584H177.607C178.703 945.584 179.591 944.695 179.591 943.599C179.591 942.503 178.703 941.615 177.607 941.615H171.654V935.661C171.654 934.566 170.765 933.677 169.669 933.677Z" fill="#FFBB6B"/>
<path opacity="0.1" fill-rule="evenodd" clip-rule="evenodd" d="M1062.67 695.545C1061.57 695.545 1060.68 696.433 1060.68 697.529V703.483H1054.73C1053.63 703.483 1052.74 704.371 1052.74 705.467C1052.74 706.563 1053.63 707.451 1054.73 707.451H1060.68V713.405C1060.68 714.501 1061.57 715.389 1062.67 715.389C1063.76 715.389 1064.65 714.501 1064.65 713.405V707.451H1070.6C1071.7 707.451 1072.59 706.563 1072.59 705.467C1072.59 704.371 1071.7 703.483 1070.6 703.483H1064.65V697.529C1064.65 696.433 1063.76 695.545 1062.67 695.545Z" fill="#FFBB6B"/>
<path opacity="0.1" fill-rule="evenodd" clip-rule="evenodd" d="M1360.33 695.545C1359.23 695.545 1358.35 696.433 1358.35 697.529V703.483H1352.39C1351.3 703.483 1350.41 704.371 1350.41 705.467C1350.41 706.563 1351.3 707.451 1352.39 707.451H1358.35V713.405C1358.35 714.501 1359.23 715.389 1360.33 715.389C1361.43 715.389 1362.32 714.501 1362.32 713.405V707.451H1368.27C1369.36 707.451 1370.25 706.563 1370.25 705.467C1370.25 704.371 1369.36 703.483 1368.27 703.483H1362.32V697.529C1362.32 696.433 1361.43 695.545 1360.33 695.545Z" fill="#FFBB6B"/>
<path opacity="0.1" fill-rule="evenodd" clip-rule="evenodd" d="M765 695.545C763.904 695.545 763.016 696.433 763.016 697.529V703.483H757.062C755.966 703.483 755.078 704.371 755.078 705.467C755.078 706.563 755.966 707.451 757.062 707.451H763.016V713.405C763.016 714.501 763.904 715.389 765 715.389C766.096 715.389 766.984 714.501 766.984 713.405V707.451H772.938C774.034 707.451 774.922 706.563 774.922 705.467C774.922 704.371 774.034 703.483 772.938 703.483H766.984V697.529C766.984 696.433 766.096 695.545 765 695.545Z" fill="#FFBB6B"/>
<path opacity="0.1" fill-rule="evenodd" clip-rule="evenodd" d="M467.335 695.545C466.239 695.545 465.35 696.433 465.35 697.529V703.483H459.397C458.301 703.483 457.412 704.371 457.412 705.467C457.412 706.563 458.301 707.451 459.397 707.451H465.35V713.405C465.35 714.501 466.239 715.389 467.335 715.389C468.431 715.389 469.319 714.501 469.319 713.405V707.451H475.272C476.368 707.451 477.257 706.563 477.257 705.467C477.257 704.371 476.368 703.483 475.272 703.483H469.319V697.529C469.319 696.433 468.431 695.545 467.335 695.545Z" fill="#FFBB6B"/>
<path opacity="0.1" fill-rule="evenodd" clip-rule="evenodd" d="M169.669 695.545C168.573 695.545 167.685 696.433 167.685 697.529V703.483H161.732C160.636 703.483 159.747 704.371 159.747 705.467C159.747 706.563 160.636 707.451 161.732 707.451H167.685V713.405C167.685 714.501 168.573 715.389 169.669 715.389C170.765 715.389 171.654 714.501 171.654 713.405V707.451H177.607C178.703 707.451 179.591 706.563 179.591 705.467C179.591 704.371 178.703 703.483 177.607 703.483H171.654V697.529C171.654 696.433 170.765 695.545 169.669 695.545Z" fill="#FFBB6B"/>
<path opacity="0.1" fill-rule="evenodd" clip-rule="evenodd" d="M1062.67 457.412C1061.57 457.412 1060.68 458.301 1060.68 459.397V465.35H1054.73C1053.63 465.35 1052.74 466.239 1052.74 467.335C1052.74 468.431 1053.63 469.319 1054.73 469.319H1060.68V475.272C1060.68 476.368 1061.57 477.257 1062.67 477.257C1063.76 477.257 1064.65 476.368 1064.65 475.272V469.319H1070.6C1071.7 469.319 1072.59 468.431 1072.59 467.335C1072.59 466.239 1071.7 465.35 1070.6 465.35H1064.65V459.397C1064.65 458.301 1063.76 457.412 1062.67 457.412Z" fill="#FFBB6B"/>
<path opacity="0.1" fill-rule="evenodd" clip-rule="evenodd" d="M1360.33 457.412C1359.23 457.412 1358.35 458.301 1358.35 459.397V465.35H1352.39C1351.3 465.35 1350.41 466.239 1350.41 467.335C1350.41 468.431 1351.3 469.319 1352.39 469.319H1358.35V475.272C1358.35 476.368 1359.23 477.257 1360.33 477.257C1361.43 477.257 1362.32 476.368 1362.32 475.272V469.319H1368.27C1369.36 469.319 1370.25 468.431 1370.25 467.335C1370.25 466.239 1369.36 465.35 1368.27 465.35H1362.32V459.397C1362.32 458.301 1361.43 457.412 1360.33 457.412Z" fill="#FFBB6B"/>
<path opacity="0.1" fill-rule="evenodd" clip-rule="evenodd" d="M765 457.412C763.904 457.412 763.016 458.301 763.016 459.397V465.35H757.062C755.966 465.35 755.078 466.239 755.078 467.335C755.078 468.431 755.966 469.319 757.062 469.319H763.016V475.272C763.016 476.368 763.904 477.257 765 477.257C766.096 477.257 766.984 476.368 766.984 475.272V469.319H772.938C774.034 469.319 774.922 468.431 774.922 467.335C774.922 466.239 774.034 465.35 772.938 465.35H766.984V459.397C766.984 458.301 766.096 457.412 765 457.412Z" fill="#FFBB6B"/>
<path opacity="0.1" fill-rule="evenodd" clip-rule="evenodd" d="M467.335 457.412C466.239 457.412 465.35 458.301 465.35 459.397V465.35H459.397C458.301 465.35 457.412 466.239 457.412 467.335C457.412 468.431 458.301 469.319 459.397 469.319H465.35V475.272C465.35 476.368 466.239 477.257 467.335 477.257C468.431 477.257 469.319 476.368 469.319 475.272V469.319H475.272C476.368 469.319 477.257 468.431 477.257 467.335C477.257 466.239 476.368 465.35 475.272 465.35H469.319V459.397C469.319 458.301 468.431 457.412 467.335 457.412Z" fill="#FFBB6B"/>
<path opacity="0.1" fill-rule="evenodd" clip-rule="evenodd" d="M169.669 457.412C168.573 457.412 167.685 458.301 167.685 459.397V465.35H161.732C160.636 465.35 159.747 466.239 159.747 467.335C159.747 468.431 160.636 469.319 161.732 469.319H167.685V475.272C167.685 476.368 168.573 477.257 169.669 477.257C170.765 477.257 171.654 476.368 171.654 475.272V469.319H177.607C178.703 469.319 179.591 468.431 179.591 467.335C179.591 466.239 178.703 465.35 177.607 465.35H171.654V459.397C171.654 458.301 170.765 457.412 169.669 457.412Z" fill="#FFBB6B"/>
<path opacity="0.1" fill-rule="evenodd" clip-rule="evenodd" d="M1062.67 219.28C1061.57 219.28 1060.68 220.169 1060.68 221.265V227.218H1054.73C1053.63 227.218 1052.74 228.106 1052.74 229.202C1052.74 230.298 1053.63 231.187 1054.73 231.187H1060.68V237.14C1060.68 238.236 1061.57 239.125 1062.67 239.125C1063.76 239.125 1064.65 238.236 1064.65 237.14V231.187H1070.6C1071.7 231.187 1072.59 230.298 1072.59 229.202C1072.59 228.106 1071.7 227.218 1070.6 227.218H1064.65V221.265C1064.65 220.169 1063.76 219.28 1062.67 219.28Z" fill="#FFBB6B"/>
<path opacity="0.1" fill-rule="evenodd" clip-rule="evenodd" d="M1360.33 219.28C1359.23 219.28 1358.35 220.169 1358.35 221.265V227.218H1352.39C1351.3 227.218 1350.41 228.106 1350.41 229.202C1350.41 230.298 1351.3 231.187 1352.39 231.187H1358.35V237.14C1358.35 238.236 1359.23 239.125 1360.33 239.125C1361.43 239.125 1362.32 238.236 1362.32 237.14V231.187H1368.27C1369.36 231.187 1370.25 230.298 1370.25 229.202C1370.25 228.106 1369.36 227.218 1368.27 227.218H1362.32V221.265C1362.32 220.169 1361.43 219.28 1360.33 219.28Z" fill="#FFBB6B"/>
<path opacity="0.1" fill-rule="evenodd" clip-rule="evenodd" d="M765 219.28C763.904 219.28 763.016 220.169 763.016 221.265V227.218H757.062C755.966 227.218 755.078 228.106 755.078 229.202C755.078 230.298 755.966 231.187 757.062 231.187H763.016V237.14C763.016 238.236 763.904 239.125 765 239.125C766.096 239.125 766.984 238.236 766.984 237.14V231.187H772.938C774.034 231.187 774.922 230.298 774.922 229.202C774.922 228.106 774.034 227.218 772.938 227.218H766.984V221.265C766.984 220.169 766.096 219.28 765 219.28Z" fill="#FFBB6B"/>
<path opacity="0.1" fill-rule="evenodd" clip-rule="evenodd" d="M467.335 219.28C466.239 219.28 465.35 220.169 465.35 221.265V227.218H459.397C458.301 227.218 457.412 228.106 457.412 229.202C457.412 230.298 458.301 231.187 459.397 231.187H465.35V237.14C465.35 238.236 466.239 239.125 467.335 239.125C468.431 239.125 469.319 238.236 469.319 237.14V231.187H475.272C476.368 231.187 477.257 230.298 477.257 229.202C477.257 228.106 476.368 227.218 475.272 227.218H469.319V221.265C469.319 220.169 468.431 219.28 467.335 219.28Z" fill="#FFBB6B"/>
<path opacity="0.1" fill-rule="evenodd" clip-rule="evenodd" d="M169.669 219.28C168.573 219.28 167.685 220.169 167.685 221.265V227.218H161.732C160.636 227.218 159.747 228.106 159.747 229.202C159.747 230.298 160.636 231.187 161.732 231.187H167.685V237.14C167.685 238.236 168.573 239.125 169.669 239.125C170.765 239.125 171.654 238.236 171.654 237.14V231.187H177.607C178.703 231.187 179.591 230.298 179.591 229.202C179.591 228.106 178.703 227.218 177.607 227.218H171.654V221.265C171.654 220.169 170.765 219.28 169.669 219.28Z" fill="#FFBB6B"/>
<path opacity="0.1" fill-rule="evenodd" clip-rule="evenodd" d="M1062.67 3315C1061.57 3315 1060.68 3315.89 1060.68 3316.98V3322.94H1054.73C1053.63 3322.94 1052.74 3323.83 1052.74 3324.92C1052.74 3326.02 1053.63 3326.91 1054.73 3326.91H1060.68V3332.86C1060.68 3333.96 1061.57 3334.84 1062.67 3334.84C1063.76 3334.84 1064.65 3333.96 1064.65 3332.86V3326.91H1070.6C1071.7 3326.91 1072.59 3326.02 1072.59 3324.92C1072.59 3323.83 1071.7 3322.94 1070.6 3322.94H1064.65V3316.98C1064.65 3315.89 1063.76 3315 1062.67 3315Z" fill="#FFBB6B"/>
<path opacity="0.1" fill-rule="evenodd" clip-rule="evenodd" d="M1360.33 3315C1359.23 3315 1358.35 3315.89 1358.35 3316.98V3322.94H1352.39C1351.3 3322.94 1350.41 3323.83 1350.41 3324.92C1350.41 3326.02 1351.3 3326.91 1352.39 3326.91H1358.35V3332.86C1358.35 3333.96 1359.23 3334.84 1360.33 3334.84C1361.43 3334.84 1362.32 3333.96 1362.32 3332.86V3326.91H1368.27C1369.36 3326.91 1370.25 3326.02 1370.25 3324.92C1370.25 3323.83 1369.36 3322.94 1368.27 3322.94H1362.32V3316.98C1362.32 3315.89 1361.43 3315 1360.33 3315Z" fill="#FFBB6B"/>
<path opacity="0.1" fill-rule="evenodd" clip-rule="evenodd" d="M765 3315C763.904 3315 763.016 3315.89 763.016 3316.98V3322.94H757.062C755.966 3322.94 755.078 3323.83 755.078 3324.92C755.078 3326.02 755.966 3326.91 757.062 3326.91H763.016V3332.86C763.016 3333.96 763.904 3334.84 765 3334.84C766.096 3334.84 766.984 3333.96 766.984 3332.86V3326.91H772.938C774.034 3326.91 774.922 3326.02 774.922 3324.92C774.922 3323.83 774.034 3322.94 772.938 3322.94H766.984V3316.98C766.984 3315.89 766.096 3315 765 3315Z" fill="#FFBB6B"/>
<path opacity="0.1" fill-rule="evenodd" clip-rule="evenodd" d="M467.335 3315C466.239 3315 465.35 3315.89 465.35 3316.98V3322.94H459.397C458.301 3322.94 457.412 3323.83 457.412 3324.92C457.412 3326.02 458.301 3326.91 459.397 3326.91H465.35V3332.86C465.35 3333.96 466.239 3334.84 467.335 3334.84C468.431 3334.84 469.319 3333.96 469.319 3332.86V3326.91H475.272C476.368 3326.91 477.257 3326.02 477.257 3324.92C477.257 3323.83 476.368 3322.94 475.272 3322.94H469.319V3316.98C469.319 3315.89 468.431 3315 467.335 3315Z" fill="#FFBB6B"/>
<path opacity="0.1" fill-rule="evenodd" clip-rule="evenodd" d="M169.669 3315C168.573 3315 167.685 3315.89 167.685 3316.98V3322.94H161.732C160.636 3322.94 159.747 3323.83 159.747 3324.92C159.747 3326.02 160.636 3326.91 161.732 3326.91H167.685V3332.86C167.685 3333.96 168.573 3334.84 169.669 3334.84C170.765 3334.84 171.654 3333.96 171.654 3332.86V3326.91H177.607C178.703 3326.91 179.591 3326.02 179.591 3324.92C179.591 3323.83 178.703 3322.94 177.607 3322.94H171.654V3316.98C171.654 3315.89 170.765 3315 169.669 3315Z" fill="#FFBB6B"/>
<path opacity="0.1" fill-rule="evenodd" clip-rule="evenodd" d="M1062.67 3076.87C1061.57 3076.87 1060.68 3077.76 1060.68 3078.85V3084.81H1054.73C1053.63 3084.81 1052.74 3085.69 1052.74 3086.79C1052.74 3087.89 1053.63 3088.77 1054.73 3088.77H1060.68V3094.73C1060.68 3095.82 1061.57 3096.71 1062.67 3096.71C1063.76 3096.71 1064.65 3095.82 1064.65 3094.73V3088.77H1070.6C1071.7 3088.77 1072.59 3087.89 1072.59 3086.79C1072.59 3085.69 1071.7 3084.81 1070.6 3084.81H1064.65V3078.85C1064.65 3077.76 1063.76 3076.87 1062.67 3076.87Z" fill="#FFBB6B"/>
<path opacity="0.1" fill-rule="evenodd" clip-rule="evenodd" d="M1360.33 3076.87C1359.23 3076.87 1358.35 3077.76 1358.35 3078.85V3084.81H1352.39C1351.3 3084.81 1350.41 3085.69 1350.41 3086.79C1350.41 3087.89 1351.3 3088.77 1352.39 3088.77H1358.35V3094.73C1358.35 3095.82 1359.23 3096.71 1360.33 3096.71C1361.43 3096.71 1362.32 3095.82 1362.32 3094.73V3088.77H1368.27C1369.36 3088.77 1370.25 3087.89 1370.25 3086.79C1370.25 3085.69 1369.36 3084.81 1368.27 3084.81H1362.32V3078.85C1362.32 3077.76 1361.43 3076.87 1360.33 3076.87Z" fill="#FFBB6B"/>
<path opacity="0.1" fill-rule="evenodd" clip-rule="evenodd" d="M765 3076.87C763.904 3076.87 763.016 3077.76 763.016 3078.85V3084.81H757.062C755.966 3084.81 755.078 3085.69 755.078 3086.79C755.078 3087.89 755.966 3088.77 757.062 3088.77H763.016V3094.73C763.016 3095.82 763.904 3096.71 765 3096.71C766.096 3096.71 766.984 3095.82 766.984 3094.73V3088.77H772.938C774.034 3088.77 774.922 3087.89 774.922 3086.79C774.922 3085.69 774.034 3084.81 772.938 3084.81H766.984V3078.85C766.984 3077.76 766.096 3076.87 765 3076.87Z" fill="#FFBB6B"/>
<path opacity="0.1" fill-rule="evenodd" clip-rule="evenodd" d="M467.335 3076.87C466.239 3076.87 465.35 3077.76 465.35 3078.85V3084.81H459.397C458.301 3084.81 457.412 3085.69 457.412 3086.79C457.412 3087.89 458.301 3088.77 459.397 3088.77H465.35V3094.73C465.35 3095.82 466.239 3096.71 467.335 3096.71C468.431 3096.71 469.319 3095.82 469.319 3094.73V3088.77H475.272C476.368 3088.77 477.257 3087.89 477.257 3086.79C477.257 3085.69 476.368 3084.81 475.272 3084.81H469.319V3078.85C469.319 3077.76 468.431 3076.87 467.335 3076.87Z" fill="#FFBB6B"/>
<path opacity="0.1" fill-rule="evenodd" clip-rule="evenodd" d="M169.669 3076.87C168.573 3076.87 167.685 3077.76 167.685 3078.85V3084.81H161.732C160.636 3084.81 159.747 3085.69 159.747 3086.79C159.747 3087.89 160.636 3088.77 161.732 3088.77H167.685V3094.73C167.685 3095.82 168.573 3096.71 169.669 3096.71C170.765 3096.71 171.654 3095.82 171.654 3094.73V3088.77H177.607C178.703 3088.77 179.591 3087.89 179.591 3086.79C179.591 3085.69 178.703 3084.81 177.607 3084.81H171.654V3078.85C171.654 3077.76 170.765 3076.87 169.669 3076.87Z" fill="#FFBB6B"/>
<path opacity="0.1" fill-rule="evenodd" clip-rule="evenodd" d="M1062.67 2838.74C1061.57 2838.74 1060.68 2839.62 1060.68 2840.72V2846.67H1054.73C1053.63 2846.67 1052.74 2847.56 1052.74 2848.66C1052.74 2849.75 1053.63 2850.64 1054.73 2850.64H1060.68V2856.6C1060.68 2857.69 1061.57 2858.58 1062.67 2858.58C1063.76 2858.58 1064.65 2857.69 1064.65 2856.6V2850.64H1070.6C1071.7 2850.64 1072.59 2849.75 1072.59 2848.66C1072.59 2847.56 1071.7 2846.67 1070.6 2846.67H1064.65V2840.72C1064.65 2839.62 1063.76 2838.74 1062.67 2838.74Z" fill="#FFBB6B"/>
<path opacity="0.1" fill-rule="evenodd" clip-rule="evenodd" d="M1360.33 2838.74C1359.23 2838.74 1358.35 2839.62 1358.35 2840.72V2846.67H1352.39C1351.3 2846.67 1350.41 2847.56 1350.41 2848.66C1350.41 2849.75 1351.3 2850.64 1352.39 2850.64H1358.35V2856.6C1358.35 2857.69 1359.23 2858.58 1360.33 2858.58C1361.43 2858.58 1362.32 2857.69 1362.32 2856.6V2850.64H1368.27C1369.36 2850.64 1370.25 2849.75 1370.25 2848.66C1370.25 2847.56 1369.36 2846.67 1368.27 2846.67H1362.32V2840.72C1362.32 2839.62 1361.43 2838.74 1360.33 2838.74Z" fill="#FFBB6B"/>
<path opacity="0.1" fill-rule="evenodd" clip-rule="evenodd" d="M765 2838.74C763.904 2838.74 763.016 2839.62 763.016 2840.72V2846.67H757.062C755.966 2846.67 755.078 2847.56 755.078 2848.66C755.078 2849.75 755.966 2850.64 757.062 2850.64H763.016V2856.6C763.016 2857.69 763.904 2858.58 765 2858.58C766.096 2858.58 766.984 2857.69 766.984 2856.6V2850.64H772.938C774.034 2850.64 774.922 2849.75 774.922 2848.66C774.922 2847.56 774.034 2846.67 772.938 2846.67H766.984V2840.72C766.984 2839.62 766.096 2838.74 765 2838.74Z" fill="#FFBB6B"/>
<path opacity="0.1" fill-rule="evenodd" clip-rule="evenodd" d="M467.335 2838.74C466.239 2838.74 465.35 2839.62 465.35 2840.72V2846.67H459.397C458.301 2846.67 457.412 2847.56 457.412 2848.66C457.412 2849.75 458.301 2850.64 459.397 2850.64H465.35V2856.6C465.35 2857.69 466.239 2858.58 467.335 2858.58C468.431 2858.58 469.319 2857.69 469.319 2856.6V2850.64H475.272C476.368 2850.64 477.257 2849.75 477.257 2848.66C477.257 2847.56 476.368 2846.67 475.272 2846.67H469.319V2840.72C469.319 2839.62 468.431 2838.74 467.335 2838.74Z" fill="#FFBB6B"/>
<path opacity="0.1" fill-rule="evenodd" clip-rule="evenodd" d="M169.669 2838.74C168.573 2838.74 167.685 2839.62 167.685 2840.72V2846.67H161.732C160.636 2846.67 159.747 2847.56 159.747 2848.66C159.747 2849.75 160.636 2850.64 161.732 2850.64H167.685V2856.6C167.685 2857.69 168.573 2858.58 169.669 2858.58C170.765 2858.58 171.654 2857.69 171.654 2856.6V2850.64H177.607C178.703 2850.64 179.591 2849.75 179.591 2848.66C179.591 2847.56 178.703 2846.67 177.607 2846.67H171.654V2840.72C171.654 2839.62 170.765 2838.74 169.669 2838.74Z" fill="#FFBB6B"/>
<path opacity="0.1" fill-rule="evenodd" clip-rule="evenodd" d="M1062.67 2600.6C1061.57 2600.6 1060.68 2601.49 1060.68 2602.59V2608.54H1054.73C1053.63 2608.54 1052.74 2609.43 1052.74 2610.53C1052.74 2611.62 1053.63 2612.51 1054.73 2612.51H1060.68V2618.46C1060.68 2619.56 1061.57 2620.45 1062.67 2620.45C1063.76 2620.45 1064.65 2619.56 1064.65 2618.46V2612.51H1070.6C1071.7 2612.51 1072.59 2611.62 1072.59 2610.53C1072.59 2609.43 1071.7 2608.54 1070.6 2608.54H1064.65V2602.59C1064.65 2601.49 1063.76 2600.6 1062.67 2600.6Z" fill="#FFBB6B"/>
<path opacity="0.1" fill-rule="evenodd" clip-rule="evenodd" d="M1360.33 2600.6C1359.23 2600.6 1358.35 2601.49 1358.35 2602.59V2608.54H1352.39C1351.3 2608.54 1350.41 2609.43 1350.41 2610.53C1350.41 2611.62 1351.3 2612.51 1352.39 2612.51H1358.35V2618.46C1358.35 2619.56 1359.23 2620.45 1360.33 2620.45C1361.43 2620.45 1362.32 2619.56 1362.32 2618.46V2612.51H1368.27C1369.36 2612.51 1370.25 2611.62 1370.25 2610.53C1370.25 2609.43 1369.36 2608.54 1368.27 2608.54H1362.32V2602.59C1362.32 2601.49 1361.43 2600.6 1360.33 2600.6Z" fill="#FFBB6B"/>
<path opacity="0.1" fill-rule="evenodd" clip-rule="evenodd" d="M765 2600.6C763.904 2600.6 763.016 2601.49 763.016 2602.59V2608.54H757.062C755.966 2608.54 755.078 2609.43 755.078 2610.53C755.078 2611.62 755.966 2612.51 757.062 2612.51H763.016V2618.46C763.016 2619.56 763.904 2620.45 765 2620.45C766.096 2620.45 766.984 2619.56 766.984 2618.46V2612.51H772.938C774.034 2612.51 774.922 2611.62 774.922 2610.53C774.922 2609.43 774.034 2608.54 772.938 2608.54H766.984V2602.59C766.984 2601.49 766.096 2600.6 765 2600.6Z" fill="#FFBB6B"/>
<path opacity="0.1" fill-rule="evenodd" clip-rule="evenodd" d="M467.335 2600.6C466.239 2600.6 465.35 2601.49 465.35 2602.59V2608.54H459.397C458.301 2608.54 457.412 2609.43 457.412 2610.53C457.412 2611.62 458.301 2612.51 459.397 2612.51H465.35V2618.46C465.35 2619.56 466.239 2620.45 467.335 2620.45C468.431 2620.45 469.319 2619.56 469.319 2618.46V2612.51H475.272C476.368 2612.51 477.257 2611.62 477.257 2610.53C477.257 2609.43 476.368 2608.54 475.272 2608.54H469.319V2602.59C469.319 2601.49 468.431 2600.6 467.335 2600.6Z" fill="#FFBB6B"/>
<path opacity="0.1" fill-rule="evenodd" clip-rule="evenodd" d="M169.669 2600.6C168.573 2600.6 167.685 2601.49 167.685 2602.59V2608.54H161.732C160.636 2608.54 159.747 2609.43 159.747 2610.53C159.747 2611.62 160.636 2612.51 161.732 2612.51H167.685V2618.46C167.685 2619.56 168.573 2620.45 169.669 2620.45C170.765 2620.45 171.654 2619.56 171.654 2618.46V2612.51H177.607C178.703 2612.51 179.591 2611.62 179.591 2610.53C179.591 2609.43 178.703 2608.54 177.607 2608.54H171.654V2602.59C171.654 2601.49 170.765 2600.6 169.669 2600.6Z" fill="#FFBB6B"/>
<path opacity="0.1" fill-rule="evenodd" clip-rule="evenodd" d="M1062.67 2362.47C1061.57 2362.47 1060.68 2363.36 1060.68 2364.46V2370.41H1054.73C1053.63 2370.41 1052.74 2371.3 1052.74 2372.39C1052.74 2373.49 1053.63 2374.38 1054.73 2374.38H1060.68V2380.33C1060.68 2381.43 1061.57 2382.32 1062.67 2382.32C1063.76 2382.32 1064.65 2381.43 1064.65 2380.33V2374.38H1070.6C1071.7 2374.38 1072.59 2373.49 1072.59 2372.39C1072.59 2371.3 1071.7 2370.41 1070.6 2370.41H1064.65V2364.46C1064.65 2363.36 1063.76 2362.47 1062.67 2362.47Z" fill="#FFBB6B"/>
<path opacity="0.1" fill-rule="evenodd" clip-rule="evenodd" d="M1360.33 2362.47C1359.23 2362.47 1358.35 2363.36 1358.35 2364.46V2370.41H1352.39C1351.3 2370.41 1350.41 2371.3 1350.41 2372.39C1350.41 2373.49 1351.3 2374.38 1352.39 2374.38H1358.35V2380.33C1358.35 2381.43 1359.23 2382.32 1360.33 2382.32C1361.43 2382.32 1362.32 2381.43 1362.32 2380.33V2374.38H1368.27C1369.36 2374.38 1370.25 2373.49 1370.25 2372.39C1370.25 2371.3 1369.36 2370.41 1368.27 2370.41H1362.32V2364.46C1362.32 2363.36 1361.43 2362.47 1360.33 2362.47Z" fill="#FFBB6B"/>
<path opacity="0.1" fill-rule="evenodd" clip-rule="evenodd" d="M765 2362.47C763.904 2362.47 763.016 2363.36 763.016 2364.46V2370.41H757.062C755.966 2370.41 755.078 2371.3 755.078 2372.39C755.078 2373.49 755.966 2374.38 757.062 2374.38H763.016V2380.33C763.016 2381.43 763.904 2382.32 765 2382.32C766.096 2382.32 766.984 2381.43 766.984 2380.33V2374.38H772.938C774.034 2374.38 774.922 2373.49 774.922 2372.39C774.922 2371.3 774.034 2370.41 772.938 2370.41H766.984V2364.46C766.984 2363.36 766.096 2362.47 765 2362.47Z" fill="#FFBB6B"/>
<path opacity="0.1" fill-rule="evenodd" clip-rule="evenodd" d="M467.335 2362.47C466.239 2362.47 465.35 2363.36 465.35 2364.46V2370.41H459.397C458.301 2370.41 457.412 2371.3 457.412 2372.39C457.412 2373.49 458.301 2374.38 459.397 2374.38H465.35V2380.33C465.35 2381.43 466.239 2382.32 467.335 2382.32C468.431 2382.32 469.319 2381.43 469.319 2380.33V2374.38H475.272C476.368 2374.38 477.257 2373.49 477.257 2372.39C477.257 2371.3 476.368 2370.41 475.272 2370.41H469.319V2364.46C469.319 2363.36 468.431 2362.47 467.335 2362.47Z" fill="#FFBB6B"/>
<path opacity="0.1" fill-rule="evenodd" clip-rule="evenodd" d="M169.669 2362.47C168.573 2362.47 167.685 2363.36 167.685 2364.46V2370.41H161.732C160.636 2370.41 159.747 2371.3 159.747 2372.39C159.747 2373.49 160.636 2374.38 161.732 2374.38H167.685V2380.33C167.685 2381.43 168.573 2382.32 169.669 2382.32C170.765 2382.32 171.654 2381.43 171.654 2380.33V2374.38H177.607C178.703 2374.38 179.591 2373.49 179.591 2372.39C179.591 2371.3 178.703 2370.41 177.607 2370.41H171.654V2364.46C171.654 2363.36 170.765 2362.47 169.669 2362.47Z" fill="#FFBB6B"/>
<path opacity="0.1" fill-rule="evenodd" clip-rule="evenodd" d="M1062.67 2124.34C1061.57 2124.34 1060.68 2125.23 1060.68 2126.32V2132.28H1054.73C1053.63 2132.28 1052.74 2133.16 1052.74 2134.26C1052.74 2135.36 1053.63 2136.25 1054.73 2136.25H1060.68V2142.2C1060.68 2143.29 1061.57 2144.18 1062.67 2144.18C1063.76 2144.18 1064.65 2143.29 1064.65 2142.2V2136.25H1070.6C1071.7 2136.25 1072.59 2135.36 1072.59 2134.26C1072.59 2133.16 1071.7 2132.28 1070.6 2132.28H1064.65V2126.32C1064.65 2125.23 1063.76 2124.34 1062.67 2124.34Z" fill="#FFBB6B"/>
<path opacity="0.1" fill-rule="evenodd" clip-rule="evenodd" d="M1360.33 2124.34C1359.23 2124.34 1358.35 2125.23 1358.35 2126.32V2132.28H1352.39C1351.3 2132.28 1350.41 2133.16 1350.41 2134.26C1350.41 2135.36 1351.3 2136.25 1352.39 2136.25H1358.35V2142.2C1358.35 2143.29 1359.23 2144.18 1360.33 2144.18C1361.43 2144.18 1362.32 2143.29 1362.32 2142.2V2136.25H1368.27C1369.36 2136.25 1370.25 2135.36 1370.25 2134.26C1370.25 2133.16 1369.36 2132.28 1368.27 2132.28H1362.32V2126.32C1362.32 2125.23 1361.43 2124.34 1360.33 2124.34Z" fill="#FFBB6B"/>
<path opacity="0.1" fill-rule="evenodd" clip-rule="evenodd" d="M765 2124.34C763.904 2124.34 763.016 2125.23 763.016 2126.32V2132.28H757.062C755.966 2132.28 755.078 2133.16 755.078 2134.26C755.078 2135.36 755.966 2136.25 757.062 2136.25H763.016V2142.2C763.016 2143.29 763.904 2144.18 765 2144.18C766.096 2144.18 766.984 2143.29 766.984 2142.2V2136.25H772.938C774.034 2136.25 774.922 2135.36 774.922 2134.26C774.922 2133.16 774.034 2132.28 772.938 2132.28H766.984V2126.32C766.984 2125.23 766.096 2124.34 765 2124.34Z" fill="#FFBB6B"/>
<path opacity="0.1" fill-rule="evenodd" clip-rule="evenodd" d="M467.335 2124.34C466.239 2124.34 465.35 2125.23 465.35 2126.32V2132.28H459.397C458.301 2132.28 457.412 2133.16 457.412 2134.26C457.412 2135.36 458.301 2136.25 459.397 2136.25H465.35V2142.2C465.35 2143.29 466.239 2144.18 467.335 2144.18C468.431 2144.18 469.319 2143.29 469.319 2142.2V2136.25H475.272C476.368 2136.25 477.257 2135.36 477.257 2134.26C477.257 2133.16 476.368 2132.28 475.272 2132.28H469.319V2126.32C469.319 2125.23 468.431 2124.34 467.335 2124.34Z" fill="#FFBB6B"/>
<path opacity="0.1" fill-rule="evenodd" clip-rule="evenodd" d="M169.669 2124.34C168.573 2124.34 167.685 2125.23 167.685 2126.32V2132.28H161.732C160.636 2132.28 159.747 2133.16 159.747 2134.26C159.747 2135.36 160.636 2136.25 161.732 2136.25H167.685V2142.2C167.685 2143.29 168.573 2144.18 169.669 2144.18C170.765 2144.18 171.654 2143.29 171.654 2142.2V2136.25H177.607C178.703 2136.25 179.591 2135.36 179.591 2134.26C179.591 2133.16 178.703 2132.28 177.607 2132.28H171.654V2126.32C171.654 2125.23 170.765 2124.34 169.669 2124.34Z" fill="#FFBB6B"/>
<path opacity="0.1" fill-rule="evenodd" clip-rule="evenodd" d="M1062.67 1886.21C1061.57 1886.21 1060.68 1887.09 1060.68 1888.19V1894.14H1054.73C1053.63 1894.14 1052.74 1895.03 1052.74 1896.13C1052.74 1897.22 1053.63 1898.11 1054.73 1898.11H1060.68V1904.07C1060.68 1905.16 1061.57 1906.05 1062.67 1906.05C1063.76 1906.05 1064.65 1905.16 1064.65 1904.07V1898.11H1070.6C1071.7 1898.11 1072.59 1897.22 1072.59 1896.13C1072.59 1895.03 1071.7 1894.14 1070.6 1894.14H1064.65V1888.19C1064.65 1887.09 1063.76 1886.21 1062.67 1886.21Z" fill="#FFBB6B"/>
<path opacity="0.1" fill-rule="evenodd" clip-rule="evenodd" d="M1360.33 1886.21C1359.23 1886.21 1358.35 1887.09 1358.35 1888.19V1894.14H1352.39C1351.3 1894.14 1350.41 1895.03 1350.41 1896.13C1350.41 1897.22 1351.3 1898.11 1352.39 1898.11H1358.35V1904.07C1358.35 1905.16 1359.23 1906.05 1360.33 1906.05C1361.43 1906.05 1362.32 1905.16 1362.32 1904.07V1898.11H1368.27C1369.36 1898.11 1370.25 1897.22 1370.25 1896.13C1370.25 1895.03 1369.36 1894.14 1368.27 1894.14H1362.32V1888.19C1362.32 1887.09 1361.43 1886.21 1360.33 1886.21Z" fill="#FFBB6B"/>
<path opacity="0.1" fill-rule="evenodd" clip-rule="evenodd" d="M765 1886.21C763.904 1886.21 763.016 1887.09 763.016 1888.19V1894.14H757.062C755.966 1894.14 755.078 1895.03 755.078 1896.13C755.078 1897.22 755.966 1898.11 757.062 1898.11H763.016V1904.07C763.016 1905.16 763.904 1906.05 765 1906.05C766.096 1906.05 766.984 1905.16 766.984 1904.07V1898.11H772.938C774.034 1898.11 774.922 1897.22 774.922 1896.13C774.922 1895.03 774.034 1894.14 772.938 1894.14H766.984V1888.19C766.984 1887.09 766.096 1886.21 765 1886.21Z" fill="#FFBB6B"/>
<path opacity="0.1" fill-rule="evenodd" clip-rule="evenodd" d="M467.335 1886.21C466.239 1886.21 465.35 1887.09 465.35 1888.19V1894.14H459.397C458.301 1894.14 457.412 1895.03 457.412 1896.13C457.412 1897.22 458.301 1898.11 459.397 1898.11H465.35V1904.07C465.35 1905.16 466.239 1906.05 467.335 1906.05C468.431 1906.05 469.319 1905.16 469.319 1904.07V1898.11H475.272C476.368 1898.11 477.257 1897.22 477.257 1896.13C477.257 1895.03 476.368 1894.14 475.272 1894.14H469.319V1888.19C469.319 1887.09 468.431 1886.21 467.335 1886.21Z" fill="#FFBB6B"/>
<path opacity="0.1" fill-rule="evenodd" clip-rule="evenodd" d="M169.669 1886.21C168.573 1886.21 167.685 1887.09 167.685 1888.19V1894.14H161.732C160.636 1894.14 159.747 1895.03 159.747 1896.13C159.747 1897.22 160.636 1898.11 161.732 1898.11H167.685V1904.07C167.685 1905.16 168.573 1906.05 169.669 1906.05C170.765 1906.05 171.654 1905.16 171.654 1904.07V1898.11H177.607C178.703 1898.11 179.591 1897.22 179.591 1896.13C179.591 1895.03 178.703 1894.14 177.607 1894.14H171.654V1888.19C171.654 1887.09 170.765 1886.21 169.669 1886.21Z" fill="#FFBB6B"/>
<path opacity="0.1" fill-rule="evenodd" clip-rule="evenodd" d="M1062.67 5220.06C1061.57 5220.06 1060.68 5220.95 1060.68 5222.04V5228H1054.73C1053.63 5228 1052.74 5228.89 1052.74 5229.98C1052.74 5231.08 1053.63 5231.97 1054.73 5231.97H1060.68V5237.92C1060.68 5239.01 1061.57 5239.9 1062.67 5239.9C1063.76 5239.9 1064.65 5239.01 1064.65 5237.92V5231.97H1070.6C1071.7 5231.97 1072.59 5231.08 1072.59 5229.98C1072.59 5228.89 1071.7 5228 1070.6 5228H1064.65V5222.04C1064.65 5220.95 1063.76 5220.06 1062.67 5220.06Z" fill="#FFBB6B"/>
<path opacity="0.1" fill-rule="evenodd" clip-rule="evenodd" d="M1360.33 5220.06C1359.23 5220.06 1358.35 5220.95 1358.35 5222.04V5228H1352.39C1351.3 5228 1350.41 5228.89 1350.41 5229.98C1350.41 5231.08 1351.3 5231.97 1352.39 5231.97H1358.35V5237.92C1358.35 5239.01 1359.23 5239.9 1360.33 5239.9C1361.43 5239.9 1362.32 5239.01 1362.32 5237.92V5231.97H1368.27C1369.36 5231.97 1370.25 5231.08 1370.25 5229.98C1370.25 5228.89 1369.36 5228 1368.27 5228H1362.32V5222.04C1362.32 5220.95 1361.43 5220.06 1360.33 5220.06Z" fill="#FFBB6B"/>
<path opacity="0.1" fill-rule="evenodd" clip-rule="evenodd" d="M765 5220.06C763.904 5220.06 763.016 5220.95 763.016 5222.04V5228H757.062C755.966 5228 755.078 5228.89 755.078 5229.98C755.078 5231.08 755.966 5231.97 757.062 5231.97H763.016V5237.92C763.016 5239.01 763.904 5239.9 765 5239.9C766.096 5239.9 766.984 5239.01 766.984 5237.92V5231.97H772.938C774.034 5231.97 774.922 5231.08 774.922 5229.98C774.922 5228.89 774.034 5228 772.938 5228H766.984V5222.04C766.984 5220.95 766.096 5220.06 765 5220.06Z" fill="#FFBB6B"/>
<path opacity="0.1" fill-rule="evenodd" clip-rule="evenodd" d="M467.335 5220.06C466.239 5220.06 465.35 5220.95 465.35 5222.04V5228H459.397C458.301 5228 457.412 5228.89 457.412 5229.98C457.412 5231.08 458.301 5231.97 459.397 5231.97H465.35V5237.92C465.35 5239.01 466.239 5239.9 467.335 5239.9C468.431 5239.9 469.319 5239.01 469.319 5237.92V5231.97H475.272C476.368 5231.97 477.257 5231.08 477.257 5229.98C477.257 5228.89 476.368 5228 475.272 5228H469.319V5222.04C469.319 5220.95 468.431 5220.06 467.335 5220.06Z" fill="#FFBB6B"/>
<path opacity="0.1" fill-rule="evenodd" clip-rule="evenodd" d="M169.669 5220.06C168.573 5220.06 167.685 5220.95 167.685 5222.04V5228H161.732C160.636 5228 159.747 5228.89 159.747 5229.98C159.747 5231.08 160.636 5231.97 161.732 5231.97H167.685V5237.92C167.685 5239.01 168.573 5239.9 169.669 5239.9C170.765 5239.9 171.654 5239.01 171.654 5237.92V5231.97H177.607C178.703 5231.97 179.591 5231.08 179.591 5229.98C179.591 5228.89 178.703 5228 177.607 5228H171.654V5222.04C171.654 5220.95 170.765 5220.06 169.669 5220.06Z" fill="#FFBB6B"/>
<path opacity="0.1" fill-rule="evenodd" clip-rule="evenodd" d="M1062.67 4981.93C1061.57 4981.93 1060.68 4982.81 1060.68 4983.91V4989.86H1054.73C1053.63 4989.86 1052.74 4990.75 1052.74 4991.85C1052.74 4992.94 1053.63 4993.83 1054.73 4993.83H1060.68V4999.79C1060.68 5000.88 1061.57 5001.77 1062.67 5001.77C1063.76 5001.77 1064.65 5000.88 1064.65 4999.79V4993.83H1070.6C1071.7 4993.83 1072.59 4992.94 1072.59 4991.85C1072.59 4990.75 1071.7 4989.86 1070.6 4989.86H1064.65V4983.91C1064.65 4982.81 1063.76 4981.93 1062.67 4981.93Z" fill="#FFBB6B"/>
<path opacity="0.1" fill-rule="evenodd" clip-rule="evenodd" d="M1360.33 4981.93C1359.23 4981.93 1358.35 4982.81 1358.35 4983.91V4989.86H1352.39C1351.3 4989.86 1350.41 4990.75 1350.41 4991.85C1350.41 4992.94 1351.3 4993.83 1352.39 4993.83H1358.35V4999.79C1358.35 5000.88 1359.23 5001.77 1360.33 5001.77C1361.43 5001.77 1362.32 5000.88 1362.32 4999.79V4993.83H1368.27C1369.36 4993.83 1370.25 4992.94 1370.25 4991.85C1370.25 4990.75 1369.36 4989.86 1368.27 4989.86H1362.32V4983.91C1362.32 4982.81 1361.43 4981.93 1360.33 4981.93Z" fill="#FFBB6B"/>
<path opacity="0.1" fill-rule="evenodd" clip-rule="evenodd" d="M765 4981.93C763.904 4981.93 763.016 4982.81 763.016 4983.91V4989.86H757.062C755.966 4989.86 755.078 4990.75 755.078 4991.85C755.078 4992.94 755.966 4993.83 757.062 4993.83H763.016V4999.79C763.016 5000.88 763.904 5001.77 765 5001.77C766.096 5001.77 766.984 5000.88 766.984 4999.79V4993.83H772.938C774.034 4993.83 774.922 4992.94 774.922 4991.85C774.922 4990.75 774.034 4989.86 772.938 4989.86H766.984V4983.91C766.984 4982.81 766.096 4981.93 765 4981.93Z" fill="#FFBB6B"/>
<path opacity="0.1" fill-rule="evenodd" clip-rule="evenodd" d="M467.335 4981.93C466.239 4981.93 465.35 4982.81 465.35 4983.91V4989.86H459.397C458.301 4989.86 457.412 4990.75 457.412 4991.85C457.412 4992.94 458.301 4993.83 459.397 4993.83H465.35V4999.79C465.35 5000.88 466.239 5001.77 467.335 5001.77C468.431 5001.77 469.319 5000.88 469.319 4999.79V4993.83H475.272C476.368 4993.83 477.257 4992.94 477.257 4991.85C477.257 4990.75 476.368 4989.86 475.272 4989.86H469.319V4983.91C469.319 4982.81 468.431 4981.93 467.335 4981.93Z" fill="#FFBB6B"/>
<path opacity="0.1" fill-rule="evenodd" clip-rule="evenodd" d="M169.669 4981.93C168.573 4981.93 167.685 4982.81 167.685 4983.91V4989.86H161.732C160.636 4989.86 159.747 4990.75 159.747 4991.85C159.747 4992.94 160.636 4993.83 161.732 4993.83H167.685V4999.79C167.685 5000.88 168.573 5001.77 169.669 5001.77C170.765 5001.77 171.654 5000.88 171.654 4999.79V4993.83H177.607C178.703 4993.83 179.591 4992.94 179.591 4991.85C179.591 4990.75 178.703 4989.86 177.607 4989.86H171.654V4983.91C171.654 4982.81 170.765 4981.93 169.669 4981.93Z" fill="#FFBB6B"/>
<path opacity="0.1" fill-rule="evenodd" clip-rule="evenodd" d="M1062.67 4743.79C1061.57 4743.79 1060.68 4744.68 1060.68 4745.78V4751.73H1054.73C1053.63 4751.73 1052.74 4752.62 1052.74 4753.72C1052.74 4754.81 1053.63 4755.7 1054.73 4755.7H1060.68V4761.65C1060.68 4762.75 1061.57 4763.64 1062.67 4763.64C1063.76 4763.64 1064.65 4762.75 1064.65 4761.65V4755.7H1070.6C1071.7 4755.7 1072.59 4754.81 1072.59 4753.72C1072.59 4752.62 1071.7 4751.73 1070.6 4751.73H1064.65V4745.78C1064.65 4744.68 1063.76 4743.79 1062.67 4743.79Z" fill="#FFBB6B"/>
<path opacity="0.1" fill-rule="evenodd" clip-rule="evenodd" d="M1360.33 4743.79C1359.23 4743.79 1358.35 4744.68 1358.35 4745.78V4751.73H1352.39C1351.3 4751.73 1350.41 4752.62 1350.41 4753.72C1350.41 4754.81 1351.3 4755.7 1352.39 4755.7H1358.35V4761.65C1358.35 4762.75 1359.23 4763.64 1360.33 4763.64C1361.43 4763.64 1362.32 4762.75 1362.32 4761.65V4755.7H1368.27C1369.36 4755.7 1370.25 4754.81 1370.25 4753.72C1370.25 4752.62 1369.36 4751.73 1368.27 4751.73H1362.32V4745.78C1362.32 4744.68 1361.43 4743.79 1360.33 4743.79Z" fill="#FFBB6B"/>
<path opacity="0.1" fill-rule="evenodd" clip-rule="evenodd" d="M765 4743.79C763.904 4743.79 763.016 4744.68 763.016 4745.78V4751.73H757.062C755.966 4751.73 755.078 4752.62 755.078 4753.72C755.078 4754.81 755.966 4755.7 757.062 4755.7H763.016V4761.65C763.016 4762.75 763.904 4763.64 765 4763.64C766.096 4763.64 766.984 4762.75 766.984 4761.65V4755.7H772.938C774.034 4755.7 774.922 4754.81 774.922 4753.72C774.922 4752.62 774.034 4751.73 772.938 4751.73H766.984V4745.78C766.984 4744.68 766.096 4743.79 765 4743.79Z" fill="#FFBB6B"/>
<path opacity="0.1" fill-rule="evenodd" clip-rule="evenodd" d="M467.335 4743.79C466.239 4743.79 465.35 4744.68 465.35 4745.78V4751.73H459.397C458.301 4751.73 457.412 4752.62 457.412 4753.72C457.412 4754.81 458.301 4755.7 459.397 4755.7H465.35V4761.65C465.35 4762.75 466.239 4763.64 467.335 4763.64C468.431 4763.64 469.319 4762.75 469.319 4761.65V4755.7H475.272C476.368 4755.7 477.257 4754.81 477.257 4753.72C477.257 4752.62 476.368 4751.73 475.272 4751.73H469.319V4745.78C469.319 4744.68 468.431 4743.79 467.335 4743.79Z" fill="#FFBB6B"/>
<path opacity="0.1" fill-rule="evenodd" clip-rule="evenodd" d="M169.669 4743.79C168.573 4743.79 167.685 4744.68 167.685 4745.78V4751.73H161.732C160.636 4751.73 159.747 4752.62 159.747 4753.72C159.747 4754.81 160.636 4755.7 161.732 4755.7H167.685V4761.65C167.685 4762.75 168.573 4763.64 169.669 4763.64C170.765 4763.64 171.654 4762.75 171.654 4761.65V4755.7H177.607C178.703 4755.7 179.591 4754.81 179.591 4753.72C179.591 4752.62 178.703 4751.73 177.607 4751.73H171.654V4745.78C171.654 4744.68 170.765 4743.79 169.669 4743.79Z" fill="#FFBB6B"/>
<path opacity="0.1" fill-rule="evenodd" clip-rule="evenodd" d="M1062.67 4505.66C1061.57 4505.66 1060.68 4506.55 1060.68 4507.65V4513.6H1054.73C1053.63 4513.6 1052.74 4514.49 1052.74 4515.58C1052.74 4516.68 1053.63 4517.57 1054.73 4517.57H1060.68V4523.52C1060.68 4524.62 1061.57 4525.51 1062.67 4525.51C1063.76 4525.51 1064.65 4524.62 1064.65 4523.52V4517.57H1070.6C1071.7 4517.57 1072.59 4516.68 1072.59 4515.58C1072.59 4514.49 1071.7 4513.6 1070.6 4513.6H1064.65V4507.65C1064.65 4506.55 1063.76 4505.66 1062.67 4505.66Z" fill="#FFBB6B"/>
<path opacity="0.1" fill-rule="evenodd" clip-rule="evenodd" d="M1360.33 4505.66C1359.23 4505.66 1358.35 4506.55 1358.35 4507.65V4513.6H1352.39C1351.3 4513.6 1350.41 4514.49 1350.41 4515.58C1350.41 4516.68 1351.3 4517.57 1352.39 4517.57H1358.35V4523.52C1358.35 4524.62 1359.23 4525.51 1360.33 4525.51C1361.43 4525.51 1362.32 4524.62 1362.32 4523.52V4517.57H1368.27C1369.36 4517.57 1370.25 4516.68 1370.25 4515.58C1370.25 4514.49 1369.36 4513.6 1368.27 4513.6H1362.32V4507.65C1362.32 4506.55 1361.43 4505.66 1360.33 4505.66Z" fill="#FFBB6B"/>
<path opacity="0.1" fill-rule="evenodd" clip-rule="evenodd" d="M765 4505.66C763.904 4505.66 763.016 4506.55 763.016 4507.65V4513.6H757.062C755.966 4513.6 755.078 4514.49 755.078 4515.58C755.078 4516.68 755.966 4517.57 757.062 4517.57H763.016V4523.52C763.016 4524.62 763.904 4525.51 765 4525.51C766.096 4525.51 766.984 4524.62 766.984 4523.52V4517.57H772.938C774.034 4517.57 774.922 4516.68 774.922 4515.58C774.922 4514.49 774.034 4513.6 772.938 4513.6H766.984V4507.65C766.984 4506.55 766.096 4505.66 765 4505.66Z" fill="#FFBB6B"/>
<path opacity="0.1" fill-rule="evenodd" clip-rule="evenodd" d="M467.335 4505.66C466.239 4505.66 465.35 4506.55 465.35 4507.65V4513.6H459.397C458.301 4513.6 457.412 4514.49 457.412 4515.58C457.412 4516.68 458.301 4517.57 459.397 4517.57H465.35V4523.52C465.35 4524.62 466.239 4525.51 467.335 4525.51C468.431 4525.51 469.319 4524.62 469.319 4523.52V4517.57H475.272C476.368 4517.57 477.257 4516.68 477.257 4515.58C477.257 4514.49 476.368 4513.6 475.272 4513.6H469.319V4507.65C469.319 4506.55 468.431 4505.66 467.335 4505.66Z" fill="#FFBB6B"/>
<path opacity="0.1" fill-rule="evenodd" clip-rule="evenodd" d="M169.669 4505.66C168.573 4505.66 167.685 4506.55 167.685 4507.65V4513.6H161.732C160.636 4513.6 159.747 4514.49 159.747 4515.58C159.747 4516.68 160.636 4517.57 161.732 4517.57H167.685V4523.52C167.685 4524.62 168.573 4525.51 169.669 4525.51C170.765 4525.51 171.654 4524.62 171.654 4523.52V4517.57H177.607C178.703 4517.57 179.591 4516.68 179.591 4515.58C179.591 4514.49 178.703 4513.6 177.607 4513.6H171.654V4507.65C171.654 4506.55 170.765 4505.66 169.669 4505.66Z" fill="#FFBB6B"/>
<path opacity="0.1" fill-rule="evenodd" clip-rule="evenodd" d="M1062.67 4267.53C1061.57 4267.53 1060.68 4268.42 1060.68 4269.51V4275.47H1054.73C1053.63 4275.47 1052.74 4276.36 1052.74 4277.45C1052.74 4278.55 1053.63 4279.44 1054.73 4279.44H1060.68V4285.39C1060.68 4286.49 1061.57 4287.37 1062.67 4287.37C1063.76 4287.37 1064.65 4286.49 1064.65 4285.39V4279.44H1070.6C1071.7 4279.44 1072.59 4278.55 1072.59 4277.45C1072.59 4276.36 1071.7 4275.47 1070.6 4275.47H1064.65V4269.51C1064.65 4268.42 1063.76 4267.53 1062.67 4267.53Z" fill="#FFBB6B"/>
<path opacity="0.1" fill-rule="evenodd" clip-rule="evenodd" d="M1360.33 4267.53C1359.23 4267.53 1358.35 4268.42 1358.35 4269.51V4275.47H1352.39C1351.3 4275.47 1350.41 4276.36 1350.41 4277.45C1350.41 4278.55 1351.3 4279.44 1352.39 4279.44H1358.35V4285.39C1358.35 4286.49 1359.23 4287.37 1360.33 4287.37C1361.43 4287.37 1362.32 4286.49 1362.32 4285.39V4279.44H1368.27C1369.36 4279.44 1370.25 4278.55 1370.25 4277.45C1370.25 4276.36 1369.36 4275.47 1368.27 4275.47H1362.32V4269.51C1362.32 4268.42 1361.43 4267.53 1360.33 4267.53Z" fill="#FFBB6B"/>
<path opacity="0.1" fill-rule="evenodd" clip-rule="evenodd" d="M765 4267.53C763.904 4267.53 763.016 4268.42 763.016 4269.51V4275.47H757.062C755.966 4275.47 755.078 4276.36 755.078 4277.45C755.078 4278.55 755.966 4279.44 757.062 4279.44H763.016V4285.39C763.016 4286.49 763.904 4287.37 765 4287.37C766.096 4287.37 766.984 4286.49 766.984 4285.39V4279.44H772.938C774.034 4279.44 774.922 4278.55 774.922 4277.45C774.922 4276.36 774.034 4275.47 772.938 4275.47H766.984V4269.51C766.984 4268.42 766.096 4267.53 765 4267.53Z" fill="#FFBB6B"/>
<path opacity="0.1" fill-rule="evenodd" clip-rule="evenodd" d="M467.335 4267.53C466.239 4267.53 465.35 4268.42 465.35 4269.51V4275.47H459.397C458.301 4275.47 457.412 4276.36 457.412 4277.45C457.412 4278.55 458.301 4279.44 459.397 4279.44H465.35V4285.39C465.35 4286.49 466.239 4287.37 467.335 4287.37C468.431 4287.37 469.319 4286.49 469.319 4285.39V4279.44H475.272C476.368 4279.44 477.257 4278.55 477.257 4277.45C477.257 4276.36 476.368 4275.47 475.272 4275.47H469.319V4269.51C469.319 4268.42 468.431 4267.53 467.335 4267.53Z" fill="#FFBB6B"/>
<path opacity="0.1" fill-rule="evenodd" clip-rule="evenodd" d="M169.669 4267.53C168.573 4267.53 167.685 4268.42 167.685 4269.51V4275.47H161.732C160.636 4275.47 159.747 4276.36 159.747 4277.45C159.747 4278.55 160.636 4279.44 161.732 4279.44H167.685V4285.39C167.685 4286.49 168.573 4287.37 169.669 4287.37C170.765 4287.37 171.654 4286.49 171.654 4285.39V4279.44H177.607C178.703 4279.44 179.591 4278.55 179.591 4277.45C179.591 4276.36 178.703 4275.47 177.607 4275.47H171.654V4269.51C171.654 4268.42 170.765 4267.53 169.669 4267.53Z" fill="#FFBB6B"/>
<path opacity="0.1" fill-rule="evenodd" clip-rule="evenodd" d="M1062.67 4029.4C1061.57 4029.4 1060.68 4030.29 1060.68 4031.38V4037.33H1054.73C1053.63 4037.33 1052.74 4038.22 1052.74 4039.32C1052.74 4040.42 1053.63 4041.3 1054.73 4041.3H1060.68V4047.26C1060.68 4048.35 1061.57 4049.24 1062.67 4049.24C1063.76 4049.24 1064.65 4048.35 1064.65 4047.26V4041.3H1070.6C1071.7 4041.3 1072.59 4040.42 1072.59 4039.32C1072.59 4038.22 1071.7 4037.33 1070.6 4037.33H1064.65V4031.38C1064.65 4030.29 1063.76 4029.4 1062.67 4029.4Z" fill="#FFBB6B"/>
<path opacity="0.1" fill-rule="evenodd" clip-rule="evenodd" d="M1360.33 4029.4C1359.23 4029.4 1358.35 4030.29 1358.35 4031.38V4037.33H1352.39C1351.3 4037.33 1350.41 4038.22 1350.41 4039.32C1350.41 4040.42 1351.3 4041.3 1352.39 4041.3H1358.35V4047.26C1358.35 4048.35 1359.23 4049.24 1360.33 4049.24C1361.43 4049.24 1362.32 4048.35 1362.32 4047.26V4041.3H1368.27C1369.36 4041.3 1370.25 4040.42 1370.25 4039.32C1370.25 4038.22 1369.36 4037.33 1368.27 4037.33H1362.32V4031.38C1362.32 4030.29 1361.43 4029.4 1360.33 4029.4Z" fill="#FFBB6B"/>
<path opacity="0.1" fill-rule="evenodd" clip-rule="evenodd" d="M765 4029.4C763.904 4029.4 763.016 4030.29 763.016 4031.38V4037.33H757.062C755.966 4037.33 755.078 4038.22 755.078 4039.32C755.078 4040.42 755.966 4041.3 757.062 4041.3H763.016V4047.26C763.016 4048.35 763.904 4049.24 765 4049.24C766.096 4049.24 766.984 4048.35 766.984 4047.26V4041.3H772.938C774.034 4041.3 774.922 4040.42 774.922 4039.32C774.922 4038.22 774.034 4037.33 772.938 4037.33H766.984V4031.38C766.984 4030.29 766.096 4029.4 765 4029.4Z" fill="#FFBB6B"/>
<path opacity="0.1" fill-rule="evenodd" clip-rule="evenodd" d="M467.335 4029.4C466.239 4029.4 465.35 4030.29 465.35 4031.38V4037.33H459.397C458.301 4037.33 457.412 4038.22 457.412 4039.32C457.412 4040.42 458.301 4041.3 459.397 4041.3H465.35V4047.26C465.35 4048.35 466.239 4049.24 467.335 4049.24C468.431 4049.24 469.319 4048.35 469.319 4047.26V4041.3H475.272C476.368 4041.3 477.257 4040.42 477.257 4039.32C477.257 4038.22 476.368 4037.33 475.272 4037.33H469.319V4031.38C469.319 4030.29 468.431 4029.4 467.335 4029.4Z" fill="#FFBB6B"/>
<path opacity="0.1" fill-rule="evenodd" clip-rule="evenodd" d="M169.669 4029.4C168.573 4029.4 167.685 4030.29 167.685 4031.38V4037.33H161.732C160.636 4037.33 159.747 4038.22 159.747 4039.32C159.747 4040.42 160.636 4041.3 161.732 4041.3H167.685V4047.26C167.685 4048.35 168.573 4049.24 169.669 4049.24C170.765 4049.24 171.654 4048.35 171.654 4047.26V4041.3H177.607C178.703 4041.3 179.591 4040.42 179.591 4039.32C179.591 4038.22 178.703 4037.33 177.607 4037.33H171.654V4031.38C171.654 4030.29 170.765 4029.4 169.669 4029.4Z" fill="#FFBB6B"/>
<path opacity="0.1" fill-rule="evenodd" clip-rule="evenodd" d="M1062.67 3791.26C1061.57 3791.26 1060.68 3792.15 1060.68 3793.25V3799.2H1054.73C1053.63 3799.2 1052.74 3800.09 1052.74 3801.19C1052.74 3802.28 1053.63 3803.17 1054.73 3803.17H1060.68V3809.12C1060.68 3810.22 1061.57 3811.11 1062.67 3811.11C1063.76 3811.11 1064.65 3810.22 1064.65 3809.12V3803.17H1070.6C1071.7 3803.17 1072.59 3802.28 1072.59 3801.19C1072.59 3800.09 1071.7 3799.2 1070.6 3799.2H1064.65V3793.25C1064.65 3792.15 1063.76 3791.26 1062.67 3791.26Z" fill="#FFBB6B"/>
<path opacity="0.1" fill-rule="evenodd" clip-rule="evenodd" d="M1360.33 3791.26C1359.23 3791.26 1358.35 3792.15 1358.35 3793.25V3799.2H1352.39C1351.3 3799.2 1350.41 3800.09 1350.41 3801.19C1350.41 3802.28 1351.3 3803.17 1352.39 3803.17H1358.35V3809.12C1358.35 3810.22 1359.23 3811.11 1360.33 3811.11C1361.43 3811.11 1362.32 3810.22 1362.32 3809.12V3803.17H1368.27C1369.36 3803.17 1370.25 3802.28 1370.25 3801.19C1370.25 3800.09 1369.36 3799.2 1368.27 3799.2H1362.32V3793.25C1362.32 3792.15 1361.43 3791.26 1360.33 3791.26Z" fill="#FFBB6B"/>
<path opacity="0.1" fill-rule="evenodd" clip-rule="evenodd" d="M765 3791.26C763.904 3791.26 763.016 3792.15 763.016 3793.25V3799.2H757.062C755.966 3799.2 755.078 3800.09 755.078 3801.19C755.078 3802.28 755.966 3803.17 757.062 3803.17H763.016V3809.12C763.016 3810.22 763.904 3811.11 765 3811.11C766.096 3811.11 766.984 3810.22 766.984 3809.12V3803.17H772.938C774.034 3803.17 774.922 3802.28 774.922 3801.19C774.922 3800.09 774.034 3799.2 772.938 3799.2H766.984V3793.25C766.984 3792.15 766.096 3791.26 765 3791.26Z" fill="#FFBB6B"/>
<path opacity="0.1" fill-rule="evenodd" clip-rule="evenodd" d="M467.335 3791.26C466.239 3791.26 465.35 3792.15 465.35 3793.25V3799.2H459.397C458.301 3799.2 457.412 3800.09 457.412 3801.19C457.412 3802.28 458.301 3803.17 459.397 3803.17H465.35V3809.12C465.35 3810.22 466.239 3811.11 467.335 3811.11C468.431 3811.11 469.319 3810.22 469.319 3809.12V3803.17H475.272C476.368 3803.17 477.257 3802.28 477.257 3801.19C477.257 3800.09 476.368 3799.2 475.272 3799.2H469.319V3793.25C469.319 3792.15 468.431 3791.26 467.335 3791.26Z" fill="#FFBB6B"/>
<path opacity="0.1" fill-rule="evenodd" clip-rule="evenodd" d="M169.669 3791.26C168.573 3791.26 167.685 3792.15 167.685 3793.25V3799.2H161.732C160.636 3799.2 159.747 3800.09 159.747 3801.19C159.747 3802.28 160.636 3803.17 161.732 3803.17H167.685V3809.12C167.685 3810.22 168.573 3811.11 169.669 3811.11C170.765 3811.11 171.654 3810.22 171.654 3809.12V3803.17H177.607C178.703 3803.17 179.591 3802.28 179.591 3801.19C179.591 3800.09 178.703 3799.2 177.607 3799.2H171.654V3793.25C171.654 3792.15 170.765 3791.26 169.669 3791.26Z" fill="#FFBB6B"/>
<path opacity="0.1" fill-rule="evenodd" clip-rule="evenodd" d="M1062.67 5456.06C1061.57 5456.06 1060.68 5456.95 1060.68 5458.04V5464H1054.73C1053.63 5464 1052.74 5464.89 1052.74 5465.98C1052.74 5467.08 1053.63 5467.97 1054.73 5467.97H1060.68V5473.92C1060.68 5475.01 1061.57 5475.9 1062.67 5475.9C1063.76 5475.9 1064.65 5475.01 1064.65 5473.92V5467.97H1070.6C1071.7 5467.97 1072.59 5467.08 1072.59 5465.98C1072.59 5464.89 1071.7 5464 1070.6 5464H1064.65V5458.04C1064.65 5456.95 1063.76 5456.06 1062.67 5456.06Z" fill="#FFBB6B"/>
<path opacity="0.1" fill-rule="evenodd" clip-rule="evenodd" d="M1360.33 5456.06C1359.23 5456.06 1358.35 5456.95 1358.35 5458.04V5464H1352.39C1351.3 5464 1350.41 5464.89 1350.41 5465.98C1350.41 5467.08 1351.3 5467.97 1352.39 5467.97H1358.35V5473.92C1358.35 5475.01 1359.23 5475.9 1360.33 5475.9C1361.43 5475.9 1362.32 5475.01 1362.32 5473.92V5467.97H1368.27C1369.36 5467.97 1370.25 5467.08 1370.25 5465.98C1370.25 5464.89 1369.36 5464 1368.27 5464H1362.32V5458.04C1362.32 5456.95 1361.43 5456.06 1360.33 5456.06Z" fill="#FFBB6B"/>
<path opacity="0.1" fill-rule="evenodd" clip-rule="evenodd" d="M765 5456.06C763.904 5456.06 763.016 5456.95 763.016 5458.04V5464H757.062C755.966 5464 755.078 5464.89 755.078 5465.98C755.078 5467.08 755.966 5467.97 757.062 5467.97H763.016V5473.92C763.016 5475.01 763.904 5475.9 765 5475.9C766.096 5475.9 766.984 5475.01 766.984 5473.92V5467.97H772.938C774.034 5467.97 774.922 5467.08 774.922 5465.98C774.922 5464.89 774.034 5464 772.938 5464H766.984V5458.04C766.984 5456.95 766.096 5456.06 765 5456.06Z" fill="#FFBB6B"/>
<path opacity="0.1" fill-rule="evenodd" clip-rule="evenodd" d="M467.335 5456.06C466.239 5456.06 465.35 5456.95 465.35 5458.04V5464H459.397C458.301 5464 457.412 5464.89 457.412 5465.98C457.412 5467.08 458.301 5467.97 459.397 5467.97H465.35V5473.92C465.35 5475.01 466.239 5475.9 467.335 5475.9C468.431 5475.9 469.319 5475.01 469.319 5473.92V5467.97H475.272C476.368 5467.97 477.257 5467.08 477.257 5465.98C477.257 5464.89 476.368 5464 475.272 5464H469.319V5458.04C469.319 5456.95 468.431 5456.06 467.335 5456.06Z" fill="#FFBB6B"/>
<path opacity="0.1" fill-rule="evenodd" clip-rule="evenodd" d="M169.669 5456.06C168.573 5456.06 167.685 5456.95 167.685 5458.04V5464H161.732C160.636 5464 159.747 5464.89 159.747 5465.98C159.747 5467.08 160.636 5467.97 161.732 5467.97H167.685V5473.92C167.685 5475.01 168.573 5475.9 169.669 5475.9C170.765 5475.9 171.654 5475.01 171.654 5473.92V5467.97H177.607C178.703 5467.97 179.591 5467.08 179.591 5465.98C179.591 5464.89 178.703 5464 177.607 5464H171.654V5458.04C171.654 5456.95 170.765 5456.06 169.669 5456.06Z" fill="#FFBB6B"/>
<path opacity="0.1" fill-rule="evenodd" clip-rule="evenodd" d="M1062.67 5694C1061.57 5694 1060.68 5694.89 1060.68 5695.98V5701.94H1054.73C1053.63 5701.94 1052.74 5702.83 1052.74 5703.92C1052.74 5705.02 1053.63 5705.91 1054.73 5705.91H1060.68V5711.86C1060.68 5712.96 1061.57 5713.84 1062.67 5713.84C1063.76 5713.84 1064.65 5712.96 1064.65 5711.86V5705.91H1070.6C1071.7 5705.91 1072.59 5705.02 1072.59 5703.92C1072.59 5702.83 1071.7 5701.94 1070.6 5701.94H1064.65V5695.98C1064.65 5694.89 1063.76 5694 1062.67 5694Z" fill="#FFBB6B"/>
<path opacity="0.1" fill-rule="evenodd" clip-rule="evenodd" d="M1360.33 5694C1359.23 5694 1358.35 5694.89 1358.35 5695.98V5701.94H1352.39C1351.3 5701.94 1350.41 5702.83 1350.41 5703.92C1350.41 5705.02 1351.3 5705.91 1352.39 5705.91H1358.35V5711.86C1358.35 5712.96 1359.23 5713.84 1360.33 5713.84C1361.43 5713.84 1362.32 5712.96 1362.32 5711.86V5705.91H1368.27C1369.36 5705.91 1370.25 5705.02 1370.25 5703.92C1370.25 5702.83 1369.36 5701.94 1368.27 5701.94H1362.32V5695.98C1362.32 5694.89 1361.43 5694 1360.33 5694Z" fill="#FFBB6B"/>
<path opacity="0.1" fill-rule="evenodd" clip-rule="evenodd" d="M765 5694C763.904 5694 763.016 5694.89 763.016 5695.98V5701.94H757.062C755.966 5701.94 755.078 5702.83 755.078 5703.92C755.078 5705.02 755.966 5705.91 757.062 5705.91H763.016V5711.86C763.016 5712.96 763.904 5713.84 765 5713.84C766.096 5713.84 766.984 5712.96 766.984 5711.86V5705.91H772.938C774.034 5705.91 774.922 5705.02 774.922 5703.92C774.922 5702.83 774.034 5701.94 772.938 5701.94H766.984V5695.98C766.984 5694.89 766.096 5694 765 5694Z" fill="#FFBB6B"/>
<path opacity="0.1" fill-rule="evenodd" clip-rule="evenodd" d="M467.335 5694C466.239 5694 465.35 5694.89 465.35 5695.98V5701.94H459.397C458.301 5701.94 457.412 5702.83 457.412 5703.92C457.412 5705.02 458.301 5705.91 459.397 5705.91H465.35V5711.86C465.35 5712.96 466.239 5713.84 467.335 5713.84C468.431 5713.84 469.319 5712.96 469.319 5711.86V5705.91H475.272C476.368 5705.91 477.257 5705.02 477.257 5703.92C477.257 5702.83 476.368 5701.94 475.272 5701.94H469.319V5695.98C469.319 5694.89 468.431 5694 467.335 5694Z" fill="#FFBB6B"/>
<path opacity="0.1" fill-rule="evenodd" clip-rule="evenodd" d="M169.669 5694C168.573 5694 167.685 5694.89 167.685 5695.98V5701.94H161.732C160.636 5701.94 159.747 5702.83 159.747 5703.92C159.747 5705.02 160.636 5705.91 161.732 5705.91H167.685V5711.86C167.685 5712.96 168.573 5713.84 169.669 5713.84C170.765 5713.84 171.654 5712.96 171.654 5711.86V5705.91H177.607C178.703 5705.91 179.591 5705.02 179.591 5703.92C179.591 5702.83 178.703 5701.94 177.607 5701.94H171.654V5695.98C171.654 5694.89 170.765 5694 169.669 5694Z" fill="#FFBB6B"/>
<path opacity="0.1" fill-rule="evenodd" clip-rule="evenodd" d="M1062.67 5932C1061.57 5932 1060.68 5932.89 1060.68 5933.98V5939.94H1054.73C1053.63 5939.94 1052.74 5940.83 1052.74 5941.92C1052.74 5943.02 1053.63 5943.91 1054.73 5943.91H1060.68V5949.86C1060.68 5950.96 1061.57 5951.84 1062.67 5951.84C1063.76 5951.84 1064.65 5950.96 1064.65 5949.86V5943.91H1070.6C1071.7 5943.91 1072.59 5943.02 1072.59 5941.92C1072.59 5940.83 1071.7 5939.94 1070.6 5939.94H1064.65V5933.98C1064.65 5932.89 1063.76 5932 1062.67 5932Z" fill="#FFBB6B"/>
<path opacity="0.1" fill-rule="evenodd" clip-rule="evenodd" d="M1360.33 5932C1359.23 5932 1358.35 5932.89 1358.35 5933.98V5939.94H1352.39C1351.3 5939.94 1350.41 5940.83 1350.41 5941.92C1350.41 5943.02 1351.3 5943.91 1352.39 5943.91H1358.35V5949.86C1358.35 5950.96 1359.23 5951.84 1360.33 5951.84C1361.43 5951.84 1362.32 5950.96 1362.32 5949.86V5943.91H1368.27C1369.36 5943.91 1370.25 5943.02 1370.25 5941.92C1370.25 5940.83 1369.36 5939.94 1368.27 5939.94H1362.32V5933.98C1362.32 5932.89 1361.43 5932 1360.33 5932Z" fill="#FFBB6B"/>
<path opacity="0.1" fill-rule="evenodd" clip-rule="evenodd" d="M765 5932C763.904 5932 763.016 5932.89 763.016 5933.98V5939.94H757.062C755.966 5939.94 755.078 5940.83 755.078 5941.92C755.078 5943.02 755.966 5943.91 757.062 5943.91H763.016V5949.86C763.016 5950.96 763.904 5951.84 765 5951.84C766.096 5951.84 766.984 5950.96 766.984 5949.86V5943.91H772.938C774.034 5943.91 774.922 5943.02 774.922 5941.92C774.922 5940.83 774.034 5939.94 772.938 5939.94H766.984V5933.98C766.984 5932.89 766.096 5932 765 5932Z" fill="#FFBB6B"/>
<path opacity="0.1" fill-rule="evenodd" clip-rule="evenodd" d="M467.335 5932C466.239 5932 465.35 5932.89 465.35 5933.98V5939.94H459.397C458.301 5939.94 457.412 5940.83 457.412 5941.92C457.412 5943.02 458.301 5943.91 459.397 5943.91H465.35V5949.86C465.35 5950.96 466.239 5951.84 467.335 5951.84C468.431 5951.84 469.319 5950.96 469.319 5949.86V5943.91H475.272C476.368 5943.91 477.257 5943.02 477.257 5941.92C477.257 5940.83 476.368 5939.94 475.272 5939.94H469.319V5933.98C469.319 5932.89 468.431 5932 467.335 5932Z" fill="#FFBB6B"/>
<path opacity="0.1" fill-rule="evenodd" clip-rule="evenodd" d="M169.669 5932C168.573 5932 167.685 5932.89 167.685 5933.98V5939.94H161.732C160.636 5939.94 159.747 5940.83 159.747 5941.92C159.747 5943.02 160.636 5943.91 161.732 5943.91H167.685V5949.86C167.685 5950.96 168.573 5951.84 169.669 5951.84C170.765 5951.84 171.654 5950.96 171.654 5949.86V5943.91H177.607C178.703 5943.91 179.591 5943.02 179.591 5941.92C179.591 5940.83 178.703 5939.94 177.607 5939.94H171.654V5933.98C171.654 5932.89 170.765 5932 169.669 5932Z" fill="#FFBB6B"/>
<path opacity="0.1" fill-rule="evenodd" clip-rule="evenodd" d="M1062.67 6170C1061.57 6170 1060.68 6170.89 1060.68 6171.98V6177.94H1054.73C1053.63 6177.94 1052.74 6178.83 1052.74 6179.92C1052.74 6181.02 1053.63 6181.91 1054.73 6181.91H1060.68V6187.86C1060.68 6188.96 1061.57 6189.84 1062.67 6189.84C1063.76 6189.84 1064.65 6188.96 1064.65 6187.86V6181.91H1070.6C1071.7 6181.91 1072.59 6181.02 1072.59 6179.92C1072.59 6178.83 1071.7 6177.94 1070.6 6177.94H1064.65V6171.98C1064.65 6170.89 1063.76 6170 1062.67 6170Z" fill="#FFBB6B"/>
<path opacity="0.1" fill-rule="evenodd" clip-rule="evenodd" d="M1360.33 6170C1359.23 6170 1358.35 6170.89 1358.35 6171.98V6177.94H1352.39C1351.3 6177.94 1350.41 6178.83 1350.41 6179.92C1350.41 6181.02 1351.3 6181.91 1352.39 6181.91H1358.35V6187.86C1358.35 6188.96 1359.23 6189.84 1360.33 6189.84C1361.43 6189.84 1362.32 6188.96 1362.32 6187.86V6181.91H1368.27C1369.36 6181.91 1370.25 6181.02 1370.25 6179.92C1370.25 6178.83 1369.36 6177.94 1368.27 6177.94H1362.32V6171.98C1362.32 6170.89 1361.43 6170 1360.33 6170Z" fill="#FFBB6B"/>
<path opacity="0.1" fill-rule="evenodd" clip-rule="evenodd" d="M765 6170C763.904 6170 763.016 6170.89 763.016 6171.98V6177.94H757.062C755.966 6177.94 755.078 6178.83 755.078 6179.92C755.078 6181.02 755.966 6181.91 757.062 6181.91H763.016V6187.86C763.016 6188.96 763.904 6189.84 765 6189.84C766.096 6189.84 766.984 6188.96 766.984 6187.86V6181.91H772.938C774.034 6181.91 774.922 6181.02 774.922 6179.92C774.922 6178.83 774.034 6177.94 772.938 6177.94H766.984V6171.98C766.984 6170.89 766.096 6170 765 6170Z" fill="#FFBB6B"/>
<path opacity="0.1" fill-rule="evenodd" clip-rule="evenodd" d="M467.335 6170C466.239 6170 465.35 6170.89 465.35 6171.98V6177.94H459.397C458.301 6177.94 457.412 6178.83 457.412 6179.92C457.412 6181.02 458.301 6181.91 459.397 6181.91H465.35V6187.86C465.35 6188.96 466.239 6189.84 467.335 6189.84C468.431 6189.84 469.319 6188.96 469.319 6187.86V6181.91H475.272C476.368 6181.91 477.257 6181.02 477.257 6179.92C477.257 6178.83 476.368 6177.94 475.272 6177.94H469.319V6171.98C469.319 6170.89 468.431 6170 467.335 6170Z" fill="#FFBB6B"/>
<path opacity="0.1" fill-rule="evenodd" clip-rule="evenodd" d="M169.669 6170C168.573 6170 167.685 6170.89 167.685 6171.98V6177.94H161.732C160.636 6177.94 159.747 6178.83 159.747 6179.92C159.747 6181.02 160.636 6181.91 161.732 6181.91H167.685V6187.86C167.685 6188.96 168.573 6189.84 169.669 6189.84C170.765 6189.84 171.654 6188.96 171.654 6187.86V6181.91H177.607C178.703 6181.91 179.591 6181.02 179.591 6179.92C179.591 6178.83 178.703 6177.94 177.607 6177.94H171.654V6171.98C171.654 6170.89 170.765 6170 169.669 6170Z" fill="#FFBB6B"/>
<path opacity="0.1" fill-rule="evenodd" clip-rule="evenodd" d="M1062.67 6408C1061.57 6408 1060.68 6408.89 1060.68 6409.98V6415.94H1054.73C1053.63 6415.94 1052.74 6416.83 1052.74 6417.92C1052.74 6419.02 1053.63 6419.91 1054.73 6419.91H1060.68V6425.86C1060.68 6426.96 1061.57 6427.84 1062.67 6427.84C1063.76 6427.84 1064.65 6426.96 1064.65 6425.86V6419.91H1070.6C1071.7 6419.91 1072.59 6419.02 1072.59 6417.92C1072.59 6416.83 1071.7 6415.94 1070.6 6415.94H1064.65V6409.98C1064.65 6408.89 1063.76 6408 1062.67 6408Z" fill="#FFBB6B"/>
<path opacity="0.1" fill-rule="evenodd" clip-rule="evenodd" d="M1360.33 6408C1359.23 6408 1358.35 6408.89 1358.35 6409.98V6415.94H1352.39C1351.3 6415.94 1350.41 6416.83 1350.41 6417.92C1350.41 6419.02 1351.3 6419.91 1352.39 6419.91H1358.35V6425.86C1358.35 6426.96 1359.23 6427.84 1360.33 6427.84C1361.43 6427.84 1362.32 6426.96 1362.32 6425.86V6419.91H1368.27C1369.36 6419.91 1370.25 6419.02 1370.25 6417.92C1370.25 6416.83 1369.36 6415.94 1368.27 6415.94H1362.32V6409.98C1362.32 6408.89 1361.43 6408 1360.33 6408Z" fill="#FFBB6B"/>
<path opacity="0.1" fill-rule="evenodd" clip-rule="evenodd" d="M765 6408C763.904 6408 763.016 6408.89 763.016 6409.98V6415.94H757.062C755.966 6415.94 755.078 6416.83 755.078 6417.92C755.078 6419.02 755.966 6419.91 757.062 6419.91H763.016V6425.86C763.016 6426.96 763.904 6427.84 765 6427.84C766.096 6427.84 766.984 6426.96 766.984 6425.86V6419.91H772.938C774.034 6419.91 774.922 6419.02 774.922 6417.92C774.922 6416.83 774.034 6415.94 772.938 6415.94H766.984V6409.98C766.984 6408.89 766.096 6408 765 6408Z" fill="#FFBB6B"/>
<path opacity="0.1" fill-rule="evenodd" clip-rule="evenodd" d="M467.335 6408C466.239 6408 465.35 6408.89 465.35 6409.98V6415.94H459.397C458.301 6415.94 457.412 6416.83 457.412 6417.92C457.412 6419.02 458.301 6419.91 459.397 6419.91H465.35V6425.86C465.35 6426.96 466.239 6427.84 467.335 6427.84C468.431 6427.84 469.319 6426.96 469.319 6425.86V6419.91H475.272C476.368 6419.91 477.257 6419.02 477.257 6417.92C477.257 6416.83 476.368 6415.94 475.272 6415.94H469.319V6409.98C469.319 6408.89 468.431 6408 467.335 6408Z" fill="#FFBB6B"/>
<path opacity="0.1" fill-rule="evenodd" clip-rule="evenodd" d="M169.669 6408C168.573 6408 167.685 6408.89 167.685 6409.98V6415.94H161.732C160.636 6415.94 159.747 6416.83 159.747 6417.92C159.747 6419.02 160.636 6419.91 161.732 6419.91H167.685V6425.86C167.685 6426.96 168.573 6427.84 169.669 6427.84C170.765 6427.84 171.654 6426.96 171.654 6425.86V6419.91H177.607C178.703 6419.91 179.591 6419.02 179.591 6417.92C179.591 6416.83 178.703 6415.94 177.607 6415.94H171.654V6409.98C171.654 6408.89 170.765 6408 169.669 6408Z" fill="#FFBB6B"/>
<path opacity="0.05" d="M0 5466L1530 5466" stroke="white"/>
<path opacity="0.05" d="M0 5703.94L1530 5703.94" stroke="white"/>
<path opacity="0.05" d="M0 5941.94L1530 5941.94" stroke="white"/>
<path opacity="0.05" d="M0 6179.94L1530 6179.94" stroke="white"/>
<path opacity="0.05" d="M0 6417.94L1530 6417.94" stroke="white"/>
</svg>
