<svg width="32" height="30" viewBox="0 0 32 30" fill="none" xmlns="http://www.w3.org/2000/svg">
<path fill-rule="evenodd" clip-rule="evenodd" d="M2.42493 6.96786C2.51911 7.02515 3.43722 8.09835 3.46171 8.14745L5.15122 9.717C7.23301 11.4477 9.5469 12.9178 12.0162 14.204C12.0633 14.2286 12.1056 14.2484 12.144 14.2665C12.2929 14.3365 12.3842 14.3795 12.4799 14.5634C12.9715 15.5085 13.2732 16.6431 13.3293 17.7839C13.4023 19.2664 13.1182 20.6588 12.6921 22.0366C12.5364 22.5399 12.4215 22.8203 12.3518 22.9902C12.2902 23.1404 12.2641 23.2042 12.2766 23.2592C12.2859 23.2997 12.3161 23.3354 12.3686 23.3975L12.3686 23.3975C12.4141 23.4512 12.4762 23.5247 12.5559 23.638C12.6372 23.7536 12.7214 23.8773 12.8016 23.9987C12.927 24.1885 13.0359 24.3621 13.1533 24.5494C13.1921 24.6112 13.2318 24.6745 13.2733 24.7403C13.5784 25.2241 13.8825 25.744 14.1813 26.2595C14.2684 26.4099 14.3565 26.5616 14.445 26.714L14.4454 26.7147C14.6549 27.0754 14.8664 27.4396 15.0712 27.7969L15.9783 29.3194C16.0727 29.2706 16.1385 29.1514 16.1991 29.0417C16.2127 29.0172 16.226 28.9931 16.2393 28.9705C16.5027 28.5207 16.768 28.0596 17.0354 27.5947L17.0354 27.5947C17.7323 26.3832 18.4437 25.1464 19.1765 24.0197C19.3507 23.7519 19.4792 23.5961 19.5664 23.4903C19.648 23.3913 19.6935 23.3362 19.7064 23.2742C19.7228 23.1961 19.6875 23.1071 19.6076 22.906C19.5391 22.7336 19.4379 22.4786 19.3084 22.0772C18.8849 20.7647 18.5926 19.2209 18.659 17.8224C18.7166 16.608 18.988 15.634 19.4894 14.6184C19.5985 14.3974 19.6584 14.3672 19.805 14.2933L19.805 14.2933C19.8394 14.2759 19.8786 14.2562 19.9243 14.231C20.0519 14.1607 20.1783 14.0925 20.3044 14.0244L20.3052 14.0239L20.3054 14.0238L20.3057 14.0237L20.3057 14.0237L20.3057 14.0236L20.3058 14.0236C20.5327 13.9011 20.7584 13.7791 20.9874 13.6475C23.6994 12.0879 25.9471 10.7094 28.1096 8.5502C28.1584 8.50151 28.2034 8.45152 28.2477 8.4023L28.2477 8.40227L28.2477 8.40225L28.2477 8.40222C28.3357 8.30454 28.4209 8.20986 28.5275 8.13428C28.5767 8.05202 28.8052 7.80842 28.9576 7.64598C28.9954 7.60576 29.0284 7.57051 29.053 7.54392C29.0948 7.49856 29.1444 7.43484 29.1982 7.36572C29.3161 7.21415 29.4542 7.03664 29.5751 6.97C29.5979 6.8966 29.7594 6.68213 29.8926 6.50531C29.9602 6.41561 30.0204 6.3356 30.0516 6.28861C30.2144 6.04307 30.3478 5.82671 30.4845 5.55119L30.5042 5.51135L30.5042 5.51134C30.5595 5.39976 30.608 5.30186 30.6761 5.17934C30.8442 4.87736 30.9938 4.49804 31.1272 4.15997L31.1272 4.15994C31.1571 4.08424 31.1862 4.0106 31.2144 3.94037C31.418 3.43462 31.6198 2.69222 31.7374 2.12225C31.869 1.48447 31.942 0.69828 32 0C31.8353 0.0137282 31.7777 0.0917698 31.7009 0.195783C31.6915 0.208484 31.6818 0.221573 31.6716 0.234978C31.6169 0.307048 31.5774 0.353602 31.5362 0.402189L31.5362 0.402231C31.5016 0.443052 31.4657 0.485313 31.4186 0.545351L29.7303 2.80098C29.6971 2.84507 29.6682 2.8823 29.6409 2.91742L29.6409 2.91744C29.5902 2.98279 29.5452 3.04085 29.4881 3.12225C29.3359 3.33931 29.1809 3.55981 29.0187 3.77966C28.84 4.02184 28.6699 4.26501 28.5002 4.50765L28.5 4.50781L28.5 4.50787L28.5 4.50792C28.3573 4.7118 28.2149 4.9153 28.068 5.11754C28.004 5.27058 27.8174 5.51999 27.6913 5.68856L27.6913 5.68858C27.6684 5.7191 27.6476 5.74697 27.6298 5.77114C27.6028 5.80777 27.5769 5.8462 27.5509 5.88486C27.435 6.05673 27.316 6.23333 27.0874 6.27828C27.0762 6.28717 16.2889 9.07633 15.9769 9.06791L4.90714 6.27702C4.6811 6.24353 4.52668 6.01591 4.40159 5.83152L4.40158 5.83152L4.40158 5.83151L4.40158 5.83151C4.38259 5.80352 4.36428 5.77652 4.34649 5.75136C4.31752 5.71038 4.28194 5.66269 4.24363 5.61134C4.12435 5.45148 3.97862 5.25615 3.92349 5.11754C3.86793 5.06217 3.81967 4.98554 3.77002 4.9067L3.77002 4.90669C3.74672 4.8697 3.72312 4.83222 3.69832 4.79623L2.05255 2.49801C1.79517 2.12444 0.335847 0.0899144 0 9.30813e-05L0.0877619 1.08316C0.239253 2.87684 1.11766 5.15309 2.17773 6.62309C2.20842 6.66563 2.23626 6.7033 2.26279 6.73918L2.26281 6.73922L2.26282 6.73923C2.31805 6.81393 2.36754 6.88087 2.42493 6.96786ZM29.0193 8.94706C28.6768 9.47238 26.3972 11.3422 25.8655 11.7499C23.9296 13.2338 22.4479 14.0328 20.2491 15.0698C19.9852 15.1943 19.9573 15.3739 19.8909 15.8016C19.8758 15.8984 19.8588 16.0079 19.8366 16.1324C19.4338 18.3946 19.4925 20.6282 20.4672 22.534C20.5835 22.4878 21.8312 21.3293 22.6428 20.5756L22.6432 20.5753C22.9239 20.3146 23.1525 20.1024 23.2639 20.0014C23.3009 19.9679 23.35 19.9293 23.4 19.89L23.4 19.89C23.475 19.8309 23.5521 19.7702 23.5931 19.7231C23.7141 19.5842 23.713 19.2041 23.7121 18.8967C23.7118 18.7975 23.7116 18.7058 23.7154 18.6323C23.729 18.3748 23.7446 18.1153 23.7602 17.8552C23.7912 17.3387 23.8223 16.8203 23.8383 16.3126C24.2996 16.1728 24.8275 15.9555 25.3378 15.7453C25.5408 15.6617 25.741 15.5793 25.9332 15.5034C26.1253 15.4274 26.317 15.3538 26.5102 15.2796C26.659 15.2225 26.8088 15.165 26.9605 15.1057C27.0966 15.0525 27.2187 15.0077 27.3293 14.967L27.3294 14.967C28.2001 14.647 28.3578 14.589 29.0462 12.808C29.1871 12.4433 29.2997 12.0886 29.4188 11.7015C29.4625 11.5592 29.4997 11.3982 29.5372 11.2358C29.5947 10.987 29.6529 10.7349 29.7368 10.5418C29.761 10.2511 29.8242 9.92998 29.8895 9.59888C30.004 9.01772 30.1245 8.40589 30.0506 7.87434C29.931 7.9833 29.8477 8.08264 29.7656 8.18041C29.6954 8.26411 29.6262 8.34666 29.536 8.43312C29.4581 8.50779 29.3916 8.58187 29.3285 8.65216L29.3285 8.65218L29.3285 8.65219C29.2277 8.76452 29.1356 8.86715 29.0194 8.94697L29.0193 8.94706ZM2.48767 11.2929C2.38959 10.9373 2.31295 10.6595 2.25581 10.5304V10.5303C2.2377 10.3092 2.18639 10.0541 2.13539 9.80059L2.13539 9.80058C2.09945 9.62192 2.06366 9.44402 2.03976 9.27928C1.97545 8.83608 1.92177 8.33886 1.92709 7.87434C2.0643 7.94118 2.25538 8.16842 2.44877 8.39843C2.63759 8.62298 2.82862 8.85018 2.97392 8.93332C3.18321 9.28684 4.80783 10.6808 5.31119 11.0913C7.45279 12.8376 9.22369 13.8783 11.7613 15.0672C12.0232 15.1898 12.0495 15.3611 12.1162 15.7944L12.1162 15.7944C12.1316 15.8948 12.1493 16.0093 12.1725 16.1405C12.2479 16.5668 12.3011 16.9987 12.3405 17.4412C12.5117 19.3653 12.316 21.062 11.5395 22.534C11.4021 22.4791 10.9905 22.0883 10.656 21.7707L10.656 21.7707C10.4892 21.6123 10.3416 21.4722 10.2568 21.401L8.38144 19.6714C8.30806 19.5502 8.27986 18.7858 8.25077 17.9972C8.22636 17.3355 8.20131 16.6567 8.14842 16.3265C8.00002 16.2312 7.16646 15.9176 6.28096 15.5845L6.28088 15.5845L6.28082 15.5844C5.2371 15.1918 4.12128 14.772 3.97034 14.6506C3.2551 14.0752 2.77766 12.3442 2.48767 11.2929ZM15.6649 29.4817L12.0545 24.2932C11.9305 24.4611 11.609 25.929 11.5731 26.2443C11.3509 28.195 14.0495 29.5832 15.6649 29.4817H15.6649ZM16.3351 29.4865C16.3351 29.4865 16.3351 29.4865 16.3351 29.4865V29.4865C16.3351 29.4865 16.3351 29.4865 16.3351 29.4865ZM16.3351 29.4865C17.6489 29.5054 18.8959 28.9053 19.7604 28.0385C20.1314 27.6665 20.5013 27.0429 20.4311 26.2752C20.4078 26.0196 20.0427 24.4081 19.955 24.2932L19.0463 25.5774C18.9737 25.6827 18.7743 25.9657 18.5144 26.3347C17.74 27.4338 16.4288 29.2951 16.3351 29.4865Z" fill="#214284"/>
</svg>
