<svg width="71" height="52" viewBox="0 0 71 52" fill="none" xmlns="http://www.w3.org/2000/svg">
<path opacity="0.5" d="M3.6738 52C2.60892 52 1.73041 51.6523 1.03825 50.9568C0.346085 50.3148 0 49.4856 0 48.4691C0 46.8642 1.01163 45.5267 3.03487 44.4568C7.88002 41.8889 11.4207 39.4012 13.6569 36.9938C15.7334 34.6934 16.7717 33.0082 16.7717 31.9383C16.7717 30.9218 15.973 30.3066 14.3757 30.0926L13.4173 30.0123L12.1395 29.8519C8.67867 29.3704 5.88339 27.7654 3.75365 25.037C1.62392 22.3621 0.559059 19.072 0.559059 15.1667C0.559059 11.2613 1.89014 7.83745 4.55231 4.89506C7.53394 1.63169 11.3941 0 16.1327 0C20.7117 0 24.5984 1.79218 27.793 5.37654C31.1474 9.0144 32.8245 13.5885 32.8245 19.0988C32.8245 23.9671 31.1474 28.9959 27.793 34.1852C24.4387 39.428 20.0727 43.8148 14.6952 47.3457C10.0098 50.4486 6.33596 52 3.6738 52ZM41.8493 52C40.7844 52 39.9059 51.6523 39.2137 50.9568C38.5216 50.3148 38.1755 49.4856 38.1755 48.4691C38.1755 46.8642 39.1871 45.5267 41.2104 44.4568C46.0555 41.8889 49.5962 39.4012 51.8324 36.9938C53.9089 34.6934 54.9471 33.0082 54.9471 31.9383C54.9471 30.9218 54.1485 30.3066 52.5512 30.0926L51.5928 30.0123L50.315 29.8519C46.8541 29.3704 44.0589 27.7654 41.9291 25.037C39.7994 22.3621 38.7345 19.072 38.7345 15.1667C38.7345 11.2613 40.0656 7.83745 42.7278 4.89506C45.7094 1.63169 49.5696 0 54.3082 0C58.8871 0 62.7739 1.79218 65.9685 5.37654C69.3228 9.0144 71 13.5885 71 19.0988C71 23.9671 69.3228 28.9959 65.9685 34.1852C62.6142 39.428 58.2482 43.8148 52.8706 47.3457C48.1852 50.4486 44.5114 52 41.8493 52Z" fill="#FFBB6B"/>
</svg>
