<svg width="178" height="60" viewBox="0 0 178 60" fill="none" xmlns="http://www.w3.org/2000/svg">
<path fill-rule="evenodd" clip-rule="evenodd" d="M29.4425 53.9825C26.4825 54.1675 21.5375 51.6394 21.9448 48.0871C22.0106 47.513 22.5997 44.8397 22.8269 44.534L29.4424 53.9825H29.4425ZM30.6392 53.9918C30.8681 53.5285 35.0755 47.658 35.6048 46.8976L37.269 44.5671C37.4297 44.7757 38.0983 47.7001 38.141 48.164C38.2696 49.5573 37.5919 50.6889 36.9125 51.3639C35.3293 52.937 33.0453 54.0261 30.6392 53.9917V53.9918ZM6.30327 16.5854C6.68358 17.2274 9.63497 19.7586 10.5494 20.5039C14.4401 23.6749 17.6574 25.5647 22.2674 27.7233C22.8535 27.9977 22.7903 28.406 23.0145 29.6723C23.1515 30.4463 23.2482 31.2306 23.3197 32.0341C23.6307 35.5281 23.2752 38.6087 21.8645 41.2817C21.4905 41.1322 19.9971 39.6126 19.5342 39.2244L16.1272 36.0838C15.8821 35.6787 15.9145 31.324 15.7039 30.0101C15.1164 29.6331 8.62028 27.3744 8.11348 26.9669C6.37461 25.5687 5.40939 20.4129 4.99867 19.4854C4.65869 19.827 3.94933 22.2458 3.84249 22.6193C-0.978415 39.4722 11.5929 57.2667 30.0873 57.221C44.4515 57.1855 55.2901 46.3036 56.9797 33.8742C57.3332 31.2746 57.3365 28.6095 56.962 26.0232C56.8387 25.172 55.8091 20.33 55.0805 19.4811C54.8284 20.0615 54.7037 20.9345 54.502 21.5896C54.2854 22.2934 54.0806 22.9383 53.8242 23.6015C52.4129 27.2512 52.2276 26.9214 50.0299 27.7792C49.3954 28.0269 48.7798 28.2578 48.1611 28.5022C46.9331 28.9874 45.5232 29.6184 44.3502 29.9736C44.3062 31.3615 44.2005 32.7938 44.1266 34.1913C44.0977 34.7386 44.1953 35.8405 43.9041 36.1746C43.7796 36.3174 43.4737 36.5283 43.3053 36.6807C42.5161 37.395 38.5024 41.1723 38.2174 41.2855C36.4443 37.8203 36.3375 33.7591 37.0704 29.646C37.2889 28.4197 37.2318 27.9915 37.8207 27.7139C41.8207 25.8283 44.5162 24.3758 48.038 21.6776C49.0052 20.9365 53.1522 17.5367 53.7754 16.5815C53.5878 16.4266 52.9859 15.4 52.88 15.1337C52.5875 15.3406 52.3836 15.6262 52.1183 15.8908C48.1768 19.8215 44.0804 22.3308 39.1375 25.1699C38.4875 25.5433 37.8517 25.8736 37.2001 26.2321C36.7617 26.4733 36.6529 26.4404 36.4073 26.9373C35.4936 28.786 34.999 30.5591 34.8939 32.7698C34.7728 35.3156 35.3057 38.1261 36.0774 40.5151C37.0404 43.4962 37.1464 42.0407 35.8372 44.0512C33.9891 46.8892 32.2156 50.1111 30.4838 53.0636C30.3512 53.2897 30.2186 53.59 30.0083 53.6987L28.355 50.9272C27.8238 50.0018 27.2679 49.0507 26.733 48.1286C26.1885 47.1902 25.6343 46.2437 25.0782 45.3631C24.7731 44.8801 24.5223 44.4726 24.2185 44.013C24.0723 43.792 23.9188 43.5668 23.7707 43.3565C22.9726 42.2226 23.1392 43.2821 24.0188 40.4412C24.7955 37.9331 25.3133 35.3985 25.1802 32.6997C25.0779 30.6229 24.5282 28.5575 23.6321 26.8372C23.4127 26.416 23.2058 26.4009 22.787 26.1829C18.2867 23.8414 14.0694 21.1653 10.2752 18.0148L7.19597 15.1576L6.30319 16.5859L6.30327 16.5854Z" fill="#214284"/>
<path fill-rule="evenodd" clip-rule="evenodd" d="M5.30655 13.0099C5.4782 13.1142 7.1515 15.0678 7.19615 15.1572L10.2754 18.0144C14.0696 21.1649 18.2868 23.8411 22.7872 26.1825C23.2061 26.4005 23.413 26.4156 23.6323 26.8368C24.5283 28.5571 25.0781 30.6226 25.1804 32.6993C25.3134 35.3981 24.7956 37.9328 24.019 40.4408C23.1394 43.2817 22.9729 42.2222 23.7709 43.356C23.919 43.5664 24.0725 43.7916 24.2187 44.0126C24.5226 44.4722 24.7734 44.8796 25.0783 45.3627C25.6344 46.2433 26.1887 47.1898 26.7332 48.1282C27.2681 49.0503 27.8239 50.0014 28.3552 50.9268L30.0085 53.6983C30.2188 53.5896 30.3514 53.2893 30.484 53.0632C32.2158 50.1108 33.9893 46.8889 35.8374 44.0508C37.1465 42.0402 37.0406 43.4958 36.0776 40.5147C35.3058 38.1256 34.773 35.3152 34.8941 32.7693C34.9991 30.5587 35.4938 28.7856 36.4075 26.9369C36.653 26.44 36.7619 26.4729 37.2003 26.2317C37.8518 25.8731 38.4877 25.5428 39.1377 25.1694C44.0805 22.3304 48.1771 19.821 52.1184 15.8904C52.3838 15.6258 52.5877 15.3402 52.8802 15.1333C52.992 14.9464 53.6126 14.3025 53.8377 14.0586C54.0812 13.7949 54.4686 13.1905 54.7894 13.0138C54.8519 12.8124 55.4891 12.0276 55.6578 11.7734C55.9545 11.3264 56.1976 10.9326 56.4468 10.431C56.5633 10.1965 56.6573 10.0033 56.7961 9.75412C57.171 9.08127 57.4956 8.19756 57.7771 7.4987C58.1482 6.57805 58.516 5.2266 58.7302 4.18903C58.9701 3.02803 59.1032 1.59685 59.2089 0.325714C58.8721 0.353756 58.781 0.529212 58.6104 0.753466C58.4269 0.994918 58.3375 1.07904 58.1493 1.31846L55.0723 5.42459C54.8989 5.65418 54.7908 5.7816 54.6308 6.00941C54.3534 6.40455 54.071 6.80595 53.7754 7.20617C53.1759 8.01762 52.6294 8.83516 52.0425 9.64161C51.9049 9.97067 51.4553 10.5445 51.244 10.8314C50.9765 11.1945 50.7657 11.6544 50.2554 11.7546C50.2349 11.7708 30.5744 16.8482 30.0058 16.8328L9.83052 11.7523C9.356 11.6821 9.05465 11.143 8.80871 10.7954C8.59149 10.4886 8.17051 9.97499 8.03776 9.64161C7.88899 9.49352 7.76894 9.2619 7.62737 9.05671L4.62786 4.87306C4.15877 4.19301 1.49907 0.489393 0.886963 0.325884L1.04691 2.29749C1.32302 5.56268 2.92397 9.70634 4.85601 12.3823C5.02842 12.621 5.15168 12.7755 5.30655 13.0099Z" fill="#FF5D27"/>
<path fill-rule="evenodd" clip-rule="evenodd" d="M124.002 7.11543H109.323V9.72066C111.252 9.72066 113.312 9.92636 114.173 11.185C114.866 12.1977 115.084 14.98 115.084 16.3521V38.0626C115.084 39.5746 114.778 41.7423 114.215 42.6406C113.35 44.0218 110.797 44.0624 109.323 44.0624V46.8256H127.159C127.341 46.8256 127.396 46.7706 127.396 46.5887C127.396 43.8144 127.591 44.0439 126.769 44.0579C126.495 44.0625 126.177 44.0802 125.908 44.0512C125.433 44.0001 124.888 43.9237 124.429 43.7939C123.507 43.5333 122.818 43.1128 122.398 42.3518C121.635 40.9693 121.556 37.8731 121.556 36.1678V27.6415C122.158 27.6415 122.436 27.5626 123.055 27.5626C125.391 27.5626 127.814 27.8566 129.244 28.7927C130.847 29.8423 131.342 32.217 131.342 34.1151H134.104C134.104 31.6909 133.946 29.3297 133.946 26.773C133.946 23.9495 134.104 21.4103 134.104 18.5626H131.342C131.342 19.7807 131.23 20.8381 130.813 21.8236C130.432 22.7262 129.969 23.2124 129.227 23.7102C127.194 25.0742 124.241 24.9573 121.556 24.9573V13.2731C121.556 11.9923 121.635 10.9958 121.635 9.72057H129.448C131.21 9.72057 132.861 9.90526 134.263 10.2723C136.328 10.8129 137.899 11.8546 138.839 13.7468C138.987 14.0443 139.14 14.3144 139.28 14.6476C139.833 15.9603 140.227 18.0855 140.33 19.5973C140.376 20.2597 140.237 20.0626 142.943 20.0626C143.307 20.0626 143.144 19.715 143.117 19.503L142.943 10.1153C142.943 9.53563 142.942 8.95623 142.945 8.37657C142.947 7.78743 142.864 7.38797 142.864 6.72055C142.154 6.72055 141.334 6.86119 140.657 6.88101C136.806 6.99386 132.655 7.11535 128.816 7.11535C127.212 7.11535 125.607 7.11535 124.002 7.11535L124.002 7.11543Z" fill="#214284"/>
<path fill-rule="evenodd" clip-rule="evenodd" d="M147.757 16.9838C147.757 17.9107 147.976 19.3831 148.266 20.2639L149.102 22.0328C149.268 22.3076 149.457 22.5751 149.65 22.8268C150.99 24.5705 153.701 26.1555 155.675 27.1415C156.578 27.5922 158.215 28.4423 159.133 28.8147C159.765 29.0715 160.305 29.3796 160.915 29.6375C161.551 29.9069 163.635 31.0136 164.299 31.4622C165.987 32.6021 167.291 33.3352 168.031 35.5451C169.1 38.7406 168.025 42.5965 164.91 44.1691C164.428 44.4128 164.147 44.5641 163.592 44.7446C160.523 45.7427 156.224 45.2344 153.971 43.0577L152.942 41.9556C151.626 40.395 151.169 39.0457 150.508 37.2847C150.441 37.1078 150.383 37.0061 150.314 36.7681C150.195 36.3562 150.136 36.0468 150.018 35.6433L149.493 33.3259H146.731L146.814 36.5585C146.899 37.587 146.908 38.6153 146.968 39.7209C146.986 40.0678 147.038 40.0511 147.05 40.4285C147.058 40.7142 147.036 41.0165 147.044 41.3021C147.056 41.6795 147.108 41.6629 147.126 42.0097C147.141 42.2907 147.115 42.5981 147.123 42.881C147.14 43.4603 147.201 43.4387 147.202 44.4601C147.203 45.0027 147.284 45.3985 147.284 46.0363C148.101 46.0545 154.068 47.6152 158.411 47.6152C161.567 47.6152 163.165 47.7022 166.236 46.6791C166.649 46.5412 166.979 46.4103 167.355 46.2202C168.279 45.7541 168.415 45.7647 169.398 45.1061C169.61 44.9644 169.662 44.9087 169.844 44.7624L170.702 44.0414C171.173 43.5832 171.266 43.6231 171.874 42.8462C174.615 39.3466 175.126 33.405 172.447 29.7852C170.884 27.6731 169.462 26.8216 167.266 25.4943C166.883 25.2629 166.519 25.1272 166.12 24.9038C164.941 24.2433 163.882 23.8692 162.647 23.2471C162.23 23.037 161.878 22.9044 161.462 22.6949C161.05 22.487 160.696 22.3107 160.306 22.1154C158.755 21.3397 156.893 20.2825 155.67 19.0942L154.8 18.2281C154.102 17.4425 153.445 16.5889 153.294 15.3931C152.903 12.3094 154.695 10.0507 157.257 9.19767C159.361 8.49721 162.208 8.53431 164.147 9.50927C167.059 10.9725 168.347 13.289 168.994 16.5029C169.105 17.0524 169.303 18.0101 169.303 18.6419H172.065V7.9051C171.764 7.89841 171.233 7.72532 170.914 7.63484C170.489 7.51446 170.173 7.43194 169.729 7.32079C168.897 7.11254 168.127 6.95124 167.27 6.78002C163.66 6.05854 158.967 5.7749 155.422 6.96742C153.579 7.58765 152.128 8.42181 150.774 9.65991C150.186 10.1983 149.218 11.5285 148.888 12.1942C148.159 13.665 147.757 15.2332 147.757 16.9839L147.757 16.9838Z" fill="#214284"/>
<path fill-rule="evenodd" clip-rule="evenodd" d="M70.0208 19.2732H72.3095C72.6092 19.2732 72.5316 19.0214 72.6456 18.4251C72.702 18.1305 72.7831 17.7128 72.8422 17.4376C73.0514 16.4627 73.5245 14.7147 73.9995 13.8584C74.6493 12.6871 75.1231 12.013 76.3092 11.3531C78.5669 10.097 81.715 10.1943 84.3844 10.1943V35.3784C84.3844 37.8693 84.3 40.3456 83.6468 42.2194C83.5136 42.6014 83.358 42.8285 83.0674 43.0609C82.6483 43.3963 82.0112 43.6918 81.4674 43.8288C81.0707 43.9288 80.2657 44.0384 79.8074 44.0629C79.5141 44.0785 79.155 44.0647 78.8572 44.0598C77.9491 44.0447 78.1496 43.7518 78.1496 46.5888C78.1496 46.7707 78.2045 46.8256 78.3863 46.8256H96.9326V44.0625C95.3758 44.0625 92.696 44.038 91.8146 42.7876C91.0908 41.761 90.9255 39.6781 90.8553 38.3788L90.7768 10.1944C93.3628 10.1944 97.3403 10.1403 99.426 11.7265C101.143 13.0326 101.815 15.2601 102.316 17.362C102.87 19.6882 101.82 19.2733 105.14 19.2733C105.14 18.7733 105.139 18.2732 105.14 17.7732C105.142 17.1535 105.059 16.8094 105.059 16.276L104.98 13.197C104.951 12.2178 104.923 7.46124 104.825 7.03662C103.857 7.03662 102.268 7.27384 100.721 7.2735C99.227 7.27307 97.9797 7.35237 96.4591 7.35237C93.5548 7.35237 90.8143 7.2735 87.8568 7.2735C84.7924 7.2735 81.9554 7.35237 78.9387 7.35237L72.3859 7.19708C71.7066 7.1776 70.9927 7.03662 70.2575 7.03662C70.2575 9.18487 70.1683 11.0727 70.1792 13.1949C70.1822 13.7961 70.0956 14.053 70.0978 14.6136L70.0208 19.2733L70.0208 19.2732Z" fill="#214284"/>
<path fill-rule="evenodd" clip-rule="evenodd" d="M9.83051 11.7525L30.0058 16.833C30.5744 16.8483 50.2349 11.7709 50.2554 11.7548C49.9615 11.5308 49.646 11.1021 49.3543 10.8141L47.4443 9.09523C45.9662 7.79588 43.7695 6.42054 41.8858 5.49836C34.7645 2.01221 25.2811 1.82617 18.1587 5.52479C16.396 6.44011 15.026 7.22029 13.6116 8.3175C11.5862 9.88889 11.45 10.1516 9.83051 11.7525Z" fill="#214284"/>
<path fill-rule="evenodd" clip-rule="evenodd" d="M54.7893 13.014C54.4684 13.1906 54.081 13.7952 53.8376 14.0587C53.6124 14.3027 52.9919 14.9466 52.88 15.1334C52.986 15.3998 53.588 16.4263 53.7754 16.5813C54.119 16.3452 54.347 15.9997 54.7152 15.647C55.071 15.3061 55.2476 14.9986 55.6512 14.631C55.8624 16.1481 55.2018 18.0249 55.0804 19.481C55.809 20.3299 56.8386 25.1719 56.9618 26.0231C57.3364 28.6094 57.3331 31.2745 56.9796 33.8741C55.29 46.3035 44.4514 57.1854 30.0872 57.2209C11.5928 57.2666 -0.978522 39.4721 3.84239 22.6192C3.94922 22.2457 4.65866 19.8269 4.99856 19.4853C4.94248 18.8007 4.71111 17.9372 4.60605 17.2136C4.48922 16.4088 4.39171 15.506 4.40137 14.6625C4.89402 14.9024 5.76884 16.2798 6.30316 16.5854L7.19594 15.1572C7.1513 15.0678 5.47799 13.1142 5.30635 13.0099L4.30716 14.5631C3.98099 15.1664 3.7009 15.6165 3.386 16.2469C2.80296 17.4136 2.256 18.5139 1.82385 19.8157C0.958856 22.4215 0.0668383 25.5487 0.0971681 28.3515C0.105979 29.1672 -0.079219 29.9055 0.0403209 30.7779C0.141222 31.5144 0.0958125 32.4226 0.198154 33.2253C0.773912 37.7417 1.82698 40.9398 3.99183 44.9038C4.13992 45.1749 4.2931 45.4575 4.45296 45.7059C5.29059 47.0076 5.71538 47.5389 6.57994 48.7096C6.78954 48.9936 6.93263 49.1089 7.15613 49.3965L9.35054 51.7014C10.1966 52.4465 10.651 52.9754 11.7552 53.796L14.0324 55.3863C15.9025 56.5038 15.6201 56.3237 17.356 57.1932C19.6214 58.3279 22.6647 59.1929 25.1936 59.6161C28.9036 60.2368 33.2668 60.1008 36.8912 59.237C38.0746 58.955 39.6912 58.4575 40.7979 58.0136C43.999 56.7295 46.2261 55.5026 48.9376 53.2877C49.1973 53.0756 49.3938 52.9732 49.6403 52.7275C49.8915 52.4772 50.0637 52.3857 50.3119 52.1361C52.9807 49.453 54.0297 48.3472 56.068 44.9467C56.2143 44.7025 56.4152 44.3726 56.5246 44.1403C57.746 41.5455 58.2608 40.6573 59.0518 37.6685C59.5821 35.665 59.9924 33.0957 59.9955 30.8757C59.9961 30.4183 60.1156 30.1801 60.0457 29.7295C59.9778 29.2923 60.0015 28.8959 60.0009 28.4285C59.9978 26.0001 59.0998 22.0991 58.2733 19.8936C58.1518 19.5693 58.0677 19.2607 57.9472 18.9566C57.1157 16.8566 56.7175 16.3164 55.7905 14.6404L54.7895 13.0142L54.7893 13.014Z" fill="#0FA7C8"/>
<path fill-rule="evenodd" clip-rule="evenodd" d="M53.7754 16.5814C53.1522 17.5365 49.0054 20.9363 48.038 21.6775C44.5163 24.3756 41.8208 25.8282 37.8208 27.7138C37.2319 27.9914 37.2889 28.4196 37.0704 29.6459C36.3376 33.759 36.4443 37.8202 38.2175 41.2853C38.5024 41.1721 42.5161 37.3948 43.3053 36.6805C43.4737 36.5281 43.7797 36.3172 43.9042 36.1744C44.1954 35.8404 44.0978 34.7385 44.1267 34.1911C44.2005 32.7937 44.3063 31.3614 44.3503 29.9734C45.5232 29.6183 46.9331 28.9873 48.1611 28.5021C48.7798 28.2577 49.3955 28.0267 50.03 27.7791C52.2277 26.9213 52.413 27.251 53.8242 23.6014C54.0807 22.9382 54.2854 22.2933 54.5021 21.5894C54.7037 20.9344 54.8284 20.0613 55.0806 19.4809C55.202 18.0248 55.8625 16.148 55.6514 14.631C55.2477 14.9986 55.0711 15.3061 54.7153 15.6469C54.347 15.9997 54.1191 16.3453 53.7756 16.5812L53.7754 16.5814Z" fill="#FF5D27"/>
<path fill-rule="evenodd" clip-rule="evenodd" d="M4.99867 19.4853C5.40939 20.4127 6.37461 25.5685 8.11349 26.9668C8.62037 27.3743 15.1165 29.633 15.7039 30.01C15.9145 31.3239 15.8821 35.6787 16.1272 36.0837L19.5342 39.2243C19.9971 39.6125 21.4905 41.1321 21.8645 41.2817C23.2752 38.6086 23.6307 35.5279 23.3197 32.034C23.2482 31.2305 23.1515 30.4462 23.0145 29.6722C22.7903 28.4059 22.8535 27.9976 22.2674 27.7232C17.6574 25.5646 14.4401 23.6748 10.5494 20.5038C9.63497 19.7585 6.6835 17.2273 6.30327 16.5853C5.76894 16.2798 4.89413 14.9023 4.40148 14.6624C4.39182 15.5059 4.48933 16.4088 4.60616 17.2135C4.71122 17.9371 4.94259 18.8006 4.99867 19.4852V19.4853Z" fill="#FF5D27"/>
<path fill-rule="evenodd" clip-rule="evenodd" d="M8.03772 9.64169C8.17048 9.97514 8.59145 10.4886 8.80867 10.7955C9.0547 11.1432 9.35605 11.6822 9.83048 11.7524C11.45 10.1515 11.5862 9.88881 13.6116 8.31743C15.0259 7.22022 16.3959 6.44003 18.1587 5.52472C25.281 1.82609 34.7645 2.01214 41.8857 5.49828C43.7695 6.42038 45.9662 7.79581 47.4443 9.09516L49.3543 10.814C49.646 11.1021 49.9615 11.5309 50.2554 11.7547C50.7658 11.6544 50.9765 11.1945 51.2439 10.8315C51.4553 10.5445 51.9048 9.97074 52.0425 9.64169C51.1469 8.51584 49.1492 6.83423 47.8905 5.88486L43.647 3.26151C40.6166 1.81923 38.9681 1.19679 35.5134 0.503276C29.3635 -0.731433 22.2065 0.395258 17.1971 2.90492C16.7229 3.14256 16.3036 3.31166 15.8776 3.5587C13.3904 5.00098 11.7207 6.03066 9.58954 8.08411C9.37528 8.29057 9.24955 8.34132 9.03394 8.55473C8.64669 8.93792 8.40947 9.23927 8.0378 9.64177L8.03772 9.64169Z" fill="#0FA7C8"/>
<path fill-rule="evenodd" clip-rule="evenodd" d="M29.4425 53.9825L22.827 44.534C22.5997 44.8397 22.0106 47.513 21.9449 48.0871C21.5375 51.6394 26.4825 54.1675 29.4426 53.9825H29.4425Z" fill="#FF5D27"/>
<path fill-rule="evenodd" clip-rule="evenodd" d="M30.6393 53.9918C33.0455 54.0262 35.3294 52.9371 36.9126 51.364C37.5921 50.689 38.2697 49.5574 38.1411 48.1641C38.0983 47.7001 37.4297 44.7758 37.2691 44.5672L35.6049 46.8977C35.0756 47.6581 30.8682 53.5285 30.6393 53.9919V53.9918Z" fill="#FF5D27"/>
<path fill-rule="evenodd" clip-rule="evenodd" d="M71.0469 55.3519C71.0469 51.2562 75.7821 51.5679 75.7821 54.9572V55.6677C75.7821 58.7381 72.4739 58.8086 71.6005 57.4034C71.3067 56.9309 71.0468 56.1115 71.0468 55.3519H71.0469ZM69.7053 54.8782C69.7053 56.1261 69.7176 57.3761 70.6704 58.3338C70.9778 58.6428 71.2083 58.9097 71.6239 59.1168C73.1007 59.853 76.126 59.6698 76.9587 57.0026C77.4123 55.5495 77.2526 53.5808 76.2327 52.3748C75.2766 51.2443 73.4443 50.8466 71.9457 51.4354C70.5363 51.9891 69.7052 53.45 69.7052 54.8783L69.7053 54.8782Z" fill="#214284"/>
<path fill-rule="evenodd" clip-rule="evenodd" d="M135.288 54.0888C135.288 53.3765 135.442 53.4572 134.341 53.4572C134.159 53.4572 134.104 53.5121 134.104 53.694V59.2992C135.426 59.2992 135.368 59.4078 135.375 58.8344C135.386 58.0778 135.268 55.6135 135.472 55.1417C135.819 54.3407 137.497 53.9703 137.497 55.6677V59.2992C138.819 59.2992 138.761 59.4078 138.769 58.8344C138.779 58.0853 138.639 55.5241 138.886 55.0831C139.289 54.3621 140.891 53.9066 140.891 55.8256V59.2992C141.749 59.2992 142.154 59.42 142.154 59.0624V55.9046C142.154 53.5733 141.321 53.3783 139.944 53.3783C139.339 53.3783 138.91 53.7077 138.602 54.1678C137.769 53.6095 138.369 53.3783 136.629 53.3783C135.917 53.3783 135.691 53.8184 135.288 54.0889V54.0888Z" fill="#214284"/>
<path fill-rule="evenodd" clip-rule="evenodd" d="M166.067 59.2992H167.329L168.226 55.6962C168.307 55.3105 168.192 55.3715 168.434 55.194C168.441 55.4978 168.566 55.9271 168.639 56.2517L169.192 58.3836C169.452 59.434 169.217 59.2992 170.486 59.2992C170.775 59.2992 170.796 58.7208 171.049 57.9677L171.897 55.0264C172.02 54.6288 172.291 53.8965 172.301 53.4572C170.623 53.4572 171.228 53.1928 170.593 55.3799C170.435 55.9242 170.104 56.9023 170.091 57.4835L169.096 53.663C168.942 53.3217 168.524 53.4572 167.724 53.4572L166.682 57.2621C166.645 57.1473 166.652 57.1538 166.617 57.0115C166.575 56.8412 166.542 56.7011 166.493 56.5044L165.94 54.3734C165.703 53.3083 165.858 53.4572 164.646 53.4572C164.306 53.4572 164.478 53.7757 164.555 54.0168L166.067 59.2992Z" fill="#214284"/>
<path fill-rule="evenodd" clip-rule="evenodd" d="M79.8069 59.2992C81.151 59.2992 80.725 59.7317 81.3381 57.2783L81.7177 55.6844C81.7748 55.3932 81.7263 55.349 81.9378 55.194C81.95 55.7413 82.5458 57.6856 82.7122 58.3667C82.9696 59.4205 82.6612 59.2992 83.9897 59.2992C84.27 59.2992 84.2452 58.9924 84.3359 58.6981L84.9693 56.4896C85.1426 55.8806 85.7945 53.9272 85.8049 53.4571C84.2546 53.4571 84.7432 52.9374 83.8322 56.3784C83.7445 56.7102 83.6042 57.0792 83.5952 57.4834C83.3722 57.3199 83.4654 57.4257 83.3872 57.0598L82.5691 53.457H81.2275L80.3975 57.0478C80.3113 57.4466 80.4556 57.2971 80.2016 57.4834C80.1916 57.0381 79.6207 55.0847 79.444 54.3727C79.1831 53.3222 79.4182 53.4571 78.1496 53.4571C77.8036 53.4571 77.9887 53.7281 78.0683 54.0067L79.4215 58.6584C79.4937 58.905 79.5013 59.2992 79.8069 59.2992V59.2992Z" fill="#214284"/>
<path fill-rule="evenodd" clip-rule="evenodd" d="M128.501 56.694C128.501 55.7188 128.538 54.4045 130 54.4045C131.452 54.4045 131.5 55.7906 131.5 56.694C131.5 58.9019 128.501 58.9501 128.501 56.694ZM127.159 56.2992C127.159 57.574 127.643 58.7505 128.67 59.2084C129.746 59.688 131.21 59.5349 132.113 58.5703C133.357 57.2403 133.214 53.2992 130 53.2992C128.16 53.2992 127.159 54.6095 127.159 56.2991V56.2992Z" fill="#214284"/>
<path fill-rule="evenodd" clip-rule="evenodd" d="M144.679 56.694C144.679 55.792 144.723 54.4044 146.179 54.4044C147.651 54.4044 147.678 55.6984 147.678 56.694C147.678 58.9501 144.679 58.9019 144.679 56.694ZM143.417 55.8256C143.417 57.1333 143.284 57.7831 144.224 58.7283C144.499 59.0046 144.571 59.0794 144.969 59.2463C146.553 59.91 149.02 59.2982 149.02 56.2993C149.02 55.5195 148.769 54.6591 148.252 54.1465C147.929 53.827 147.88 53.7302 147.443 53.5343C146.535 53.1272 145.047 53.2018 144.263 53.9884C143.816 54.4372 143.417 54.9651 143.417 55.8256H143.417Z" fill="#214284"/>
<path fill-rule="evenodd" clip-rule="evenodd" d="M103.088 56.3782C103.088 53.7481 106.166 53.7041 106.166 56.2992C106.166 58.9627 103.962 58.5739 103.447 57.7567C103.266 57.471 103.088 56.8031 103.088 56.3782ZM101.826 56.2203C101.826 60.0032 105.392 60.0637 106.78 58.5715C107.669 57.6166 107.773 55.3749 106.776 54.1895C105.446 52.6086 101.826 53.0025 101.826 56.2204V56.2203Z" fill="#214284"/>
<path fill-rule="evenodd" clip-rule="evenodd" d="M159.437 56.615C159.437 55.6145 159.543 54.4045 160.937 54.4045C162.883 54.4045 162.559 57.164 162.092 57.8492C161.585 58.5919 159.437 58.7724 159.437 56.615ZM160.858 59.4571C161.396 59.4571 161.788 59.4059 162.201 59.2218C163.761 58.5272 163.974 56.652 163.588 55.1472C163.122 53.33 160.408 52.5476 158.863 54.1461C158.344 54.6832 158.177 55.3897 158.104 56.3131C158.085 56.5627 158.211 57.2915 158.271 57.5449C158.54 58.695 159.601 59.4571 160.858 59.4571H160.858Z" fill="#214284"/>
<path fill-rule="evenodd" clip-rule="evenodd" d="M98.3532 56.4571V59.2991C99.9662 59.2991 99.6968 59.465 99.6948 58.194C99.6909 55.8059 99.4678 56.4679 100.882 54.0131L101.86 52.3074C102.035 52.0195 102.221 51.7414 102.299 51.4045H100.8L99.0634 54.8782C98.8251 54.7035 97.9521 52.9115 97.5972 52.3186C97.451 52.0743 97.2317 51.6726 97.1693 51.4046H95.512C95.6544 52.0161 98.3531 55.9955 98.3531 56.4572L98.3532 56.4571Z" fill="#214284"/>
<path fill-rule="evenodd" clip-rule="evenodd" d="M88.0146 54.1678V53.4572H86.8308V59.2992C88.4317 59.2992 88.0956 59.8249 88.0935 56.4572C88.0931 55.7956 88.0159 55.5229 88.2721 55.0569C88.6899 54.2967 90.2715 54.2127 90.4444 55.132L90.4543 58.7536C90.4494 59.3986 90.3647 59.2993 91.566 59.2993C91.7479 59.2993 91.8028 59.2444 91.8028 59.0625V56.2204C91.8028 53.6368 91.1843 53.3784 89.4351 53.3784C88.6321 53.3784 88.4565 53.8719 88.0146 54.1679V54.1678Z" fill="#214284"/>
<path fill-rule="evenodd" clip-rule="evenodd" d="M108.771 57.9571C108.771 58.7376 109.495 59.3781 110.27 59.3781C112.217 59.3781 111.543 59.2161 112.48 58.5886V59.2991H113.664V53.6939C113.664 53.357 113.361 53.4571 112.638 53.4571C112.265 53.4571 112.401 54.0702 112.401 54.7202C112.401 55.2466 112.399 55.7731 112.401 56.2994C112.403 56.845 112.406 57.2403 112.221 57.6192C111.869 58.3417 111.299 58.2728 110.744 58.2728C109.825 58.2728 110.033 57.0499 110.033 56.1412C110.033 55.6675 110.033 55.1939 110.033 54.7202C110.033 54.4803 110.038 54.2418 110.04 54.0028C110.045 53.346 110.146 53.457 108.771 53.457V57.9569V57.9571Z" fill="#214284"/>
<path fill-rule="evenodd" clip-rule="evenodd" d="M121.713 52.5888H124.081V59.0624C124.081 59.4266 124.525 59.2992 125.423 59.2992V52.5888H127.79V51.4046H121.714V52.5888H121.713Z" fill="#214284"/>
<path fill-rule="evenodd" clip-rule="evenodd" d="M151.466 54.2467V53.4572C150.651 53.4572 150.283 53.3432 150.283 53.694V59.0624C150.283 59.3993 150.585 59.2992 151.308 59.2992C151.691 59.2992 151.545 58.5545 151.545 57.7993C151.545 57.2382 151.519 56.6138 151.544 56.0609C151.631 54.1117 153.36 55.0168 153.36 54.4045C153.36 53.2916 153.455 53.3783 152.887 53.3783C151.985 53.3783 151.738 54.0645 151.466 54.2467Z" fill="#214284"/>
<path fill-rule="evenodd" clip-rule="evenodd" d="M116.426 54.3256V53.4573C115.61 53.4573 115.242 53.3433 115.242 53.6941V59.0625C115.242 59.3994 115.545 59.2993 116.268 59.2993C116.651 59.2993 116.505 58.5545 116.505 57.7993C116.505 56.6876 116.292 55.3434 117.054 54.8751C117.261 54.7482 117.403 54.7321 117.734 54.6875C118.408 54.5967 118.32 54.8013 118.32 53.6152C118.32 53.1219 117.245 53.443 116.919 53.7135C116.714 53.883 116.626 54.0954 116.426 54.3258L116.426 54.3256Z" fill="#214284"/>
<path fill-rule="evenodd" clip-rule="evenodd" d="M155.57 54.2467C155.57 53.3385 155.783 53.4572 154.386 53.4572V59.2992C155.942 59.2992 155.678 59.9038 155.648 56.2192C155.638 55.0143 156.093 54.6414 157.385 54.6414V53.3783C156.876 53.3783 156.49 53.3262 156.1 53.6716C155.887 53.8604 155.745 54.1187 155.57 54.2468V54.2467Z" fill="#214284"/>
<path fill-rule="evenodd" clip-rule="evenodd" d="M175.379 3.72069C176.448 3.72069 177.156 4.49732 177.184 5.38502C177.198 5.84573 177.003 6.24298 176.703 6.54509C175.904 7.34968 174.865 7.3168 174.137 6.46283C173.743 6.00034 173.801 5.70492 173.801 4.90482C174.033 4.95896 174.042 4.98378 174.353 4.98378C174.353 6.29788 174.244 6.29051 174.669 6.32592V4.98378H175.142V4.74699H173.959C174.082 4.21639 174.721 3.72069 175.379 3.72069H175.379ZM175.3 7.27334C175.885 7.27334 176.431 7.1666 176.814 6.73529C177.524 5.93604 177.483 4.77707 176.808 4.1071C175.111 2.42278 172.403 4.93312 174.094 6.66437C174.376 6.95344 174.764 7.27334 175.3 7.27334Z" fill="#010731"/>
<path fill-rule="evenodd" clip-rule="evenodd" d="M175.3 6.32593H175.537L175.616 5.22067C175.616 5.5149 175.697 5.66342 175.761 5.86514C175.88 6.24019 175.783 6.29391 176.168 6.32601C176.211 6.14158 176.265 5.99323 176.314 5.84006C176.409 5.54371 176.356 5.53015 176.563 5.37859V6.32593H176.8V4.747C176.407 4.75573 176.353 4.80046 176.089 5.93113L175.862 5.36893C175.785 5.13765 175.717 5.0137 175.695 4.74692H175.3V6.32584V6.32593Z" fill="#010731"/>
</svg>
