<svg width="744" height="464" viewBox="0 0 744 464" fill="none" xmlns="http://www.w3.org/2000/svg">
<g opacity="0.1">
<path d="M35.2799 185.358H4.40253V463.068H35.2799V185.358Z" fill="white"/>
<path d="M89.4386 129.597H58.5613V404.545H89.4386V129.597Z" fill="white"/>
<path d="M143.597 156.222H112.72V425.433H143.597V156.222Z" fill="white"/>
<path d="M197.758 232.032H166.88V363.715H197.758V232.032Z" fill="white"/>
<path d="M251.916 58.7263H221.039V340.884H251.916V58.7263Z" fill="white"/>
<path d="M306.077 80.5786H275.199V250.172H306.077V80.5786Z" fill="white"/>
<path d="M522.713 120.447H491.836V311.847H522.713V120.447Z" fill="white"/>
<path d="M576.874 51.3651H545.996V232.032H576.874V51.3651Z" fill="white"/>
<path d="M631.032 95.1877H600.155V463.068H631.032V95.1877Z" fill="white"/>
<path d="M685.191 58.7263H654.314V324.213H685.191V58.7263Z" fill="white"/>
<path d="M739.352 151.985H708.474V372.035H739.352V151.985Z" fill="white"/>
<path d="M723.912 114.262L743.754 140.941H704.072L723.912 114.262Z" fill="#FFBB6B"/>
<path d="M471.211 19.439L484.352 37.1089H458.069L471.211 19.439Z" fill="white"/>
<path d="M353.561 86.352L366.702 104.022H340.421L353.561 86.352Z" fill="white"/>
<path d="M185.38 132.078L198.52 149.746H172.239L185.38 132.078Z" fill="white"/>
<path d="M134.86 53.2087L148 70.8785H121.719L134.86 53.2087Z" fill="white"/>
<path d="M29.8171 123.221L42.9566 140.891H16.676L29.8171 123.221Z" fill="white"/>
<path d="M371.124 0L384.265 17.6699H357.982L371.124 0Z" fill="white"/>
<path d="M710.772 66.5488L723.912 84.2186H697.631L710.772 66.5488Z" fill="white"/>
<path d="M669.753 19.4907L689.594 46.1695H649.913L669.753 19.4907Z" fill="#FFBB6B"/>
<path d="M615.595 57.5383L635.435 84.2187H595.753L615.595 57.5383Z" fill="#FFBB6B"/>
<path d="M561.434 15.6855L581.276 42.3643H541.594L561.434 15.6855Z" fill="#FFBB6B"/>
<path d="M507.275 81.8475L527.116 108.526H487.433L507.275 81.8475Z" fill="#FFBB6B"/>
<path d="M290.637 45.3862L310.479 72.0666H270.797L290.637 45.3862Z" fill="#FFBB6B"/>
<path d="M238.557 22.1096L258.399 48.7884H218.716L238.557 22.1096Z" fill="#FFBB6B"/>
<path d="M128.159 118.717L148 145.396H108.319L128.159 118.717Z" fill="#FFBB6B"/>
<path d="M74.0007 91.1656L93.8411 117.844H54.1588L74.0007 91.1656Z" fill="#FFBB6B"/>
<path d="M19.8404 148.882L39.6823 175.561H0L19.8404 148.882Z" fill="#FFBB6B"/>
</g>
</svg>
