<svg width="60" height="60" viewBox="0 0 60 60" fill="none" xmlns="http://www.w3.org/2000/svg">
<rect opacity="0.3" y="60" width="60" height="60" rx="30" transform="rotate(-90 0 60)" fill="#214284"/>
<rect x="9.00006" y="51" width="42" height="42" rx="21" transform="rotate(-90 9.00006 51)" fill="#214284"/>
<path d="M26 30.0002C26 30.2962 26.096 30.5921 26.2877 30.8178L32.3222 37.9195C32.7061 38.3712 33.3285 38.3712 33.7122 37.9195C34.0959 37.4679 34.0959 36.7356 33.7122 36.2838L28.3725 30.0002L33.712 23.7165C34.0957 23.2647 34.0957 22.5325 33.712 22.0809C33.3283 21.629 32.7059 21.629 32.3221 22.0809L26.2875 29.1825C26.0958 29.4083 26 29.7043 26 30.0002Z" fill="white"/>
</svg>
