<svg width="71" height="52" viewBox="0 0 71 52" fill="none" xmlns="http://www.w3.org/2000/svg">
<path opacity="0.5" d="M67.3262 0C68.3911 0 69.2696 0.347737 69.9618 1.04321C70.6539 1.68519 71 2.5144 71 3.53086C71 5.1358 69.9884 6.47325 67.9651 7.54321C63.12 10.1111 59.5793 12.5988 57.3431 15.0062C55.2666 17.3066 54.2283 18.9918 54.2283 20.0617C54.2283 21.0782 55.027 21.6934 56.6243 21.9074L57.5827 21.9877L58.8605 22.1481C62.3213 22.6296 65.1166 24.2346 67.2463 26.963C69.3761 29.6379 70.4409 32.928 70.4409 36.8333C70.4409 40.7387 69.1099 44.1626 66.4477 47.1049C63.4661 50.3683 59.6059 52 54.8673 52C50.2883 52 46.4016 50.2078 43.207 46.6235C39.8526 42.9856 38.1755 38.4115 38.1755 32.9012C38.1755 28.0329 39.8526 23.0041 43.207 17.8148C46.5613 12.572 50.9273 8.18519 56.3048 4.65432C60.9902 1.55144 64.664 0 67.3262 0ZM29.1507 0C30.2156 0 31.0941 0.347737 31.7863 1.04321C32.4784 1.68519 32.8245 2.5144 32.8245 3.53086C32.8245 5.1358 31.8129 6.47325 29.7896 7.54321C24.9445 10.1111 21.4038 12.5988 19.1676 15.0062C17.0911 17.3066 16.0529 18.9918 16.0529 20.0617C16.0529 21.0782 16.8515 21.6934 18.4488 21.9074L19.4072 21.9877L20.685 22.1481C24.1459 22.6296 26.9411 24.2346 29.0709 26.963C31.2006 29.6379 32.2655 32.928 32.2655 36.8333C32.2655 40.7387 30.9344 44.1626 28.2722 47.1049C25.2906 50.3683 21.4304 52 16.6918 52C12.1129 52 8.2261 50.2078 5.0315 46.6235C1.67717 42.9856 0 38.4115 0 32.9012C0 28.0329 1.67717 23.0041 5.0315 17.8148C8.38583 12.572 12.7518 8.18519 18.1294 4.65432C22.8148 1.55144 26.4886 0 29.1507 0Z" fill="#FFBB6B"/>
</svg>
