<svg width="26" height="24" viewBox="0 0 26 24" fill="none" xmlns="http://www.w3.org/2000/svg">
<path d="M19.6456 11.346C17.4488 11.346 15.5125 12.4792 14.3829 14.1929L10.3219 12.31C10.4377 11.8744 10.5061 11.4202 10.5061 10.9486C10.5061 10.477 10.4377 10.0228 10.3219 9.58831L16.3967 6.7727C17.1614 7.73441 18.3259 8.36358 19.6456 8.36358C21.9456 8.36358 23.8167 6.48652 23.8167 4.18179C23.8167 1.87602 21.9454 0 19.6456 0C17.3456 0 15.4733 1.87706 15.4733 4.18179C15.4733 4.50042 15.5162 4.80749 15.5834 5.10527L9.53494 7.90927C8.58252 6.56403 7.01943 5.68113 5.2523 5.68113C2.35676 5.68113 0 8.04367 0 10.9486C0 13.8534 2.35676 16.216 5.25349 16.216C7.02047 16.216 8.58249 15.3342 9.53613 13.989L13.6019 15.873C13.4328 16.4443 13.3378 17.0479 13.3378 17.6736C13.3378 21.1625 16.1684 24 19.6469 24C23.1254 24 25.9549 21.1624 25.9549 17.6736C25.9549 14.1847 23.1253 11.346 19.6456 11.346Z" fill="#214284"/>
</svg>
