<svg xmlns="http://www.w3.org/2000/svg" xmlns:xlink="http://www.w3.org/1999/xlink" viewBox="0,0,256,256" width="16px" height="16px"><g fill="none" fill-rule="nonzero" stroke="none" stroke-width="1" stroke-linecap="butt" stroke-linejoin="miter" stroke-miterlimit="10" stroke-dasharray="" stroke-dashoffset="0" font-family="none" font-weight="none" font-size="none" text-anchor="none" style="mix-blend-mode: normal"><g transform="scale(6.4,6.4)"><path d="M25,2c0.551,0 1,0.449 1,1v3h-12v-3c0,-0.551 0.449,-1 1,-1h10M25,1h-10c-1.105,0 -2,0.895 -2,2v4h14v-4c0,-1.105 -0.895,-2 -2,-2z" fill="#000000"></path><path d="M1.5,15.5h37v20h-37z" fill="#ffffff"></path><path d="M38,16v19h-36v-19h36M39,15h-38v21h38v-21z" fill="#000000"></path><path d="M5,21.5c-1.93,0 -3.5,-1.57 -3.5,-3.5v-13.5h37v13.5c0,1.93 -1.57,3.5 -3.5,3.5z" fill="#ffffff"></path><path d="M38,5v13c0,1.654 -1.346,3 -3,3h-30c-1.654,0 -3,-1.346 -3,-3v-13h36M39,4h-38v14c0,2.209 1.791,4 4,4h30c2.209,0 4,-1.791 4,-4v-14z" fill="#000000"></path><path d="M20,15c-1.10457,0 -2,0.89543 -2,2c0,1.10457 0.89543,2 2,2c1.10457,0 2,-0.89543 2,-2c0,-1.10457 -0.89543,-2 -2,-2zM28,5h-3v-0.5c0,-0.828 0.672,-1.5 1.5,-1.5v0c0.828,0 1.5,0.672 1.5,1.5zM15,5h-3v-0.5c0,-0.828 0.672,-1.5 1.5,-1.5v0c0.828,0 1.5,0.672 1.5,1.5z" fill="#000000"></path></g></g></svg>