<?xml version="1.0" encoding="UTF-8"?>
<svg version="1.1" viewBox="0 0 800 800" width="1280" height="1280" xmlns="http://www.w3.org/2000/svg">
<path transform="translate(395,33)" d="m0 0h17l31 2 32 5 25 6 26 8 27 11 19 9 21 12 21 14 17 13 13 11 12 11 18 18 9 11 10 12 12 17 12 19 10 18 12 25 10 27 7 24 6 27 4 29 1 14v43l-3 30-5 27-7 27-10 29-11 24-13 25-12 19-13 18-9 11-12 14-26 26-11 9-15 12-17 12-20 12-23 12-20 9-28 10-26 7-26 5-25 3-14 1h-35l-25-2-36-6-30-8-23-8-23-10-24-12-21-13-17-12-14-11-14-12-15-14-15-16-9-11-13-17-12-18-14-24-12-25-10-26-8-26-6-27-4-29-1-11v-51l3-28 5-27 8-30 9-25 13-29 12-22 18-27 10-13 11-13 9-10 23-23 11-9 15-12 16-11 21-13 25-13 24-10 33-11 25-6 25-4 19-2zm0 81-22 1-24 3-25 6-23 8-20 9-20 11-12 8-19 14-11 10-8 7-14 14-9 11-10 12-16 24-12 21-9 19-10 27-6 22-4 21-2 17-1 22 1 23 4 27 7 26 13 33 11 23 14 22 12 16 12 14 22 22 11 9 13 10 15 10 17 10 16 8 18 8 30 10 26 6 23 3 16 1h15l25-2 22-4 19-5 30-11 24-11 22-13 18-13 13-11 10-9 17-17 9-11 13-17 11-17 10-18 10-21 10-28 6-24 4-27 1-15v-19l-2-23-4-22-7-28-8-23-11-24-9-16-14-21-11-14-12-14-18-18-11-9-15-12-17-11-16-9-16-8-25-10-25-7-21-4-20-2z"/>
<path transform="translate(573,246)" d="m0 0h2l-2 6-106 212-19 10-198 99h-2l2-6 106-212 19-10zm-213 147-9 16-59 118v2l6-2 130-65-2-4-65-65z"/>
</svg>
