<svg width="24" height="25" viewBox="0 0 24 25" fill="none" xmlns="http://www.w3.org/2000/svg">
<path d="M11.9957 0.724609C5.38239 0.724609 0 6.10793 0 12.7118C0 19.3156 5.38239 24.6904 11.9957 24.6904C18.609 24.6904 23.9892 19.3156 23.9892 12.7118C23.9892 6.10793 18.609 0.724609 11.9957 0.724609ZM11.9957 2.94595C17.4068 2.94595 21.7647 7.3084 21.7647 12.7118C21.7647 18.1152 17.4068 22.467 11.9957 22.467C6.58459 22.467 2.21578 18.1152 2.21578 12.7118C2.21578 7.3084 6.58459 2.94595 11.9957 2.94595ZM17.3158 7.2107C17.1356 7.20624 16.957 7.24549 16.7954 7.32522C16.6338 7.40496 16.4941 7.52278 16.3882 7.66841L10.4837 15.5319L6.93629 11.9895C6.8335 11.8832 6.71051 11.7984 6.57452 11.7401C6.43852 11.6819 6.29225 11.6514 6.14428 11.6503C5.9963 11.6492 5.8496 11.6776 5.71275 11.7338C5.57591 11.7901 5.45167 11.873 5.34732 11.9777C5.24298 12.0825 5.16062 12.207 5.10506 12.344C5.04951 12.481 5.02188 12.6276 5.02379 12.7753C5.0257 12.9231 5.05712 13.069 5.1162 13.2045C5.17528 13.34 5.26084 13.4623 5.36786 13.5643L9.81899 18.007C9.93183 18.1191 10.0675 18.2057 10.2167 18.261C10.366 18.3163 10.5253 18.339 10.6841 18.3275C10.8429 18.316 10.9973 18.2706 11.137 18.1944C11.2767 18.1182 11.3984 18.0129 11.4939 17.8857L18.1695 9.00468C18.2965 8.84218 18.3757 8.64758 18.3983 8.44268C18.4209 8.23778 18.3859 8.03074 18.2973 7.84456C18.2087 7.65838 18.0699 7.50043 17.8966 7.3885C17.7233 7.27658 17.5221 7.21499 17.3158 7.2107Z" fill="#214284"/>
</svg>
