<svg width="28" height="28" viewBox="0 0 28 28" fill="none" xmlns="http://www.w3.org/2000/svg">
<path d="M26.9427 14C26.9427 13.605 26.9222 13.2151 26.8876 12.8296H28C27.4364 6.00324 21.9968 0.563604 15.1704 0V1.11243C14.7845 1.07784 14.3946 1.0573 14 1.0573C13.6054 1.0573 13.2151 1.07784 12.8295 1.11243V0C6.00324 0.563604 0.563604 6.00324 0 12.8296H1.11243C1.07784 13.2155 1.05729 13.6054 1.05729 14C1.05729 14.395 1.07784 14.7849 1.11243 15.1705H0C0.563604 21.9968 6.00324 27.4364 12.8295 28V26.8876C13.2155 26.9222 13.6054 26.9427 14 26.9427C14.3946 26.9427 14.7849 26.9222 15.1704 26.8876V28C21.9968 27.4364 27.4364 21.9968 28 15.1705H26.8876C26.9222 14.7849 26.9427 14.395 26.9427 14Z" fill="#214284"/>
<path d="M13.9999 26.0837C7.33753 26.0837 1.91699 20.6636 1.91699 14.0009C1.91699 7.33851 7.33717 1.91797 13.9999 1.91797C20.6622 1.91797 26.0828 7.33815 26.0828 14.0009C26.0828 20.6632 20.6626 26.0837 13.9999 26.0837ZM13.9999 2.15184C7.46618 2.15184 2.15086 7.46716 2.15086 14.0009C2.15086 20.5345 7.46618 25.8499 13.9999 25.8499C20.5336 25.8499 25.8489 20.5345 25.8489 14.0009C25.8489 7.46752 20.5336 2.15184 13.9999 2.15184Z" fill="white"/>
<path d="M17.7748 9.53602L16.4065 9.53674C15.3337 9.53674 15.1258 10.0466 15.1258 10.7948V12.4445H17.6847L17.684 15.0286H15.1261V21.6596H12.4569V15.0286H10.2256V12.4445H12.4569V10.5389C12.4569 8.32737 13.8079 7.12305 15.7809 7.12305L17.7748 7.12593V9.53602Z" fill="white"/>
</svg>
