<svg width="24" height="24" viewBox="0 0 24 24" fill="none" xmlns="http://www.w3.org/2000/svg">
<path d="M9.6 14.4H21.6C22.2365 14.4 22.847 14.1471 23.2971 13.6971C23.7471 13.247 24 12.6365 24 12C24 11.3635 23.7471 10.753 23.2971 10.3029C22.847 9.85286 22.2365 9.6 21.6 9.6H9.6C8.96348 9.6 8.35303 9.85286 7.90294 10.3029C7.45286 10.753 7.2 11.3635 7.2 12C7.2 12.6365 7.45286 13.247 7.90294 13.6971C8.35303 14.1471 8.96348 14.4 9.6 14.4ZM0 2.4C0 1.76348 0.252857 1.15303 0.702944 0.702944C1.15303 0.252856 1.76348 0 2.4 0H21.6C22.2365 0 22.847 0.252856 23.2971 0.702944C23.7471 1.15303 24 1.76348 24 2.4C24 3.03652 23.7471 3.64697 23.2971 4.09706C22.847 4.54714 22.2365 4.8 21.6 4.8H2.4C1.76348 4.8 1.15303 4.54714 0.702944 4.09706C0.252857 3.64697 0 3.03652 0 2.4ZM14.4 21.6C14.4 20.9635 14.6529 20.353 15.1029 19.9029C15.553 19.4529 16.1635 19.2 16.8 19.2H21.6C22.2365 19.2 22.847 19.4529 23.2971 19.9029C23.7471 20.353 24 20.9635 24 21.6C24 22.2365 23.7471 22.847 23.2971 23.2971C22.847 23.7471 22.2365 24 21.6 24H16.8C16.1635 24 15.553 23.7471 15.1029 23.2971C14.6529 22.847 14.4 22.2365 14.4 21.6Z" fill="#214284"/>
</svg>
