<svg width="25" height="24" viewBox="0 0 25 24" fill="none" xmlns="http://www.w3.org/2000/svg">
<path fill-rule="evenodd" clip-rule="evenodd" d="M12.25 0C5.62258 0 0.25 5.37258 0.25 12C0.25 18.6275 5.62258 24 12.25 24C18.8775 24 24.25 18.6275 24.25 12C24.25 5.37258 18.8775 0 12.25 0ZM9.68439 8.25069C9.35744 7.92374 8.82735 7.92374 8.5004 8.25069C8.17345 8.57765 8.17345 9.10773 8.5004 9.43468L11.0657 12L8.5004 14.5653C8.17345 14.8923 8.17345 15.4224 8.5004 15.7494C8.82735 16.0763 9.35744 16.0763 9.68439 15.7494L12.2497 13.184L14.815 15.7494C15.1419 16.0763 15.6721 16.0763 15.999 15.7494C16.326 15.4224 16.326 14.8923 15.999 14.5653L13.4337 12L15.999 9.43468C16.326 9.10773 16.326 8.57765 15.999 8.25069C15.6721 7.92374 15.1419 7.92374 14.815 8.25069L12.2497 10.816L9.68439 8.25069Z" fill="#FFBB6B"/>
</svg>
