<svg width="28" height="28" viewBox="0 0 28 28" fill="none" xmlns="http://www.w3.org/2000/svg">
<path d="M26.9427 14C26.9427 13.605 26.9222 13.2151 26.8876 12.8295H28C27.4364 6.00324 21.9968 0.563604 15.1705 0V1.11243C14.7845 1.07783 14.3946 1.05729 14 1.05729C13.605 1.05729 13.2151 1.07783 12.8296 1.11243V0C6.00324 0.563604 0.563604 6.00324 0 12.8295H1.11243C1.07784 13.2155 1.0573 13.6054 1.0573 14C1.0573 14.395 1.07784 14.7849 1.11243 15.1704H0C0.563604 21.9968 6.00324 27.4364 12.8296 28V26.8876C13.2155 26.9222 13.6054 26.9427 14 26.9427C14.395 26.9427 14.7849 26.9222 15.1705 26.8876V28C21.9968 27.4364 27.4364 21.9968 28 15.1704H26.8876C26.9222 14.7849 26.9427 14.395 26.9427 14Z" fill="#214284"/>
<path d="M13.9999 26.0828C7.33753 26.0828 1.91699 20.6622 1.91699 13.9999C1.91699 7.33753 7.33753 1.91699 13.9999 1.91699C20.6622 1.91699 26.0828 7.33753 26.0828 13.9999C26.0828 20.6622 20.6622 26.0828 13.9999 26.0828ZM13.9999 2.15123C7.46618 2.15123 2.15087 7.46654 2.15087 14.0002C2.15087 20.5339 7.46618 25.8492 13.9999 25.8492C20.5336 25.8492 25.8489 20.5339 25.8489 14.0002C25.8489 7.46654 20.5332 2.15123 13.9999 2.15123Z" fill="white"/>
<path fill-rule="evenodd" clip-rule="evenodd" d="M18.487 14.0007C18.487 11.5924 16.5356 9.64285 14.1299 9.64285C11.7226 9.64285 9.7731 11.5924 9.7731 14.0007C9.7731 16.4065 11.7226 18.3556 14.1299 18.3556C16.5356 18.356 18.487 16.4068 18.487 14.0007ZM18.4037 9.05042C18.0153 9.05042 17.7025 9.36682 17.7025 9.7524C17.7025 10.1409 18.0153 10.4529 18.4037 10.4529C18.7893 10.4529 19.1057 10.1409 19.1057 9.7524C19.1057 9.36682 18.7893 9.05042 18.4037 9.05042ZM10.5691 8.04393H17.6902C19.0099 8.04393 20.0859 9.12249 20.0859 10.4378V17.5618C20.0859 18.8803 19.0099 19.9556 17.6902 19.9556H10.5691C9.25129 19.9556 8.17382 18.8803 8.17382 17.5618V10.4378C8.17382 9.12249 9.25165 8.04393 10.5691 8.04393ZM17.6906 7.24609H10.5695C8.81417 7.24609 7.37598 8.68321 7.37598 10.4378V17.5618C7.37598 19.3196 8.81417 20.7553 10.5695 20.7553H17.6906C19.4491 20.7553 20.8841 19.3196 20.8841 17.5618V10.4378C20.8841 8.68321 19.4491 7.24609 17.6906 7.24609ZM10.6787 14.0007C10.6787 12.0937 12.2246 10.547 14.1299 10.547C16.0372 10.547 17.581 12.0937 17.581 14.0007C17.581 15.9052 16.0369 17.4519 14.1299 17.4519C12.2246 17.4522 10.6787 15.9056 10.6787 14.0007Z" fill="white"/>
</svg>
