<svg width="114" height="83" viewBox="0 0 114 83" fill="none" xmlns="http://www.w3.org/2000/svg">
<path opacity="0.8" d="M107.977 0C109.685 0 111.094 0.555041 112.204 1.66512C113.314 2.68981 113.869 4.01337 113.869 5.6358C113.869 8.19753 112.246 10.3323 109.002 12.0401C101.231 16.1389 95.5525 20.1096 91.9661 23.9522C88.6358 27.624 86.9707 30.3138 86.9707 32.0216C86.9707 33.644 88.2516 34.626 90.8133 34.9676L92.3504 35.0957L94.3997 35.3519C99.9502 36.1204 104.433 38.6821 107.849 43.037C111.264 47.3066 112.972 52.5581 112.972 58.7917C112.972 65.0252 110.838 70.4902 106.568 75.1867C101.786 80.3956 95.5952 83 87.9954 83C80.6518 83 74.4183 80.1394 69.2948 74.4182C63.9152 68.6116 61.2253 61.3107 61.2253 52.5154C61.2253 44.7449 63.9152 36.7181 69.2948 28.4352C74.6744 20.0669 81.6765 13.0648 90.301 7.42901C97.8154 2.47634 103.707 0 107.977 0ZM46.7516 0C48.4594 0 49.8683 0.555041 50.9784 1.66512C52.0885 2.68981 52.6435 4.01337 52.6435 5.6358C52.6435 8.19753 51.0211 10.3323 47.7763 12.0401C40.0057 16.1389 34.3272 20.1096 30.7408 23.9522C27.4105 27.624 25.7454 30.3138 25.7454 32.0216C25.7454 33.644 27.0262 34.626 29.588 34.9676L31.125 35.0957L33.1744 35.3519C38.7248 36.1204 43.2078 38.6821 46.6235 43.037C50.0391 47.3066 51.7469 52.5581 51.7469 58.7917C51.7469 65.0252 49.6122 70.4902 45.3426 75.1867C40.5607 80.3956 34.3699 83 26.7701 83C19.4265 83 13.1929 80.1394 8.06945 74.4182C2.68982 68.6116 0 61.3107 0 52.5154C0 44.7449 2.68982 36.7181 8.06945 28.4352C13.4491 20.0669 20.4511 13.0648 29.0756 7.42901C36.59 2.47634 42.482 0 46.7516 0Z" fill="#FDF3DA"/>
</svg>
