<svg width="60" height="60" viewBox="0 0 60 60" fill="none" xmlns="http://www.w3.org/2000/svg">
<rect opacity="0.3" x="60" width="60" height="60" rx="30" transform="rotate(90 60 0)" fill="#214284"/>
<rect x="50.9999" y="9" width="42" height="42" rx="21" transform="rotate(90 50.9999 9)" fill="#214284"/>
<path d="M34 29.9998C34 29.7038 33.904 29.4079 33.7123 29.1822L27.6778 22.0805C27.2939 21.6288 26.6715 21.6288 26.2878 22.0805C25.9041 22.5321 25.9041 23.2644 26.2878 23.7162L31.6275 29.9998L26.288 36.2835C25.9043 36.7353 25.9043 37.4675 26.288 37.9191C26.6717 38.371 27.2941 38.371 27.6779 37.9191L33.7125 30.8175C33.9042 30.5917 34 30.2957 34 29.9998Z" fill="white"/>
</svg>
