<svg width="442" height="95" viewBox="0 0 442 95" fill="none" xmlns="http://www.w3.org/2000/svg">
<path d="M119.774 82.718C119.774 81.494 120.05 80.396 120.602 79.424C121.154 78.44 121.904 77.672 122.852 77.12C123.812 76.568 124.874 76.292 126.038 76.292C127.406 76.292 128.6 76.622 129.62 77.282C130.64 77.942 131.384 78.878 131.852 80.09H129.89C129.542 79.334 129.038 78.752 128.378 78.344C127.73 77.936 126.95 77.732 126.038 77.732C125.162 77.732 124.376 77.936 123.68 78.344C122.984 78.752 122.438 79.334 122.042 80.09C121.646 80.834 121.448 81.71 121.448 82.718C121.448 83.714 121.646 84.59 122.042 85.346C122.438 86.09 122.984 86.666 123.68 87.074C124.376 87.482 125.162 87.686 126.038 87.686C126.95 87.686 127.73 87.488 128.378 87.092C129.038 86.684 129.542 86.102 129.89 85.346H131.852C131.384 86.546 130.64 87.476 129.62 88.136C128.6 88.784 127.406 89.108 126.038 89.108C124.874 89.108 123.812 88.838 122.852 88.298C121.904 87.746 121.154 86.984 120.602 86.012C120.05 85.04 119.774 83.942 119.774 82.718ZM135.928 77.786V81.98H140.5V83.33H135.928V87.65H141.04V89H134.29V76.436H141.04V77.786H135.928ZM149.207 89.126C148.043 89.126 146.981 88.856 146.021 88.316C145.061 87.764 144.299 87.002 143.735 86.03C143.183 85.046 142.907 83.942 142.907 82.718C142.907 81.494 143.183 80.396 143.735 79.424C144.299 78.44 145.061 77.678 146.021 77.138C146.981 76.586 148.043 76.31 149.207 76.31C150.383 76.31 151.451 76.586 152.411 77.138C153.371 77.678 154.127 78.434 154.679 79.406C155.231 80.378 155.507 81.482 155.507 82.718C155.507 83.954 155.231 85.058 154.679 86.03C154.127 87.002 153.371 87.764 152.411 88.316C151.451 88.856 150.383 89.126 149.207 89.126ZM149.207 87.704C150.083 87.704 150.869 87.5 151.565 87.092C152.273 86.684 152.825 86.102 153.221 85.346C153.629 84.59 153.833 83.714 153.833 82.718C153.833 81.71 153.629 80.834 153.221 80.09C152.825 79.334 152.279 78.752 151.583 78.344C150.887 77.936 150.095 77.732 149.207 77.732C148.319 77.732 147.527 77.936 146.831 78.344C146.135 78.752 145.583 79.334 145.175 80.09C144.779 80.834 144.581 81.71 144.581 82.718C144.581 83.714 144.779 84.59 145.175 85.346C145.583 86.102 146.135 86.684 146.831 87.092C147.539 87.5 148.331 87.704 149.207 87.704ZM161.856 84.032C161.856 83.024 162.06 82.142 162.468 81.386C162.876 80.618 163.434 80.024 164.142 79.604C164.862 79.184 165.66 78.974 166.536 78.974C167.4 78.974 168.15 79.16 168.786 79.532C169.422 79.904 169.896 80.372 170.208 80.936V79.136H171.864V89H170.208V87.164C169.884 87.74 169.398 88.22 168.75 88.604C168.114 88.976 167.37 89.162 166.518 89.162C165.642 89.162 164.85 88.946 164.142 88.514C163.434 88.082 162.876 87.476 162.468 86.696C162.06 85.916 161.856 85.028 161.856 84.032ZM170.208 84.05C170.208 83.306 170.058 82.658 169.758 82.106C169.458 81.554 169.05 81.134 168.534 80.846C168.03 80.546 167.472 80.396 166.86 80.396C166.248 80.396 165.69 80.54 165.186 80.828C164.682 81.116 164.28 81.536 163.98 82.088C163.68 82.64 163.53 83.288 163.53 84.032C163.53 84.788 163.68 85.448 163.98 86.012C164.28 86.564 164.682 86.99 165.186 87.29C165.69 87.578 166.248 87.722 166.86 87.722C167.472 87.722 168.03 87.578 168.534 87.29C169.05 86.99 169.458 86.564 169.758 86.012C170.058 85.448 170.208 84.794 170.208 84.05ZM179.438 78.956C180.638 78.956 181.61 79.322 182.354 80.054C183.098 80.774 183.47 81.818 183.47 83.186V89H181.85V83.42C181.85 82.436 181.604 81.686 181.112 81.17C180.62 80.642 179.948 80.378 179.096 80.378C178.232 80.378 177.542 80.648 177.026 81.188C176.522 81.728 176.27 82.514 176.27 83.546V89H174.632V79.136H176.27V80.54C176.594 80.036 177.032 79.646 177.584 79.37C178.148 79.094 178.766 78.956 179.438 78.956ZM185.534 84.032C185.534 83.024 185.738 82.142 186.146 81.386C186.554 80.618 187.112 80.024 187.82 79.604C188.54 79.184 189.344 78.974 190.232 78.974C191 78.974 191.714 79.154 192.374 79.514C193.034 79.862 193.538 80.324 193.886 80.9V75.68H195.542V89H193.886V87.146C193.562 87.734 193.082 88.22 192.446 88.604C191.81 88.976 191.066 89.162 190.214 89.162C189.338 89.162 188.54 88.946 187.82 88.514C187.112 88.082 186.554 87.476 186.146 86.696C185.738 85.916 185.534 85.028 185.534 84.032ZM193.886 84.05C193.886 83.306 193.736 82.658 193.436 82.106C193.136 81.554 192.728 81.134 192.212 80.846C191.708 80.546 191.15 80.396 190.538 80.396C189.926 80.396 189.368 80.54 188.864 80.828C188.36 81.116 187.958 81.536 187.658 82.088C187.358 82.64 187.208 83.288 187.208 84.032C187.208 84.788 187.358 85.448 187.658 86.012C187.958 86.564 188.36 86.99 188.864 87.29C189.368 87.578 189.926 87.722 190.538 87.722C191.15 87.722 191.708 87.578 192.212 87.29C192.728 86.99 193.136 86.564 193.436 86.012C193.736 85.448 193.886 84.794 193.886 84.05ZM215.835 76.544V89H214.197V79.712L210.057 89H208.905L204.747 79.694V89H203.109V76.544H204.873L209.481 86.84L214.089 76.544H215.835ZM227.613 83.69C227.613 84.002 227.595 84.332 227.559 84.68H219.675C219.735 85.652 220.065 86.414 220.665 86.966C221.277 87.506 222.015 87.776 222.879 87.776C223.587 87.776 224.175 87.614 224.643 87.29C225.123 86.954 225.459 86.51 225.651 85.958H227.415C227.151 86.906 226.623 87.68 225.831 88.28C225.039 88.868 224.055 89.162 222.879 89.162C221.943 89.162 221.103 88.952 220.359 88.532C219.627 88.112 219.051 87.518 218.631 86.75C218.211 85.97 218.001 85.07 218.001 84.05C218.001 83.03 218.205 82.136 218.613 81.368C219.021 80.6 219.591 80.012 220.323 79.604C221.067 79.184 221.919 78.974 222.879 78.974C223.815 78.974 224.643 79.178 225.363 79.586C226.083 79.994 226.635 80.558 227.019 81.278C227.415 81.986 227.613 82.79 227.613 83.69ZM225.921 83.348C225.921 82.724 225.783 82.19 225.507 81.746C225.231 81.29 224.853 80.948 224.373 80.72C223.905 80.48 223.383 80.36 222.807 80.36C221.979 80.36 221.271 80.624 220.683 81.152C220.107 81.68 219.777 82.412 219.693 83.348H225.921ZM234.581 78.956C235.781 78.956 236.753 79.322 237.497 80.054C238.241 80.774 238.613 81.818 238.613 83.186V89H236.993V83.42C236.993 82.436 236.747 81.686 236.255 81.17C235.763 80.642 235.091 80.378 234.239 80.378C233.375 80.378 232.685 80.648 232.169 81.188C231.665 81.728 231.413 82.514 231.413 83.546V89H229.775V79.136H231.413V80.54C231.737 80.036 232.175 79.646 232.727 79.37C233.291 79.094 233.909 78.956 234.581 78.956ZM243.286 80.486V86.3C243.286 86.78 243.388 87.122 243.592 87.326C243.796 87.518 244.15 87.614 244.654 87.614H245.86V89H244.384C243.472 89 242.788 88.79 242.332 88.37C241.876 87.95 241.648 87.26 241.648 86.3V80.486H240.37V79.136H241.648V76.652H243.286V79.136H245.86V80.486H243.286ZM252.147 89.162C251.223 89.162 250.383 88.952 249.627 88.532C248.883 88.112 248.295 87.518 247.863 86.75C247.443 85.97 247.233 85.07 247.233 84.05C247.233 83.042 247.449 82.154 247.881 81.386C248.325 80.606 248.925 80.012 249.681 79.604C250.437 79.184 251.283 78.974 252.219 78.974C253.155 78.974 254.001 79.184 254.757 79.604C255.513 80.012 256.107 80.6 256.539 81.368C256.983 82.136 257.205 83.03 257.205 84.05C257.205 85.07 256.977 85.97 256.521 86.75C256.077 87.518 255.471 88.112 254.703 88.532C253.935 88.952 253.083 89.162 252.147 89.162ZM252.147 87.722C252.735 87.722 253.287 87.584 253.803 87.308C254.319 87.032 254.733 86.618 255.045 86.066C255.369 85.514 255.531 84.842 255.531 84.05C255.531 83.258 255.375 82.586 255.063 82.034C254.751 81.482 254.343 81.074 253.839 80.81C253.335 80.534 252.789 80.396 252.201 80.396C251.601 80.396 251.049 80.534 250.545 80.81C250.053 81.074 249.657 81.482 249.357 82.034C249.057 82.586 248.907 83.258 248.907 84.05C248.907 84.854 249.051 85.532 249.339 86.084C249.639 86.636 250.035 87.05 250.527 87.326C251.019 87.59 251.559 87.722 252.147 87.722ZM260.997 80.738C261.285 80.174 261.693 79.736 262.221 79.424C262.761 79.112 263.415 78.956 264.183 78.956V80.648H263.751C261.915 80.648 260.997 81.644 260.997 83.636V89H259.359V79.136H260.997V80.738ZM270.26 84.032C270.26 83.024 270.464 82.142 270.872 81.386C271.28 80.618 271.838 80.024 272.546 79.604C273.266 79.184 274.064 78.974 274.94 78.974C275.804 78.974 276.554 79.16 277.19 79.532C277.826 79.904 278.3 80.372 278.612 80.936V79.136H280.268V89H278.612V87.164C278.288 87.74 277.802 88.22 277.154 88.604C276.518 88.976 275.774 89.162 274.922 89.162C274.046 89.162 273.254 88.946 272.546 88.514C271.838 88.082 271.28 87.476 270.872 86.696C270.464 85.916 270.26 85.028 270.26 84.032ZM278.612 84.05C278.612 83.306 278.462 82.658 278.162 82.106C277.862 81.554 277.454 81.134 276.938 80.846C276.434 80.546 275.876 80.396 275.264 80.396C274.652 80.396 274.094 80.54 273.59 80.828C273.086 81.116 272.684 81.536 272.384 82.088C272.084 82.64 271.934 83.288 271.934 84.032C271.934 84.788 272.084 85.448 272.384 86.012C272.684 86.564 273.086 86.99 273.59 87.29C274.094 87.578 274.652 87.722 275.264 87.722C275.876 87.722 276.434 87.578 276.938 87.29C277.454 86.99 277.862 86.564 278.162 86.012C278.462 85.448 278.612 84.794 278.612 84.05ZM285.034 80.486V86.3C285.034 86.78 285.136 87.122 285.34 87.326C285.544 87.518 285.898 87.614 286.402 87.614H287.608V89H286.132C285.22 89 284.536 88.79 284.08 88.37C283.624 87.95 283.396 87.26 283.396 86.3V80.486H282.118V79.136H283.396V76.652H285.034V79.136H287.608V80.486H285.034ZM302.114 76.454V77.786H298.694V89H297.056V77.786H293.618V76.454H302.114ZM311.222 76.454V77.786H305.768V82.016H310.196V83.348H305.768V89H304.13V76.454H311.222ZM317.178 89.126C316.35 89.126 315.606 88.982 314.946 88.694C314.298 88.394 313.788 87.986 313.416 87.47C313.044 86.942 312.852 86.336 312.84 85.652H314.586C314.646 86.24 314.886 86.738 315.306 87.146C315.738 87.542 316.362 87.74 317.178 87.74C317.958 87.74 318.57 87.548 319.014 87.164C319.47 86.768 319.698 86.264 319.698 85.652C319.698 85.172 319.566 84.782 319.302 84.482C319.038 84.182 318.708 83.954 318.312 83.798C317.916 83.642 317.382 83.474 316.71 83.294C315.882 83.078 315.216 82.862 314.712 82.646C314.22 82.43 313.794 82.094 313.434 81.638C313.086 81.17 312.912 80.546 312.912 79.766C312.912 79.082 313.086 78.476 313.434 77.948C313.782 77.42 314.268 77.012 314.892 76.724C315.528 76.436 316.254 76.292 317.07 76.292C318.246 76.292 319.206 76.586 319.95 77.174C320.706 77.762 321.132 78.542 321.228 79.514H319.428C319.368 79.034 319.116 78.614 318.672 78.254C318.228 77.882 317.64 77.696 316.908 77.696C316.224 77.696 315.666 77.876 315.234 78.236C314.802 78.584 314.586 79.076 314.586 79.712C314.586 80.168 314.712 80.54 314.964 80.828C315.228 81.116 315.546 81.338 315.918 81.494C316.302 81.638 316.836 81.806 317.52 81.998C318.348 82.226 319.014 82.454 319.518 82.682C320.022 82.898 320.454 83.24 320.814 83.708C321.174 84.164 321.354 84.788 321.354 85.58C321.354 86.192 321.192 86.768 320.868 87.308C320.544 87.848 320.064 88.286 319.428 88.622C318.792 88.958 318.042 89.126 317.178 89.126Z" fill="white"/>
<path d="M146.936 48.48L131.576 28.848C131.16 28.304 130.728 27.728 130.28 27.12C129.832 26.512 129.384 25.888 128.936 25.248H128.888L128.984 40.128C128.984 40.992 128.968 41.824 128.936 42.624C128.904 43.424 128.856 44.032 128.792 44.448C129.304 44.384 129.944 44.352 130.712 44.352C131.512 44.32 132.072 44.304 132.392 44.304V48H121.448V44.832C122.184 44.8 122.792 44.704 123.272 44.544C123.784 44.384 124.168 44.016 124.424 43.44C124.712 42.864 124.856 41.936 124.856 40.656L124.76 22.272C124.76 21.408 124.776 20.576 124.808 19.776C124.84 18.976 124.888 18.368 124.952 17.952C124.44 17.984 123.784 18.016 122.984 18.048C122.216 18.048 121.656 18.064 121.304 18.096V14.4H128.84L143.528 32.928C144.328 33.952 144.984 34.832 145.496 35.568C146.04 36.304 146.504 36.944 146.888 37.488H146.936V22.272C146.936 21.408 146.952 20.576 146.984 19.776C147.016 18.976 147.048 18.368 147.08 17.952C146.568 17.984 145.928 18.016 145.16 18.048C144.392 18.048 143.832 18.064 143.48 18.096V14.4H154.424V17.568C153.72 17.6 153.112 17.696 152.6 17.856C152.088 18.016 151.688 18.384 151.4 18.96C151.144 19.504 151.016 20.432 151.016 21.744V48.48H146.936ZM157.062 44.88C157.958 44.88 158.598 44.704 158.982 44.352C159.366 44 159.606 43.504 159.702 42.864C159.83 42.192 159.894 41.44 159.894 40.608V32.64C159.894 32.064 159.91 31.408 159.942 30.672C159.974 29.904 160.022 29.168 160.086 28.464C159.574 28.496 158.966 28.528 158.262 28.56C157.59 28.56 157.078 28.576 156.726 28.608V24.96C158.198 24.96 159.446 24.88 160.47 24.72C161.494 24.56 162.294 24.368 162.87 24.144C163.478 23.92 163.894 23.712 164.118 23.52H166.71V40.272C166.71 40.72 166.694 41.36 166.662 42.192C166.63 42.992 166.582 43.76 166.518 44.496C167.03 44.432 167.59 44.4 168.198 44.4C168.838 44.368 169.318 44.352 169.638 44.352V48H157.062V44.88ZM163.062 19.728C161.974 19.728 161.078 19.344 160.374 18.576C159.67 17.808 159.318 16.88 159.318 15.792C159.318 14.704 159.686 13.776 160.422 13.008C161.158 12.24 162.022 11.856 163.014 11.856C164.038 11.856 164.886 12.24 165.558 13.008C166.262 13.776 166.614 14.704 166.614 15.792C166.614 16.88 166.294 17.808 165.654 18.576C165.014 19.344 164.15 19.728 163.062 19.728ZM183.805 48.768C182.429 48.768 181.085 48.592 179.773 48.24C178.461 47.888 177.437 47.44 176.701 46.896L176.797 48.336H173.149L172.957 40.08H176.077C176.173 41.04 176.557 41.92 177.229 42.72C177.901 43.52 178.781 44.16 179.869 44.64C180.957 45.088 182.173 45.312 183.517 45.312C184.061 45.312 184.573 45.232 185.053 45.072C185.565 44.912 185.981 44.656 186.301 44.304C186.653 43.92 186.829 43.456 186.829 42.912C186.829 42.304 186.605 41.808 186.157 41.424C185.741 41.04 185.117 40.672 184.285 40.32C183.485 39.968 182.477 39.568 181.261 39.12C180.269 38.736 179.261 38.336 178.237 37.92C177.245 37.504 176.317 37.008 175.453 36.432C174.621 35.824 173.949 35.088 173.437 34.224C172.925 33.328 172.669 32.24 172.669 30.96C172.669 30.032 172.845 29.12 173.197 28.224C173.549 27.296 174.093 26.464 174.829 25.728C175.565 24.96 176.493 24.352 177.613 23.904C178.765 23.456 180.125 23.232 181.693 23.232C182.557 23.232 183.533 23.376 184.621 23.664C185.741 23.92 186.685 24.32 187.453 24.864V23.472H191.101V31.968H187.981C187.789 30.848 187.389 29.888 186.781 29.088C186.205 28.288 185.453 27.68 184.525 27.264C183.597 26.816 182.557 26.592 181.405 26.592C180.605 26.592 179.869 26.784 179.197 27.168C178.557 27.552 178.237 28.208 178.237 29.136C178.237 29.872 178.493 30.464 179.005 30.912C179.517 31.328 180.221 31.68 181.117 31.968C182.013 32.256 183.005 32.592 184.093 32.976C185.725 33.52 187.165 34.16 188.413 34.896C189.693 35.632 190.701 36.528 191.437 37.584C192.173 38.608 192.541 39.872 192.541 41.376C192.541 43.04 192.125 44.416 191.293 45.504C190.461 46.592 189.373 47.408 188.029 47.952C186.717 48.496 185.309 48.768 183.805 48.768ZM210.366 44.88C211.262 44.88 211.902 44.704 212.286 44.352C212.702 44 212.958 43.504 213.054 42.864C213.182 42.192 213.246 41.44 213.246 40.608L213.198 33.792C213.166 31.712 212.846 30.176 212.238 29.184C211.63 28.16 210.654 27.648 209.31 27.648C208.51 27.648 207.71 27.824 206.91 28.176C206.142 28.528 205.486 28.944 204.942 29.424V40.272C204.942 40.72 204.926 41.36 204.894 42.192C204.862 42.992 204.814 43.76 204.75 44.496C205.294 44.432 205.87 44.4 206.478 44.4C207.086 44.368 207.55 44.352 207.87 44.352V48H195.294V44.88C196.19 44.88 196.83 44.704 197.214 44.352C197.63 44 197.886 43.504 197.982 42.864C198.078 42.192 198.126 41.44 198.126 40.608V20.88C198.126 20.304 198.142 19.648 198.174 18.912C198.206 18.144 198.254 17.408 198.318 16.704C197.806 16.736 197.198 16.768 196.494 16.8C195.822 16.8 195.31 16.816 194.958 16.848V13.2C196.462 13.2 197.71 13.12 198.702 12.96C199.726 12.8 200.526 12.608 201.102 12.384C201.71 12.16 202.126 11.952 202.35 11.76H204.942V25.92C205.582 25.408 206.318 24.96 207.15 24.576C207.982 24.16 208.83 23.84 209.694 23.616C210.558 23.36 211.31 23.232 211.95 23.232C214.894 23.232 216.974 24.08 218.19 25.776C219.438 27.44 220.062 30.128 220.062 33.84V40.272C220.062 40.72 220.046 41.36 220.014 42.192C219.982 42.992 219.934 43.76 219.87 44.496C220.382 44.432 220.942 44.4 221.55 44.4C222.158 44.368 222.638 44.352 222.99 44.352V48H210.366V44.88ZM239.218 48C239.154 47.552 239.106 47.184 239.074 46.896C239.074 46.576 239.058 46.208 239.026 45.792C237.938 46.88 236.786 47.648 235.57 48.096C234.354 48.544 233.122 48.768 231.874 48.768C229.826 48.768 228.226 48.16 227.074 46.944C225.922 45.728 225.346 44.208 225.346 42.384C225.346 40.848 225.73 39.536 226.498 38.448C227.298 37.36 228.338 36.48 229.618 35.808C230.93 35.104 232.37 34.576 233.938 34.224C235.538 33.84 237.138 33.616 238.738 33.552V31.056C238.738 30.224 238.626 29.472 238.402 28.8C238.21 28.128 237.858 27.6 237.346 27.216C236.866 26.832 236.178 26.656 235.282 26.688C234.674 26.72 234.082 26.848 233.506 27.072C232.93 27.296 232.434 27.616 232.018 28.032C232.274 28.32 232.434 28.64 232.498 28.992C232.562 29.312 232.594 29.6 232.594 29.856C232.594 30.496 232.338 31.168 231.826 31.872C231.314 32.544 230.498 32.864 229.378 32.832C228.418 32.8 227.682 32.464 227.17 31.824C226.658 31.184 226.402 30.432 226.402 29.568C226.402 28.288 226.85 27.184 227.746 26.256C228.674 25.296 229.906 24.56 231.442 24.048C232.978 23.504 234.674 23.232 236.53 23.232C239.346 23.232 241.522 23.968 243.058 25.44C244.626 26.88 245.41 29.2 245.41 32.4C245.41 33.488 245.41 34.416 245.41 35.184C245.41 35.952 245.394 36.72 245.362 37.488C245.362 38.256 245.362 39.184 245.362 40.272C245.362 40.72 245.346 41.36 245.314 42.192C245.282 42.992 245.234 43.76 245.17 44.496C245.714 44.432 246.29 44.4 246.898 44.4C247.506 44.368 247.97 44.352 248.29 44.352V48H239.218ZM238.69 36.96C237.794 37.056 236.946 37.216 236.146 37.44C235.346 37.664 234.642 37.968 234.034 38.352C233.458 38.736 232.994 39.2 232.642 39.744C232.322 40.288 232.162 40.896 232.162 41.568C232.194 42.464 232.482 43.104 233.026 43.488C233.57 43.872 234.194 44.064 234.898 44.064C235.634 44.064 236.322 43.904 236.962 43.584C237.602 43.264 238.178 42.848 238.69 42.336C238.69 42.016 238.69 41.712 238.69 41.424C238.69 41.104 238.69 40.784 238.69 40.464C238.69 39.888 238.69 39.312 238.69 38.736C238.69 38.128 238.69 37.536 238.69 36.96ZM251.046 48V44.88C251.942 44.88 252.582 44.704 252.966 44.352C253.35 44 253.59 43.504 253.686 42.864C253.814 42.192 253.878 41.44 253.878 40.608V32.544C253.878 31.968 253.894 31.328 253.926 30.624C253.958 29.888 254.006 29.168 254.07 28.464C253.558 28.496 252.95 28.528 252.246 28.56C251.574 28.56 251.062 28.576 250.71 28.608V24.96C252.182 24.96 253.43 24.88 254.454 24.72C255.478 24.56 256.278 24.368 256.854 24.144C257.462 23.92 257.878 23.712 258.102 23.52H260.454C260.518 23.936 260.55 24.24 260.55 24.432C260.55 24.624 260.55 24.816 260.55 25.008C260.582 25.168 260.646 25.472 260.742 25.92C261.382 25.408 262.118 24.96 262.95 24.576C263.782 24.16 264.614 23.84 265.446 23.616C266.278 23.36 267.014 23.232 267.654 23.232C270.598 23.232 272.678 24.08 273.894 25.776C275.142 27.44 275.766 30.128 275.766 33.84V40.272C275.766 40.72 275.75 41.36 275.718 42.192C275.686 42.992 275.638 43.76 275.574 44.496C276.118 44.432 276.694 44.4 277.302 44.4C277.91 44.368 278.374 44.352 278.694 44.352V48H266.118V44.88C267.014 44.88 267.654 44.704 268.038 44.352C268.454 44 268.71 43.504 268.806 42.864C268.934 42.192 268.998 41.44 268.998 40.608L268.95 33.792C268.95 31.712 268.646 30.176 268.038 29.184C267.462 28.16 266.47 27.648 265.062 27.648C264.262 27.648 263.462 27.824 262.662 28.176C261.894 28.528 261.238 28.944 260.694 29.424C260.694 29.872 260.694 30.336 260.694 30.816C260.694 31.264 260.694 31.712 260.694 32.16V40.272C260.694 40.72 260.678 41.36 260.646 42.192C260.614 42.992 260.566 43.76 260.502 44.496C261.014 44.432 261.574 44.4 262.182 44.4C262.822 44.368 263.302 44.352 263.622 44.352V48H251.046ZM290.878 48.768C289.918 48.768 288.99 48.656 288.094 48.432C287.198 48.208 286.398 47.792 285.694 47.184C284.99 46.544 284.43 45.616 284.014 44.4C283.598 43.184 283.39 41.568 283.39 39.552L283.486 27.984H280.222V24C281.214 23.968 282.174 23.632 283.102 22.992C284.03 22.352 284.814 21.52 285.454 20.496C286.126 19.472 286.574 18.4 286.798 17.28H290.35L290.302 24H296.398V27.696L290.302 27.84L290.254 39.648C290.254 40.384 290.318 41.12 290.446 41.856C290.606 42.56 290.894 43.152 291.31 43.632C291.726 44.08 292.334 44.304 293.134 44.304C293.582 44.304 294.19 44.144 294.958 43.824C295.758 43.504 296.606 42.704 297.502 41.424L299.806 43.584C298.942 44.864 298.046 45.856 297.118 46.56C296.19 47.264 295.294 47.776 294.43 48.096C293.598 48.416 292.862 48.608 292.222 48.672C291.582 48.736 291.134 48.768 290.878 48.768ZM312.036 48V44.688C312.932 44.688 313.652 44.432 314.196 43.92C314.74 43.408 315.188 42.736 315.54 41.904C315.924 41.072 316.292 40.176 316.644 39.216L326.004 13.536H329.364L339.588 39.696C339.78 40.176 340.036 40.912 340.356 41.904C340.676 42.864 340.868 43.712 340.932 44.448C341.476 44.384 341.988 44.352 342.468 44.352C342.98 44.32 343.396 44.304 343.716 44.304V48H330.804V44.832C331.7 44.832 332.308 44.656 332.628 44.304C332.98 43.92 333.14 43.408 333.108 42.768C333.076 42.128 332.9 41.408 332.58 40.608L331.62 37.968L321.204 38.16L320.436 40.416C320.276 40.832 320.036 41.456 319.716 42.288C319.428 43.088 319.156 43.76 318.9 44.304C319.412 44.24 320.02 44.208 320.724 44.208C321.46 44.176 321.988 44.16 322.308 44.16V48H312.036ZM322.404 34.56H330.42L328.212 28.56C327.796 27.408 327.428 26.256 327.108 25.104C326.788 23.92 326.548 22.88 326.388 21.984H326.34C326.212 22.528 326.02 23.344 325.764 24.432C325.508 25.52 325.108 26.816 324.564 28.32L322.404 34.56ZM345.64 44.88C346.536 44.88 347.176 44.704 347.56 44.352C347.944 44 348.184 43.504 348.28 42.864C348.408 42.192 348.472 41.44 348.472 40.608V32.544C348.472 31.968 348.488 31.328 348.52 30.624C348.552 29.888 348.6 29.168 348.664 28.464C348.152 28.496 347.544 28.528 346.84 28.56C346.168 28.56 345.656 28.576 345.304 28.608V24.96H347.224C348.472 24.96 349.608 24.8 350.632 24.48C351.688 24.16 352.376 23.84 352.696 23.52H355.048C355.112 23.84 355.16 24.448 355.192 25.344C355.224 26.208 355.24 26.976 355.24 27.648C356.104 26.592 356.92 25.744 357.688 25.104C358.456 24.464 359.208 24 359.944 23.712C360.712 23.392 361.48 23.232 362.248 23.232C363.368 23.232 364.344 23.552 365.176 24.192C366.008 24.8 366.424 25.808 366.424 27.216C366.424 27.696 366.312 28.208 366.088 28.752C365.864 29.264 365.512 29.696 365.032 30.048C364.552 30.4 363.896 30.576 363.064 30.576C362.424 30.576 361.768 30.384 361.096 30C360.424 29.616 360.04 28.88 359.944 27.792C359.304 27.792 358.664 28.064 358.024 28.608C357.384 29.12 356.808 29.744 356.296 30.48C355.816 31.184 355.48 31.84 355.288 32.448V40.272C355.288 40.72 355.272 41.36 355.24 42.192C355.208 42.992 355.16 43.76 355.096 44.496C355.608 44.432 356.168 44.4 356.776 44.4C357.416 44.368 357.896 44.352 358.216 44.352V48H345.64V44.88ZM380.087 48.768C377.783 48.768 375.703 48.272 373.847 47.28C371.991 46.288 370.519 44.88 369.431 43.056C368.375 41.2 367.847 39.024 367.847 36.528C367.847 33.872 368.391 31.552 369.479 29.568C370.599 27.552 372.071 26 373.895 24.912C375.751 23.792 377.767 23.232 379.943 23.232C382.247 23.232 384.311 23.728 386.135 24.72C387.959 25.712 389.399 27.136 390.455 28.992C391.511 30.816 392.039 33.008 392.039 35.568C392.039 38.256 391.527 40.592 390.503 42.576C389.479 44.56 388.071 46.096 386.279 47.184C384.487 48.24 382.423 48.768 380.087 48.768ZM380.279 45.36C381.559 45.328 382.519 44.88 383.159 44.016C383.831 43.152 384.295 42.064 384.551 40.752C384.807 39.44 384.935 38.112 384.935 36.768C384.935 35.584 384.839 34.384 384.647 33.168C384.487 31.952 384.215 30.848 383.831 29.856C383.447 28.864 382.919 28.064 382.247 27.456C381.607 26.848 380.807 26.56 379.847 26.592C378.599 26.624 377.607 27.072 376.871 27.936C376.167 28.8 375.655 29.888 375.335 31.2C375.047 32.48 374.903 33.824 374.903 35.232C374.903 36.864 375.079 38.464 375.431 40.032C375.783 41.6 376.343 42.896 377.111 43.92C377.911 44.912 378.967 45.392 380.279 45.36ZM395.515 44.88C396.411 44.88 397.051 44.704 397.435 44.352C397.819 44 398.059 43.504 398.155 42.864C398.283 42.192 398.347 41.44 398.347 40.608V32.544C398.347 31.968 398.363 31.328 398.395 30.624C398.427 29.888 398.475 29.168 398.539 28.464C398.027 28.496 397.419 28.528 396.715 28.56C396.043 28.56 395.531 28.576 395.179 28.608V24.96H397.099C398.347 24.96 399.483 24.8 400.507 24.48C401.563 24.16 402.251 23.84 402.571 23.52H404.923C404.987 23.84 405.035 24.448 405.067 25.344C405.099 26.208 405.115 26.976 405.115 27.648C405.979 26.592 406.795 25.744 407.563 25.104C408.331 24.464 409.083 24 409.819 23.712C410.587 23.392 411.355 23.232 412.123 23.232C413.243 23.232 414.219 23.552 415.051 24.192C415.883 24.8 416.299 25.808 416.299 27.216C416.299 27.696 416.187 28.208 415.963 28.752C415.739 29.264 415.387 29.696 414.907 30.048C414.427 30.4 413.771 30.576 412.939 30.576C412.299 30.576 411.643 30.384 410.971 30C410.299 29.616 409.915 28.88 409.819 27.792C409.179 27.792 408.539 28.064 407.899 28.608C407.259 29.12 406.683 29.744 406.171 30.48C405.691 31.184 405.355 31.84 405.163 32.448V40.272C405.163 40.72 405.147 41.36 405.115 42.192C405.083 42.992 405.035 43.76 404.971 44.496C405.483 44.432 406.043 44.4 406.651 44.4C407.291 44.368 407.771 44.352 408.091 44.352V48H395.515V44.88ZM431.687 48C431.623 47.552 431.575 47.184 431.543 46.896C431.543 46.576 431.527 46.208 431.495 45.792C430.407 46.88 429.255 47.648 428.039 48.096C426.823 48.544 425.591 48.768 424.343 48.768C422.295 48.768 420.695 48.16 419.543 46.944C418.391 45.728 417.815 44.208 417.815 42.384C417.815 40.848 418.199 39.536 418.967 38.448C419.767 37.36 420.807 36.48 422.087 35.808C423.399 35.104 424.839 34.576 426.407 34.224C428.007 33.84 429.607 33.616 431.207 33.552V31.056C431.207 30.224 431.095 29.472 430.871 28.8C430.679 28.128 430.327 27.6 429.815 27.216C429.335 26.832 428.647 26.656 427.751 26.688C427.143 26.72 426.551 26.848 425.975 27.072C425.399 27.296 424.903 27.616 424.487 28.032C424.743 28.32 424.903 28.64 424.967 28.992C425.031 29.312 425.063 29.6 425.063 29.856C425.063 30.496 424.807 31.168 424.295 31.872C423.783 32.544 422.967 32.864 421.847 32.832C420.887 32.8 420.151 32.464 419.639 31.824C419.127 31.184 418.871 30.432 418.871 29.568C418.871 28.288 419.319 27.184 420.215 26.256C421.143 25.296 422.375 24.56 423.911 24.048C425.447 23.504 427.143 23.232 428.999 23.232C431.815 23.232 433.991 23.968 435.527 25.44C437.095 26.88 437.879 29.2 437.879 32.4C437.879 33.488 437.879 34.416 437.879 35.184C437.879 35.952 437.863 36.72 437.831 37.488C437.831 38.256 437.831 39.184 437.831 40.272C437.831 40.72 437.815 41.36 437.783 42.192C437.751 42.992 437.703 43.76 437.639 44.496C438.183 44.432 438.759 44.4 439.367 44.4C439.975 44.368 440.439 44.352 440.759 44.352V48H431.687ZM431.159 36.96C430.263 37.056 429.415 37.216 428.615 37.44C427.815 37.664 427.111 37.968 426.503 38.352C425.927 38.736 425.463 39.2 425.111 39.744C424.791 40.288 424.631 40.896 424.631 41.568C424.663 42.464 424.951 43.104 425.495 43.488C426.039 43.872 426.663 44.064 427.367 44.064C428.103 44.064 428.791 43.904 429.431 43.584C430.071 43.264 430.647 42.848 431.159 42.336C431.159 42.016 431.159 41.712 431.159 41.424C431.159 41.104 431.159 40.784 431.159 40.464C431.159 39.888 431.159 39.312 431.159 38.736C431.159 38.128 431.159 37.536 431.159 36.96Z" fill="#FFBB6B"/>
<path fill-rule="evenodd" clip-rule="evenodd" d="M6.78353 26.4919C7.04698 26.6522 9.6153 29.6544 9.68383 29.7917L14.4101 34.1824C20.2337 39.0238 26.7066 43.1364 33.6142 46.7344C33.746 46.8031 33.8642 46.8587 33.9717 46.9093C34.3882 47.1052 34.6437 47.2254 34.9113 47.7399C36.2866 50.3835 37.1304 53.5576 37.2875 56.7488C37.4917 60.8961 36.6969 64.7912 35.5049 68.6453C35.0695 70.0532 34.7479 70.8377 34.5531 71.3129C34.3809 71.7333 34.3077 71.9117 34.3428 72.0654C34.3686 72.1788 34.4532 72.2787 34.6001 72.4524L34.6001 72.4524C34.7273 72.6027 34.9011 72.8081 35.124 73.1252C35.3513 73.4484 35.5869 73.7945 35.8114 74.1341C36.1619 74.665 36.4665 75.1506 36.7949 75.6742L36.795 75.6744L36.7962 75.6763C36.9043 75.8487 37.015 76.0252 37.1308 76.2089C37.9844 77.5621 38.8351 79.0165 39.6708 80.4587C39.9147 80.8796 40.1615 81.3046 40.4093 81.7312C40.9954 82.7406 41.5873 83.7597 42.1604 84.7592L44.6979 89.0183C44.9619 88.8817 45.146 88.5485 45.3156 88.2415L45.3158 88.2412C45.3536 88.1727 45.3907 88.1056 45.4278 88.0422C46.1646 86.7846 46.9064 85.4951 47.6541 84.1952L47.6549 84.1937L47.655 84.1936L47.6551 84.1935L47.6552 84.1934C49.6045 80.8044 51.5947 77.3446 53.6446 74.1929C54.1317 73.4439 54.4912 73.0079 54.7352 72.7119C54.9634 72.4352 55.0907 72.2808 55.127 72.1075C55.1727 71.8889 55.0739 71.6401 54.8505 71.0776C54.6589 70.5951 54.3757 69.8818 54.0134 68.7589C52.8288 65.0875 52.011 60.7687 52.1968 56.8565C52.358 53.4593 53.1173 50.7347 54.5197 47.8937C54.8249 47.2753 54.9925 47.1908 55.4026 46.9842C55.4989 46.9357 55.6085 46.8804 55.7365 46.81C56.0941 46.6129 56.4486 46.4215 56.8022 46.2305L56.8031 46.23L56.8033 46.2299L56.8033 46.2299L56.8034 46.2299C57.4381 45.8871 58.0697 45.546 58.7103 45.1776C66.2969 40.8148 72.5846 36.9586 78.6341 30.9184C78.7705 30.7822 78.8964 30.6423 79.0204 30.5046L79.0204 30.5046L79.0204 30.5045L79.0205 30.5045C79.2664 30.2312 79.5048 29.9664 79.8032 29.7549C79.9408 29.5248 80.58 28.8434 81.0063 28.389C81.1119 28.2765 81.2044 28.1778 81.273 28.1034C81.3901 27.9766 81.5288 27.7983 81.6792 27.6049C82.0091 27.1809 82.3955 26.6844 82.7337 26.4979C82.7973 26.2926 83.2492 25.6927 83.6218 25.1981L83.6218 25.198L83.6221 25.1977L83.6227 25.1968L83.6232 25.1963C83.8116 24.9461 83.9796 24.723 84.0665 24.5918C84.5219 23.9049 84.8951 23.2997 85.2776 22.529L85.3328 22.4174C85.4874 22.1053 85.6231 21.8315 85.8137 21.4887C86.2838 20.6439 86.7025 19.5828 87.0756 18.637C87.1592 18.4253 87.2404 18.2193 87.3195 18.0228C87.8891 16.608 88.4535 14.5312 88.7824 12.9368C89.1505 11.1527 89.3548 8.95337 89.5171 7C89.0564 7.0384 88.8952 7.25672 88.6803 7.5477C88.654 7.58322 88.627 7.61983 88.5985 7.65733C88.4454 7.85897 88.335 7.98921 88.2197 8.12516L88.2196 8.12522C88.1228 8.23941 88.0226 8.35763 87.8907 8.52557L83.1679 14.8355C83.0751 14.9585 82.9944 15.0625 82.9184 15.1605L82.9179 15.1612L82.9178 15.1612L82.9176 15.1615C82.7758 15.3442 82.6499 15.5066 82.4903 15.7342C82.0645 16.3414 81.631 16.9583 81.1773 17.5733C80.6774 18.2507 80.2015 18.931 79.7266 19.6097C79.3274 20.1803 78.9289 20.7499 78.5176 21.3158C78.3387 21.744 77.8166 22.4417 77.4638 22.9133L77.4638 22.9133L77.4635 22.9137C77.3997 22.9989 77.3415 23.0767 77.2919 23.1442C77.2167 23.2464 77.1444 23.3536 77.0717 23.4614L77.0716 23.4616L77.0713 23.462L77.0711 23.4624C76.747 23.9432 76.414 24.4372 75.7746 24.5629C75.7431 24.5878 45.5666 32.3902 44.6939 32.3667L13.7273 24.5594C13.0949 24.4657 12.663 23.829 12.313 23.3132L12.3129 23.313C12.2598 23.2347 12.2086 23.1593 12.1589 23.0889C12.0779 22.9743 11.9783 22.8409 11.8712 22.6972L11.8712 22.6972L11.8712 22.6972C11.5375 22.25 11.1298 21.7036 10.9756 21.3158C10.8202 21.1609 10.6852 20.9466 10.5463 20.726C10.4811 20.6225 10.4151 20.5177 10.3457 20.417L5.74182 13.988C5.02182 12.9429 0.939502 7.25153 0 7.00026L0.245506 10.03C0.66929 15.0477 3.12656 21.4153 6.09201 25.5275C6.17787 25.6465 6.25579 25.752 6.33001 25.8523C6.48452 26.0613 6.62296 26.2486 6.78353 26.4919ZM81.1789 32.0285C80.2206 33.4981 73.8438 38.7289 72.3563 39.8691C66.9408 44.0204 62.7958 46.2553 56.645 49.1563C55.9066 49.5046 55.8286 50.0069 55.6428 51.2034L55.6427 51.2039L55.6427 51.2042C55.6006 51.4748 55.5531 51.781 55.4911 52.129C54.3642 58.4573 54.5284 64.7056 57.2549 70.0368C57.5805 69.9075 61.0698 66.6674 63.3404 64.559L63.3408 64.5587L63.3409 64.5586L63.3412 64.5584C64.1269 63.8287 64.7667 63.2347 65.0787 62.9521C65.1822 62.8584 65.3195 62.7503 65.4593 62.6403L65.4593 62.6402C65.6692 62.475 65.8846 62.3054 65.9996 62.1735C66.338 61.785 66.3349 60.7216 66.3324 59.8619V59.8618V59.8618V59.8617C66.3316 59.5841 66.3309 59.3276 66.3417 59.1221C66.3797 58.4024 66.4232 57.6767 66.4668 56.9496L66.4669 56.949L66.4669 56.9481L66.467 56.9477L66.467 56.9473L66.467 56.947C66.5536 55.5027 66.6406 54.0527 66.6855 52.6329C67.9758 52.242 69.4527 51.6339 70.8802 51.0461L70.8811 51.0457L70.884 51.0445L70.8847 51.0442C71.4511 50.811 72.0096 50.5811 72.5456 50.3692C73.0831 50.1567 73.6191 49.9509 74.1596 49.7433C74.5759 49.5835 74.9949 49.4226 75.4194 49.2568C75.8001 49.1081 76.1416 48.9826 76.4509 48.8689L76.4513 48.8688C78.887 47.9736 79.3284 47.8114 81.2539 42.8292C81.6483 41.8088 81.9632 40.8166 82.2963 39.7337C82.4187 39.3357 82.5227 38.8855 82.6276 38.4313L82.6276 38.4311C82.7883 37.7351 82.9512 37.03 83.1858 36.4896C83.2535 35.6765 83.4305 34.7782 83.613 33.852L83.613 33.8519C83.9333 32.2262 84.2704 30.5146 84.0636 29.0277C83.7291 29.3325 83.496 29.6104 83.2666 29.8839L83.2665 29.884L83.2665 29.884L83.2664 29.8841C83.0701 30.1182 82.8764 30.349 82.6242 30.5908C82.4062 30.7997 82.2202 31.007 82.0438 31.2036C81.7617 31.5179 81.504 31.805 81.1791 32.0283L81.1789 32.0285ZM6.95915 38.5908C6.68478 37.5961 6.47039 36.8188 6.31055 36.4577V36.4576C6.25989 35.8389 6.11636 35.1254 5.97369 34.4162L5.97368 34.4162C5.87314 33.9164 5.77303 33.4187 5.70616 32.9579C5.52626 31.7181 5.37611 30.3272 5.39098 29.0277C5.77482 29.2147 6.30933 29.8504 6.85035 30.4938C7.37854 31.122 7.91294 31.7575 8.31939 31.9901C8.90486 32.979 13.4496 36.8787 14.8577 38.0268C20.8486 42.912 25.8026 45.8233 32.9012 49.1489C33.6338 49.4921 33.7075 49.9713 33.894 51.1832C33.9373 51.4641 33.9865 51.7844 34.0515 52.1515C34.2624 53.3439 34.4114 54.5523 34.5215 55.7901C35.0004 61.1727 34.453 65.9189 32.2807 70.0368C31.8965 69.8832 30.745 68.7899 29.8094 67.9016C29.3427 67.4585 28.9297 67.0664 28.6925 66.8673L23.4465 62.029C23.2412 61.6897 23.1623 59.5515 23.0809 57.3455V57.3454C23.0126 55.4943 22.9426 53.5955 22.7946 52.6719C22.3794 52.4053 20.0474 51.528 17.5701 50.596L17.57 50.5959C14.6503 49.4976 11.529 48.3233 11.1068 47.9837C9.10597 46.3739 7.77036 41.5318 6.95915 38.5908ZM43.821 89.4724L33.7213 74.9581C33.3743 75.4278 32.475 79.5343 32.3747 80.4162C31.7528 85.8731 39.302 89.7565 43.8211 89.4724H43.821ZM45.696 89.4858C45.696 89.4858 45.696 89.4858 45.696 89.4858V89.4859C45.696 89.4859 45.696 89.4859 45.696 89.4858ZM45.696 89.4858C49.3713 89.5388 52.8597 87.86 55.278 85.4352C56.3158 84.3946 57.3508 82.6503 57.1544 80.5026C57.089 79.7874 56.0678 75.2796 55.8225 74.9581L53.2806 78.5504C53.0774 78.845 52.5196 79.6368 51.7926 80.6687C49.6264 83.7436 45.9583 88.9504 45.696 89.4858Z" fill="#FFBB6B"/>
</svg>
