<svg width="1530" height="1202" viewBox="0 0 1530 1202" fill="none" xmlns="http://www.w3.org/2000/svg">
<g style="mix-blend-mode:darken">
<circle opacity="0.05" cx="765" cy="578" r="623" stroke="#FFBB6B" stroke-width="2"/>
<circle opacity="0.1" cx="765" cy="578" r="526" stroke="#FFBB6B" stroke-width="2"/>
<circle opacity="0.1" cx="765" cy="578" r="410" stroke="#FFBB6B" stroke-width="2"/>
<circle opacity="0.1" cx="765" cy="578" r="288" stroke="#FFBB6B" stroke-width="2"/>
<circle opacity="0.1" cx="765" cy="578" r="184" stroke="#FFBB6B" stroke-width="2"/>
<path fill-rule="evenodd" clip-rule="evenodd" d="M151.425 369.968C151.519 370.025 152.437 371.098 152.462 371.147L154.151 372.717C156.233 374.448 158.547 375.918 161.016 377.204C161.063 377.229 161.106 377.248 161.144 377.267C161.293 377.337 161.384 377.38 161.48 377.563C161.972 378.508 162.273 379.643 162.329 380.784C162.402 382.266 162.118 383.659 161.692 385.037C161.536 385.54 161.421 385.82 161.352 385.99C161.29 386.14 161.264 386.204 161.277 386.259C161.286 386.3 161.316 386.335 161.369 386.398L161.369 386.398C161.414 386.451 161.476 386.525 161.556 386.638C161.637 386.754 161.721 386.877 161.802 386.999C161.927 387.188 162.036 387.362 162.153 387.549C162.192 387.611 162.232 387.674 162.273 387.74C162.578 388.224 162.883 388.744 163.181 389.26C163.268 389.41 163.356 389.562 163.445 389.714L163.445 389.715C163.655 390.075 163.866 390.44 164.071 390.797L164.978 392.319C165.073 392.271 165.139 392.151 165.199 392.042C165.213 392.017 165.226 391.993 165.239 391.97C165.503 391.521 165.768 391.06 166.035 390.595L166.035 390.595C166.732 389.383 167.444 388.146 168.177 387.02C168.351 386.752 168.479 386.596 168.566 386.49C168.648 386.391 168.693 386.336 168.706 386.274C168.723 386.196 168.687 386.107 168.608 385.906C168.539 385.734 168.438 385.479 168.308 385.077C167.885 383.765 167.593 382.221 167.659 380.822C167.717 379.608 167.988 378.634 168.489 377.618C168.598 377.397 168.658 377.367 168.805 377.293L168.805 377.293C168.839 377.276 168.879 377.256 168.924 377.231C169.052 377.161 169.178 377.092 169.304 377.024L169.305 377.024L169.305 377.024L169.306 377.024L169.306 377.024L169.306 377.024L169.306 377.024C169.533 376.901 169.758 376.779 169.987 376.647C172.699 375.088 174.947 373.709 177.11 371.55C177.158 371.502 177.203 371.452 177.248 371.402L177.248 371.402L177.248 371.402L177.248 371.402C177.336 371.305 177.421 371.21 177.528 371.134C177.577 371.052 177.805 370.808 177.958 370.646C177.995 370.606 178.028 370.571 178.053 370.544C178.095 370.499 178.144 370.435 178.198 370.366C178.316 370.214 178.454 370.037 178.575 369.97C178.598 369.897 178.759 369.682 178.893 369.505C178.96 369.416 179.02 369.336 179.052 369.289C179.214 369.043 179.348 368.827 179.484 368.551L179.504 368.511L179.504 368.511C179.559 368.4 179.608 368.302 179.676 368.179C179.844 367.877 179.994 367.498 180.127 367.16L180.127 367.16C180.157 367.084 180.186 367.011 180.214 366.94C180.418 366.435 180.62 365.692 180.737 365.122C180.869 364.484 180.942 363.698 181 363C180.835 363.014 180.778 363.092 180.701 363.196C180.691 363.208 180.682 363.222 180.672 363.235C180.617 363.307 180.577 363.354 180.536 363.402L180.536 363.402C180.502 363.443 180.466 363.485 180.419 363.545L178.73 365.801C178.697 365.845 178.668 365.882 178.641 365.917L178.641 365.917C178.59 365.983 178.545 366.041 178.488 366.122C178.336 366.339 178.181 366.56 178.019 366.78C177.84 367.022 177.67 367.265 177.5 367.508L177.5 367.508L177.5 367.508L177.5 367.508C177.357 367.712 177.215 367.915 177.068 368.118C177.004 368.271 176.817 368.52 176.691 368.689L176.691 368.689C176.668 368.719 176.648 368.747 176.63 368.771C176.603 368.808 176.577 368.846 176.551 368.885C176.435 369.057 176.316 369.233 176.087 369.278C176.076 369.287 165.289 372.076 164.977 372.068L153.907 369.277C153.681 369.244 153.527 369.016 153.402 368.832L153.402 368.832L153.402 368.832L153.402 368.832C153.383 368.804 153.364 368.777 153.346 368.751C153.318 368.71 153.282 368.663 153.244 368.611C153.124 368.451 152.979 368.256 152.923 368.118C152.868 368.062 152.82 367.986 152.77 367.907L152.77 367.907C152.747 367.87 152.723 367.832 152.698 367.796L151.053 365.498C150.795 365.124 149.336 363.09 149 363L149.088 364.083C149.239 365.877 150.118 368.153 151.178 369.623C151.208 369.666 151.236 369.703 151.263 369.739L151.263 369.739L151.263 369.739C151.318 369.814 151.368 369.881 151.425 369.968ZM178.019 371.947C177.677 372.472 175.397 374.342 174.866 374.75C172.93 376.234 171.448 377.033 169.249 378.07C168.985 378.194 168.957 378.374 168.891 378.802C168.876 378.898 168.859 379.008 168.837 379.132C168.434 381.395 168.492 383.628 169.467 385.534C169.584 385.488 170.831 384.329 171.643 383.576L171.643 383.575C171.924 383.315 172.152 383.102 172.264 383.001C172.301 382.968 172.35 382.929 172.4 382.89L172.4 382.89C172.475 382.831 172.552 382.77 172.593 382.723C172.714 382.584 172.713 382.204 172.712 381.897C172.712 381.797 172.712 381.706 172.715 381.632C172.729 381.375 172.745 381.115 172.76 380.855C172.791 380.339 172.822 379.82 172.838 379.313C173.3 379.173 173.828 378.955 174.338 378.745C174.541 378.662 174.741 378.579 174.933 378.503C175.125 378.427 175.317 378.354 175.51 378.28C175.659 378.222 175.809 378.165 175.96 378.106C176.097 378.053 176.219 378.008 176.329 377.967L176.329 377.967C177.2 377.647 177.358 377.589 178.046 375.808C178.187 375.443 178.3 375.089 178.419 374.701C178.463 374.559 178.5 374.398 178.537 374.236C178.595 373.987 178.653 373.735 178.737 373.542C178.761 373.251 178.824 372.93 178.889 372.599C179.004 372.018 179.124 371.406 179.051 370.874C178.931 370.983 178.848 371.083 178.766 371.18C178.695 371.264 178.626 371.347 178.536 371.433C178.458 371.508 178.392 371.582 178.329 371.652L178.328 371.652L178.328 371.652C178.228 371.765 178.136 371.867 178.019 371.947L178.019 371.947ZM151.488 374.293C151.39 373.937 151.313 373.659 151.256 373.53V373.53C151.238 373.309 151.186 373.054 151.135 372.801L151.135 372.801C151.099 372.622 151.064 372.444 151.04 372.279C150.975 371.836 150.922 371.339 150.927 370.874C151.064 370.941 151.255 371.168 151.449 371.398C151.638 371.623 151.829 371.85 151.974 371.933C152.183 372.287 153.808 373.681 154.311 374.091C156.453 375.838 158.224 376.878 160.761 378.067C161.023 378.19 161.05 378.361 161.116 378.794L161.116 378.794C161.132 378.895 161.149 379.009 161.172 379.14C161.248 379.567 161.301 379.999 161.34 380.441C161.512 382.365 161.316 384.062 160.539 385.534C160.402 385.479 159.99 385.088 159.656 384.771L159.656 384.771C159.489 384.612 159.342 384.472 159.257 384.401L157.381 382.671C157.308 382.55 157.28 381.786 157.251 380.997C157.226 380.335 157.201 379.657 157.148 379.327C157 379.231 156.166 378.918 155.281 378.584L155.281 378.584L155.281 378.584C154.237 378.192 153.121 377.772 152.97 377.651C152.255 377.075 151.778 375.344 151.488 374.293ZM164.665 392.482L161.055 387.293C160.93 387.461 160.609 388.929 160.573 389.244C160.351 391.195 163.049 392.583 164.665 392.482H164.665ZM165.335 392.486C165.335 392.486 165.335 392.486 165.335 392.486V392.487C165.335 392.486 165.335 392.486 165.335 392.486ZM165.335 392.486C166.649 392.505 167.896 391.905 168.76 391.038C169.131 390.667 169.501 390.043 169.431 389.275C169.408 389.02 169.043 387.408 168.955 387.293L168.046 388.577C167.974 388.683 167.774 388.966 167.514 389.335C166.74 390.434 165.429 392.295 165.335 392.486Z" fill="#FFBB6B"/>
<path fill-rule="evenodd" clip-rule="evenodd" d="M1367.42 454.968C1367.52 455.025 1368.44 456.098 1368.46 456.147L1370.15 457.717C1372.23 459.448 1374.55 460.918 1377.02 462.204C1377.06 462.229 1377.11 462.248 1377.14 462.267C1377.29 462.337 1377.38 462.38 1377.48 462.563C1377.97 463.508 1378.27 464.643 1378.33 465.784C1378.4 467.266 1378.12 468.659 1377.69 470.037C1377.54 470.54 1377.42 470.82 1377.35 470.99C1377.29 471.14 1377.26 471.204 1377.28 471.259C1377.29 471.3 1377.32 471.335 1377.37 471.398L1377.37 471.398C1377.41 471.451 1377.48 471.525 1377.56 471.638C1377.64 471.754 1377.72 471.877 1377.8 471.999C1377.93 472.188 1378.04 472.362 1378.15 472.549C1378.19 472.611 1378.23 472.674 1378.27 472.74C1378.58 473.224 1378.88 473.744 1379.18 474.26C1379.27 474.41 1379.36 474.562 1379.44 474.714L1379.45 474.715C1379.65 475.075 1379.87 475.44 1380.07 475.797L1380.98 477.319C1381.07 477.271 1381.14 477.151 1381.2 477.042C1381.21 477.017 1381.23 476.993 1381.24 476.97C1381.5 476.521 1381.77 476.06 1382.04 475.595L1382.04 475.595C1382.73 474.383 1383.44 473.146 1384.18 472.02C1384.35 471.752 1384.48 471.596 1384.57 471.49C1384.65 471.391 1384.69 471.336 1384.71 471.274C1384.72 471.196 1384.69 471.107 1384.61 470.906C1384.54 470.734 1384.44 470.479 1384.31 470.077C1383.88 468.765 1383.59 467.221 1383.66 465.822C1383.72 464.608 1383.99 463.634 1384.49 462.618C1384.6 462.397 1384.66 462.367 1384.8 462.293L1384.81 462.293C1384.84 462.276 1384.88 462.256 1384.92 462.231C1385.05 462.161 1385.18 462.092 1385.3 462.024L1385.31 462.024L1385.31 462.024L1385.31 462.024L1385.31 462.024L1385.31 462.024L1385.31 462.024C1385.53 461.901 1385.76 461.779 1385.99 461.647C1388.7 460.088 1390.95 458.709 1393.11 456.55C1393.16 456.502 1393.2 456.452 1393.25 456.402L1393.25 456.402L1393.25 456.402L1393.25 456.402C1393.34 456.305 1393.42 456.21 1393.53 456.134C1393.58 456.052 1393.81 455.808 1393.96 455.646C1394 455.606 1394.03 455.571 1394.05 455.544C1394.09 455.499 1394.14 455.435 1394.2 455.366C1394.32 455.214 1394.45 455.037 1394.58 454.97C1394.6 454.897 1394.76 454.682 1394.89 454.505C1394.96 454.416 1395.02 454.336 1395.05 454.289C1395.21 454.043 1395.35 453.827 1395.48 453.551L1395.5 453.511L1395.5 453.511C1395.56 453.4 1395.61 453.302 1395.68 453.179C1395.84 452.877 1395.99 452.498 1396.13 452.16L1396.13 452.16C1396.16 452.084 1396.19 452.011 1396.21 451.94C1396.42 451.435 1396.62 450.692 1396.74 450.122C1396.87 449.484 1396.94 448.698 1397 448C1396.84 448.014 1396.78 448.092 1396.7 448.196C1396.69 448.208 1396.68 448.222 1396.67 448.235C1396.62 448.307 1396.58 448.354 1396.54 448.402L1396.54 448.402C1396.5 448.443 1396.47 448.485 1396.42 448.545L1394.73 450.801C1394.7 450.845 1394.67 450.882 1394.64 450.917L1394.64 450.917C1394.59 450.983 1394.55 451.041 1394.49 451.122C1394.34 451.339 1394.18 451.56 1394.02 451.78C1393.84 452.022 1393.67 452.265 1393.5 452.508L1393.5 452.508L1393.5 452.508L1393.5 452.508C1393.36 452.712 1393.21 452.915 1393.07 453.118C1393 453.271 1392.82 453.52 1392.69 453.689L1392.69 453.689C1392.67 453.719 1392.65 453.747 1392.63 453.771C1392.6 453.808 1392.58 453.846 1392.55 453.885C1392.44 454.057 1392.32 454.233 1392.09 454.278C1392.08 454.287 1381.29 457.076 1380.98 457.068L1369.91 454.277C1369.68 454.244 1369.53 454.016 1369.4 453.832L1369.4 453.832L1369.4 453.832L1369.4 453.832C1369.38 453.804 1369.36 453.777 1369.35 453.751C1369.32 453.71 1369.28 453.663 1369.24 453.611C1369.12 453.451 1368.98 453.256 1368.92 453.118C1368.87 453.062 1368.82 452.986 1368.77 452.907L1368.77 452.907C1368.75 452.87 1368.72 452.832 1368.7 452.796L1367.05 450.498C1366.8 450.124 1365.34 448.09 1365 448L1365.09 449.083C1365.24 450.877 1366.12 453.153 1367.18 454.623C1367.21 454.666 1367.24 454.703 1367.26 454.739L1367.26 454.739L1367.26 454.739C1367.32 454.814 1367.37 454.881 1367.42 454.968ZM1394.02 456.947C1393.68 457.472 1391.4 459.342 1390.87 459.75C1388.93 461.234 1387.45 462.033 1385.25 463.07C1384.99 463.194 1384.96 463.374 1384.89 463.802C1384.88 463.898 1384.86 464.008 1384.84 464.132C1384.43 466.395 1384.49 468.628 1385.47 470.534C1385.58 470.488 1386.83 469.329 1387.64 468.576L1387.64 468.575C1387.92 468.315 1388.15 468.102 1388.26 468.001C1388.3 467.968 1388.35 467.929 1388.4 467.89L1388.4 467.89C1388.48 467.831 1388.55 467.77 1388.59 467.723C1388.71 467.584 1388.71 467.204 1388.71 466.897C1388.71 466.797 1388.71 466.706 1388.72 466.632C1388.73 466.375 1388.74 466.115 1388.76 465.855C1388.79 465.339 1388.82 464.82 1388.84 464.313C1389.3 464.173 1389.83 463.955 1390.34 463.745C1390.54 463.662 1390.74 463.579 1390.93 463.503C1391.13 463.427 1391.32 463.354 1391.51 463.28C1391.66 463.222 1391.81 463.165 1391.96 463.106C1392.1 463.053 1392.22 463.008 1392.33 462.967L1392.33 462.967C1393.2 462.647 1393.36 462.589 1394.05 460.808C1394.19 460.443 1394.3 460.089 1394.42 459.701C1394.46 459.559 1394.5 459.398 1394.54 459.236C1394.59 458.987 1394.65 458.735 1394.74 458.542C1394.76 458.251 1394.82 457.93 1394.89 457.599C1395 457.018 1395.12 456.406 1395.05 455.874C1394.93 455.983 1394.85 456.083 1394.77 456.18C1394.7 456.264 1394.63 456.347 1394.54 456.433C1394.46 456.508 1394.39 456.582 1394.33 456.652L1394.33 456.652L1394.33 456.652C1394.23 456.765 1394.14 456.867 1394.02 456.947L1394.02 456.947ZM1367.49 459.293C1367.39 458.937 1367.31 458.659 1367.26 458.53V458.53C1367.24 458.309 1367.19 458.054 1367.14 457.801L1367.14 457.801C1367.1 457.622 1367.06 457.444 1367.04 457.279C1366.98 456.836 1366.92 456.339 1366.93 455.874C1367.06 455.941 1367.26 456.168 1367.45 456.398C1367.64 456.623 1367.83 456.85 1367.97 456.933C1368.18 457.287 1369.81 458.681 1370.31 459.091C1372.45 460.838 1374.22 461.878 1376.76 463.067C1377.02 463.19 1377.05 463.361 1377.12 463.794L1377.12 463.794C1377.13 463.895 1377.15 464.009 1377.17 464.14C1377.25 464.567 1377.3 464.999 1377.34 465.441C1377.51 467.365 1377.32 469.062 1376.54 470.534C1376.4 470.479 1375.99 470.088 1375.66 469.771L1375.66 469.771C1375.49 469.612 1375.34 469.472 1375.26 469.401L1373.38 467.671C1373.31 467.55 1373.28 466.786 1373.25 465.997C1373.23 465.335 1373.2 464.657 1373.15 464.327C1373 464.231 1372.17 463.918 1371.28 463.584L1371.28 463.584L1371.28 463.584C1370.24 463.192 1369.12 462.772 1368.97 462.651C1368.26 462.075 1367.78 460.344 1367.49 459.293ZM1380.66 477.482L1377.05 472.293C1376.93 472.461 1376.61 473.929 1376.57 474.244C1376.35 476.195 1379.05 477.583 1380.66 477.482H1380.66ZM1381.34 477.486C1381.34 477.486 1381.34 477.486 1381.34 477.486V477.487C1381.34 477.486 1381.34 477.486 1381.34 477.486ZM1381.34 477.486C1382.65 477.505 1383.9 476.905 1384.76 476.038C1385.13 475.667 1385.5 475.043 1385.43 474.275C1385.41 474.02 1385.04 472.408 1384.96 472.293L1384.05 473.577C1383.97 473.683 1383.77 473.966 1383.51 474.335C1382.74 475.434 1381.43 477.295 1381.34 477.486Z" fill="#FFBB6B"/>
<g clip-path="url(#clip0_10_47)" filter="url(#filter0_f_10_47)">
<mask id="mask0_10_47" style="mask-type:luminance" maskUnits="userSpaceOnUse" x="0" y="30" width="1530" height="714">
<path d="M1530 30H0V744H1530V30Z" fill="white"/>
</mask>
<g mask="url(#mask0_10_47)">
<g filter="url(#filter1_f_10_47)">
<path d="M1352.85 102.891H157.538V546.017H1352.85V102.891Z" fill="#FDF3DA"/>
<path d="M1042.11 209.469H-23.1562V591.013H1042.11V209.469Z" fill="#FDF3DA"/>
<path d="M1467.64 250.97H287.625V669.106H1467.64V250.97Z" fill="#FDF3DA"/>
</g>
</g>
</g>
</g>
<defs>
<filter id="filter0_f_10_47" x="-306.3" y="-276.3" width="2142.6" height="1326.6" filterUnits="userSpaceOnUse" color-interpolation-filters="sRGB">
<feFlood flood-opacity="0" result="BackgroundImageFix"/>
<feBlend mode="normal" in="SourceGraphic" in2="BackgroundImageFix" result="shape"/>
<feGaussianBlur stdDeviation="153.15" result="effect1_foregroundBlur_10_47"/>
</filter>
<filter id="filter1_f_10_47" x="-305.969" y="-179.922" width="2056.42" height="1131.84" filterUnits="userSpaceOnUse" color-interpolation-filters="sRGB">
<feFlood flood-opacity="0" result="BackgroundImageFix"/>
<feBlend mode="normal" in="SourceGraphic" in2="BackgroundImageFix" result="shape"/>
<feGaussianBlur stdDeviation="141.406" result="effect1_foregroundBlur_10_47"/>
</filter>
<clipPath id="clip0_10_47">
<rect width="1530" height="714" fill="white" transform="translate(0 30)"/>
</clipPath>
</defs>
</svg>
