<?xml version="1.0" standalone="no"?>
<!DOCTYPE svg PUBLIC "-//W3C//DTD SVG 20010904//EN"
 "http://www.w3.org/TR/2001/REC-SVG-20010904/DTD/svg10.dtd">
<svg version="1.0" xmlns="http://www.w3.org/2000/svg"
 width="752.000000pt" height="768.000000pt" viewBox="0 0 752.000000 768.000000"
 preserveAspectRatio="xMidYMid meet">

<g transform="translate(0.000000,768.000000) scale(0.100000,-0.100000)"
fill="#000000" stroke="none">
<path d="M34 7646 l-34 -34 0 -3772 0 -3772 34 -34 34 -34 1389 0 1388 0 79
438 c43 240 81 443 84 449 3 10 -255 13 -1233 15 l-1237 3 -29 33 -29 32 0
1556 c0 1126 3 1561 11 1577 6 12 21 30 33 39 20 16 107 18 1364 18 1460 0
1384 3 1410 -55 9 -19 12 -216 13 -768 l1 -742 23 125 c13 69 94 512 180 985
85 473 159 861 165 863 5 2 12 19 16 38 3 19 10 34 15 34 5 0 9 6 9 14 0 37
149 157 218 176 122 32 160 31 414 -16 133 -24 242 -44 243 -44 0 0 0 -35 0
-77 0 -60 5 -88 21 -123 42 -86 16 -78 621 -190 869 -161 775 -147 823 -125
56 25 106 99 125 184 5 25 10 30 28 26 75 -17 181 -34 189 -29 5 3 14 1 21 -4
7 -5 55 -17 107 -26 133 -23 240 -48 240 -57 0 -4 11 -10 25 -13 14 -4 25 -11
25 -16 0 -6 5 -10 11 -10 11 0 56 -45 90 -89 9 -12 26 -66 38 -120 l23 -98
-21 -114 c-28 -159 -371 -2054 -551 -3052 -83 -455 -150 -829 -150 -832 0 -3
268 -5 596 -5 l596 0 34 34 34 34 0 3772 0 3772 -34 34 -34 34 -3692 0 -3692
0 -34 -34z"/>
<path d="M820 3513 c-37 -13 -40 -32 -40 -268 0 -212 2 -233 18 -248 16 -15
49 -17 260 -17 228 0 242 1 252 19 6 12 10 112 10 255 0 231 0 235 -22 250
-19 13 -59 16 -243 15 -121 0 -227 -3 -235 -6z m404 -155 c9 -15 -7 -36 -109
-138 l-120 -120 -60 60 -60 60 23 22 22 22 38 -37 38 -37 94 95 c52 53 101 94
109 93 8 -2 19 -11 25 -20z"/>
<path d="M1464 3506 c-3 -8 -4 -25 -2 -38 l3 -23 745 0 745 0 0 35 0 35 -743
3 c-637 2 -743 0 -748 -12z"/>
<path d="M1464 3306 c-3 -8 -4 -25 -2 -38 l3 -23 415 0 415 0 0 35 0 35 -413
3 c-351 2 -413 0 -418 -12z"/>
<path d="M4780 3214 c-313 -61 -553 -262 -651 -547 -152 -447 91 -915 551
-1059 65 -20 95 -23 230 -23 149 1 159 2 250 33 137 47 220 100 325 206 93 94
140 162 181 264 47 118 59 179 58 317 -1 110 -5 144 -28 218 -43 145 -96 236
-200 346 -99 103 -228 181 -368 222 -72 20 -286 35 -348 23z m277 -398 c2 -2
-1 -22 -6 -45 -9 -41 -9 -42 27 -60 46 -24 97 -77 111 -114 6 -16 11 -46 11
-68 0 -36 -2 -39 -27 -38 -16 0 -53 6 -83 12 -52 11 -55 14 -58 45 -9 87 -182
98 -182 12 0 -29 34 -60 120 -110 91 -52 155 -116 171 -169 15 -50 5 -120 -24
-163 -28 -42 -99 -78 -153 -78 -44 0 -44 0 -58 -61 l-6 -27 -71 14 c-40 7 -73
15 -75 16 -1 2 1 22 5 45 8 42 8 42 -40 72 -64 39 -101 97 -107 165 -2 30 0
56 4 58 5 3 44 -2 87 -9 76 -15 77 -15 77 -45 0 -42 17 -68 55 -84 53 -22 111
-18 129 8 37 53 12 91 -103 155 -81 45 -154 117 -171 167 -29 90 23 188 117
220 26 9 54 16 64 16 12 0 20 11 24 33 14 69 8 65 87 50 39 -7 73 -15 75 -17z"/>
</g>
</svg>
