<svg width="233" height="257" viewBox="0 0 233 257" fill="none" xmlns="http://www.w3.org/2000/svg">
<ellipse opacity="0.3" cx="116.5" cy="253" rx="116.5" ry="4" fill="#214284"/>
<path d="M208.468 166.128C211.452 171.696 216.552 176.658 216.554 182.975C216.556 187.011 214.414 190.695 212.338 194.156C204.62 207.017 196.901 219.877 189.182 232.738C188.646 233.632 188.059 234.572 187.12 235.024C185.21 235.942 182.885 234.208 182.368 232.152C181.851 230.098 182.567 227.957 183.253 225.952C185.715 218.76 187.903 211.475 189.809 204.116C190.481 201.52 191.114 198.749 190.282 196.201C189.537 193.92 187.724 192.162 186.577 190.055C183.393 184.206 185.811 176.938 188.914 171.046C191.484 166.166 194.502 161.524 197.916 157.192C199.126 155.659 200.457 154.087 202.591 154.092C204.635 154.096 205.307 155.51 205.585 157.293C206.066 160.383 206.989 163.367 208.468 166.128Z" fill="#3030A0"/>
<path d="M100.408 210.169C95.0144 217.738 96.4719 227.483 98.1198 236.311C99.1141 241.638 100.108 246.966 101.103 252.293C98.2821 253.686 94.572 252.133 92.7561 249.769C90.9402 247.405 90.4582 244.466 89.7083 241.686C88.564 237.441 86.7057 233.372 84.6389 229.409C82.9843 226.236 81.1825 223.097 80.1175 219.732C77.6913 212.067 79.4355 203.456 84.7191 197.014C87.7924 193.266 92.591 190.082 97.7991 190.538C101.66 190.875 104.783 193.351 106.432 196.351C107.264 197.864 107.861 199.652 107.827 201.349C107.795 202.932 106.848 203.521 105.637 204.524C103.672 206.152 101.843 208.156 100.408 210.169Z" fill="#3030A0"/>
<path d="M146.316 50.1571C142.541 58.8224 126.632 64.7163 122.635 73.308C118.674 81.8224 128.948 104.828 123.134 112.237C111.493 127.067 99.3358 142.929 80.4854 142.629C77.9337 142.588 75.3472 142.338 72.8549 142.889C69.0911 143.721 65.9678 146.278 63.1218 148.878C59.1777 152.483 55.4573 156.332 51.9887 160.396C46.9514 166.299 42.2367 173.303 42.5216 181.056C42.7876 188.301 47.4306 195.053 46.7118 202.266C46.3411 205.988 42.4716 209.158 43.1158 212.842C47.5193 238.008 44.7742 240.253 39.2511 251.707C38.9766 252.276 39.5426 252.995 40.0359 253.392C40.5095 253.773 41.1651 253.806 41.7726 253.822C43.9714 253.882 46.1703 253.94 48.3701 254C56.4317 238.634 64.4924 223.268 72.554 207.903C81.2089 191.592 108.386 211.742 125.523 207.181C135.809 204.443 144.934 197.578 150.416 188.452C150.132 197.202 149.372 204.834 149.705 213.581C150.059 222.851 150.412 234.244 150.766 243.513C150.864 246.084 151.022 246.71 152.572 248.763C154.122 250.817 157.61 251.576 159.208 249.56C160.218 241.607 161.036 231.161 165.7 220.005C168.624 213.009 172.924 206.686 177.267 200.47C190.125 182.066 203.865 163.642 210.29 142.13C212.842 133.586 214.15 124.268 211.26 115.833C205.833 99.9993 187.335 91.4471 182.005 75.5796C180.942 72.4147 180.436 69.0226 178.782 66.1218C176.578 62.2561 172.332 59.6346 167.889 59.3979C165.114 59.2498 162.317 60.0337 159.978 61.5194C157.705 62.9617 148.876 49.1298 146.316 50.1571C146.313 50.0751 157.572 50.1024 153.522 66.1445C153.515 66.1577 146.322 50.1439 146.316 50.1571Z" fill="#6663DE"/>
<path d="M169.783 30.5403C174.962 30.6525 180.207 30.7752 185.19 32.1939C190.173 33.6127 194.944 36.4983 197.545 40.9781C199.219 43.8628 199.921 47.255 201.771 50.0302C203.621 52.8054 207.384 54.8543 210.278 53.196C211.528 52.48 212.373 51.2056 213.591 50.4387C216.109 48.8539 219.634 49.9311 221.621 52.1461C223.608 54.36 224.373 57.3985 224.818 60.3407C225.96 67.8891 225.252 76.1488 220.655 82.2445C216.058 88.3403 206.788 91.2287 200.428 87.0055C198.256 85.5631 196.494 83.4039 194.009 82.6115C190.126 81.3739 186.168 83.8633 182.59 85.8122C178.935 87.8026 174.915 89.344 170.753 89.3553C162.223 89.3789 154.778 82.8388 151.13 75.1291C147.481 67.4184 146.869 58.672 146.316 50.1594C136.786 46.9342 129.062 39.0075 126.041 29.4111C132.227 32.6146 138.585 34.6352 145.454 35.8012C147.663 36.1766 150.154 36.3757 151.931 35.0097C153.008 34.1824 153.634 32.909 154.547 31.9053C157.272 28.9083 165.734 30.4526 169.783 30.5403Z" fill="#6663DE"/>
<path d="M200.643 66.5341C200.47 67.0624 200.286 67.6076 199.911 68.0189C198.761 69.282 196.723 68.6123 195.045 68.2906C190.931 67.5029 186.309 69.9923 185.103 74.0043C183.898 78.0153 186.749 82.8771 190.905 83.4007C192.291 83.5752 193.749 83.3214 195.06 83.8054C199.178 85.3241 198.468 92.266 202.368 94.28C204.67 95.4685 207.642 94.2083 209.156 92.1065C209.664 91.4 210.078 90.5869 210.796 90.0963C212.597 88.8672 214.957 90.2973 217.123 90.5454C221.778 91.0793 225.002 86.1636 227.026 81.9395C229.208 77.3851 231.395 72.7468 232.224 67.7652C233.463 60.3177 231.115 51.9221 224.964 47.5451C221.264 44.9123 216.22 44.3105 211.935 45.7217C209.85 46.4084 207.892 47.6017 206.472 49.294C205.022 51.0212 204.774 53.9823 204.073 56.1114C202.93 59.5847 201.787 63.0589 200.643 66.5341Z" fill="#F89520"/>
<path d="M200.819 73.5731C198.655 72.7656 196.273 72.2175 194.045 72.826C191.817 73.4344 189.859 75.5116 190.066 77.8124C190.326 80.7008 193.62 82.3394 196.516 82.479C199.413 82.6186 202.358 81.846 205.19 82.4695C207.352 82.9459 209.22 84.1901 211.033 85.4004C211.797 85.9108 215.295 88.8209 216.098 87.3616C216.701 86.2645 213.495 82.8204 212.788 81.9922C211.276 80.2235 209.555 78.6331 207.673 77.2653C205.567 75.7361 203.258 74.4834 200.819 73.5731Z" fill="white"/>
<path d="M210.905 63.9578C210.534 62.3834 210.346 60.6581 211.06 59.2053C211.773 57.7526 213.683 56.8008 215.08 57.6168C216.052 58.1847 216.465 59.3582 216.738 60.4496C217.387 63.0343 217.675 65.7086 217.591 68.3725C217.538 70.045 216.358 74.5965 214.396 71.8175C212.739 69.4715 211.561 66.7481 210.905 63.9578Z" fill="#3030A0"/>
<path d="M179.261 47.3057C182.155 49.5027 185.156 51.5554 188.254 53.4562C188.78 53.7788 189.261 52.9524 188.737 52.6298C185.64 50.729 182.639 48.6764 179.744 46.4794C179.255 46.1077 178.777 46.9378 179.261 47.3057Z" fill="#3030A0"/>
<path d="M181.103 48.085C181.103 48.085 177.548 60.4755 187.357 52.3346L181.103 48.085Z" fill="#3030A0"/>
<path d="M162.906 13.7847C169.14 11.2604 176.167 11.9858 182.818 12.9942C189.468 14.0036 196.311 15.2497 202.847 13.6593C209.383 12.0688 215.566 6.72492 215.689 0C217.919 5.48257 218.302 11.7802 216.304 17.3514C214.305 22.9217 209.831 27.6515 204.219 29.5306C196.971 31.9578 188.895 29.591 181.461 31.3625C176.414 32.5653 171.899 35.6263 166.766 36.3791C161.859 37.0989 153.921 33.468 153.03 28.0024C152.046 21.9539 157.761 15.8676 162.906 13.7847Z" fill="#F89520"/>
<path d="M150.459 246.868H160.316V253.014H152.206L150.459 246.868Z" fill="#F89520"/>
<path d="M181.88 227.306L190.591 231.918L187.788 237.211L180.621 233.416L181.88 227.306Z" fill="#F89520"/>
<path d="M90.9422 246.832H101.569V252.821H92.825L90.9422 246.832Z" fill="#F89520"/>
<path d="M40.1594 248.828H52.7254L48.8464 254H38.1633L40.1594 248.828Z" fill="#F89520"/>
<path d="M62.2709 156.357C57.1816 154.44 51.0359 150.415 51.8887 144.111C52.2717 141.276 54.5404 139.566 56.5789 137.838C58.6476 136.084 60.7182 134.024 61.2681 131.257C62.2312 126.417 59.1956 120.897 54.2715 119.678C51.3246 118.948 48.3541 119.878 45.459 120.4C44.2054 120.627 42.8055 120.791 41.582 120.326C40.2227 119.809 39.3558 118.6 38.7077 117.354C35.6391 111.454 36.8748 103.958 40.7953 98.7975C41.4254 97.9684 40.9188 96.6657 40.1085 96.1798C39.1331 95.595 38.1125 96.0478 37.4908 96.8666C33.6204 101.961 32.3082 108.784 33.8043 114.985C34.5373 118.024 35.99 121.307 38.6718 123.101C41.4773 124.977 44.8025 124.449 47.9051 123.806C50.4737 123.273 53.2914 122.622 55.4488 124.543C57.0788 125.993 58.0203 128.392 57.5099 130.552C56.8713 133.249 54.0338 134.901 52.1113 136.641C49.7511 138.776 48.172 141.408 48.0173 144.644C47.6381 152.58 54.6347 157.556 61.254 160.048C63.5613 160.915 64.5584 157.218 62.2709 156.357Z" fill="#6663DE"/>
<path d="M34.7259 82.6115C38.0181 79.4231 41.681 76.3686 43.5177 72.1699C46.1297 76.0309 48.6927 80.0089 50.0888 84.4566C51.4849 88.9044 51.6019 93.9398 49.4257 98.0631C47.1966 102.286 40.7849 106.402 35.8372 105.046C30.2735 103.52 26.6945 96.8151 28.4491 91.4561C29.5905 87.9734 32.1403 85.116 34.7259 82.6115Z" fill="#F89520"/>
<path d="M152.167 57.8346C149.93 63.037 150.392 69.1573 153.315 74.0097C156.276 78.9263 161.626 81.8298 167.315 82.0713C170.585 82.21 173.835 81.4459 176.679 79.8271C177.214 79.5224 176.733 78.6961 176.196 79.0008C170.19 82.4184 162.094 81.6761 156.955 76.9755C151.919 72.3693 150.304 64.569 152.993 58.3176C153.234 57.7582 152.411 57.2705 152.167 57.8346Z" fill="#3030A0"/>
<path d="M151.253 188.476C150.619 180.384 149.926 171.98 152.199 164.069C154.066 157.572 157.996 151.493 164.147 148.369C164.696 148.09 164.212 147.265 163.664 147.543C157.55 150.648 153.516 156.619 151.507 163.045C148.941 171.253 149.635 180.037 150.296 188.476C150.344 189.086 151.301 189.091 151.253 188.476Z" fill="#3030A0"/>
<path d="M78.6016 195.319C82.8107 184.856 82.8409 172.967 78.6846 162.482C78.4601 161.916 77.5347 162.163 77.762 162.737C81.8645 173.087 81.8334 184.736 77.679 195.065C77.4498 195.636 78.3752 195.884 78.6016 195.319Z" fill="#3030A0"/>
</svg>
