<svg width="28" height="28" viewBox="0 0 28 28" fill="none" xmlns="http://www.w3.org/2000/svg">
<path d="M26.9427 14C26.9427 13.605 26.9222 13.2151 26.8876 12.8295H28C27.4364 6.00324 21.9968 0.563604 15.1704 0V1.11243C14.7845 1.07783 14.3946 1.05729 14 1.05729C13.6054 1.05729 13.2151 1.07783 12.8295 1.11243V0C6.00324 0.563604 0.563604 6.00324 0 12.8295H1.11243C1.07784 13.2155 1.05729 13.6054 1.05729 14C1.05729 14.395 1.07784 14.7849 1.11243 15.1704H0C0.563604 21.9968 6.00324 27.4364 12.8295 28V26.8876C13.2155 26.9222 13.6054 26.9427 14 26.9427C14.3946 26.9427 14.7849 26.9222 15.1704 26.8876V28C21.9968 27.4364 27.4364 21.9968 28 15.1704H26.8876C26.9222 14.7849 26.9427 14.395 26.9427 14Z" fill="#214284"/>
<path d="M13.9999 26.0828C7.33753 26.0828 1.91699 20.6622 1.91699 13.9999C1.91699 7.33753 7.33717 1.91699 13.9999 1.91699C20.6622 1.91699 26.0828 7.33753 26.0828 13.9999C26.0828 20.6622 20.6626 26.0828 13.9999 26.0828ZM13.9999 2.15123C7.46618 2.15123 2.15086 7.46654 2.15086 14.0002C2.15086 20.5339 7.46618 25.8492 13.9999 25.8492C20.5336 25.8492 25.8489 20.5339 25.8489 14.0002C25.8489 7.46654 20.5336 2.15123 13.9999 2.15123Z" fill="white"/>
<path d="M11.8636 16.7559L11.7529 19.5555L13.1991 17.7923L11.8636 16.7559Z" fill="white"/>
<path d="M19.7385 8.12989C17.4308 9.05853 9.98286 12.163 7.16376 13.3393C6.79151 13.4946 6.8171 14.0297 7.20196 14.1497L10.4347 15.1584L17.6823 10.7641C17.7266 10.7375 17.7721 10.7965 17.7346 10.8322L12.1933 16.1C12.1933 16.1 15.6002 18.5951 17.2164 19.7735C17.6146 20.0636 18.1793 19.8405 18.2701 19.3562C18.7346 16.883 19.896 10.6996 20.2928 8.58574C20.353 8.26754 20.0387 8.0088 19.7385 8.12989Z" fill="white"/>
</svg>
