<svg width="28" height="28" viewBox="0 0 28 28" fill="none" xmlns="http://www.w3.org/2000/svg">
<path d="M26.9427 14C26.9427 13.605 26.9222 13.2151 26.8876 12.8295H28C27.4364 6.00324 21.9967 0.563604 15.1704 0V1.11243C14.7845 1.07784 14.3946 1.05729 14 1.05729C13.605 1.05729 13.2151 1.07784 12.8295 1.11243V0C6.00324 0.563604 0.563604 6.00324 0 12.8295H1.11243C1.07784 13.2155 1.05729 13.6054 1.05729 14C1.05729 14.395 1.07784 14.7849 1.11243 15.1704H0C0.563604 21.9967 6.00324 27.4364 12.8295 28V26.8876C13.2155 26.9222 13.6054 26.9427 14 26.9427C14.395 26.9427 14.7849 26.9222 15.1704 26.8876V28C21.9967 27.4364 27.4364 21.9967 28 15.1704H26.8876C26.9222 14.7845 26.9427 14.3946 26.9427 14Z" fill="#214284"/>
<path d="M13.9999 26.0828C7.33753 26.0828 1.91699 20.6622 1.91699 13.9999C1.91699 7.33753 7.33717 1.91699 13.9999 1.91699C20.6626 1.91699 26.0828 7.33753 26.0828 13.9999C26.0828 20.6622 20.6622 26.0828 13.9999 26.0828ZM13.9999 2.15086C7.46618 2.15086 2.15086 7.46618 2.15086 13.9999C2.15086 20.5336 7.46618 25.8489 13.9999 25.8489C20.5336 25.8489 25.8489 20.5336 25.8489 13.9999C25.8489 7.46618 20.5332 2.15086 13.9999 2.15086Z" fill="white"/>
<path d="M19.5581 11.461C19.5581 11.461 19.4482 10.6451 19.1084 10.2869C18.6771 9.8163 18.1935 9.81343 17.9711 9.78604C16.3826 9.66712 14.0021 9.66711 14.0021 9.66711H13.9967C13.9967 9.66711 11.6147 9.66712 10.028 9.78604C9.8057 9.81343 9.32246 9.81594 8.89075 10.2869C8.55129 10.6451 8.4403 11.4621 8.4403 11.4621C8.4403 11.4621 8.32715 12.4178 8.32715 13.376V13.4909V14.2725C8.32715 15.2307 8.4403 16.1878 8.4403 16.1878C8.4403 16.1878 8.55129 17.0037 8.89075 17.3619C9.32282 17.8325 9.89074 17.8181 10.1419 17.8664C11.0497 17.9579 13.9996 17.9868 13.9996 17.9868C13.9996 17.9868 16.383 17.9813 17.9715 17.8624C18.1938 17.835 18.6774 17.8322 19.1088 17.3615C19.4486 17.0033 19.5585 16.1875 19.5585 16.1875C19.5585 16.1875 19.6724 15.2307 19.6724 14.2722V13.5403V13.3756C19.672 12.4181 19.5581 11.461 19.5581 11.461ZM15.8925 13.7057L12.8291 15.3608L12.8277 12.8127V12.0376L14.2097 12.7907L15.8925 13.7057Z" fill="white"/>
</svg>
