<svg width="61" height="60" viewBox="0 0 61 60" fill="none" xmlns="http://www.w3.org/2000/svg">
<path fill-rule="evenodd" clip-rule="evenodd" d="M29.4425 53.9827C26.4824 54.1676 21.5375 51.6395 21.9447 48.0873C22.0106 47.5131 22.5996 44.8399 22.8268 44.5341L29.4424 53.9827H29.4425ZM30.6391 53.9919C30.868 53.5286 35.0754 47.6581 35.6047 46.8977L37.269 44.5672C37.4296 44.7758 38.0982 47.7002 38.1409 48.1641C38.2695 49.5574 37.5918 50.689 36.9125 51.3641C35.3292 52.9371 33.0453 54.0262 30.6391 53.9918V53.9919ZM6.30321 16.5856C6.68352 17.2275 9.63491 19.7587 10.5494 20.504C14.4401 23.675 17.6573 25.5648 22.2673 27.7234C22.8534 27.9978 22.7902 28.4061 23.0144 29.6724C23.1514 30.4464 23.2481 31.2308 23.3197 32.0342C23.6307 35.5282 23.2752 38.6089 21.8644 41.2819C21.4905 41.1323 19.997 39.6127 19.5341 39.2245L16.1272 36.084C15.882 35.6788 15.9144 31.3241 15.7038 30.0102C15.1164 29.6332 8.62022 27.3746 8.11342 26.9671C6.37454 25.5688 5.40933 20.413 4.99861 19.4855C4.65863 19.8271 3.94926 22.246 3.84243 22.6194C-0.978476 39.4723 11.5929 57.2668 30.0873 57.2211C44.4515 57.1856 55.29 46.3037 56.9797 33.8743C57.3331 31.2747 57.3364 28.6096 56.9619 26.0234C56.8386 25.1721 55.809 20.3301 55.0804 19.4812C54.8283 20.0616 54.7036 20.9347 54.502 21.5897C54.2853 22.2936 54.0806 22.9385 53.8241 23.6016C52.4129 27.2513 52.2276 26.9215 50.0298 27.7794C49.3954 28.027 48.7797 28.2579 48.161 28.5024C46.9331 28.9875 45.5232 29.6185 44.3501 29.9737C44.3062 31.3617 44.2004 32.7939 44.1266 34.1914C44.0977 34.7388 44.1953 35.8406 43.9041 36.1747C43.7795 36.3175 43.4736 36.5284 43.3052 36.6808C42.516 37.3952 38.5023 41.1724 38.2173 41.2856C36.4442 37.8205 36.3375 33.7592 37.0703 29.6462C37.2888 28.4198 37.2318 27.9917 37.8207 27.714C41.8206 25.8284 44.5162 24.3759 48.0379 21.6777C49.0052 20.9366 53.1521 17.5368 53.7753 16.5817C53.5877 16.4267 52.9858 15.4001 52.8799 15.1338C52.5875 15.3408 52.3835 15.6264 52.1182 15.8909C48.1768 19.8216 44.0803 22.3309 39.1375 25.17C38.4874 25.5434 37.8516 25.8737 37.2 26.2322C36.7617 26.4734 36.6528 26.4405 36.4073 26.9374C35.4936 28.7862 34.9989 30.5592 34.8938 32.7699C34.7728 35.3157 35.3057 38.1262 36.0774 40.5152C37.0403 43.4964 37.1463 42.0408 35.8371 44.0514C33.989 46.8893 32.2155 50.1112 30.4837 53.0637C30.3512 53.2898 30.2186 53.5902 30.0082 53.6989L28.355 50.9273C27.8237 50.0019 27.2679 49.0509 26.7329 48.1288C26.1884 47.1903 25.6342 46.2438 25.0781 45.3633C24.773 44.8802 24.5223 44.4728 24.2184 44.0132C24.0722 43.7921 23.9187 43.5669 23.7706 43.3566C22.9726 42.2228 23.1391 43.2822 24.0188 40.4414C24.7955 37.9332 25.3132 35.3987 25.1802 32.6998C25.0778 30.6231 24.5281 28.5576 23.632 26.8374C23.4127 26.4161 23.2058 26.401 22.7869 26.1831C18.2866 23.8416 14.0693 21.1654 10.2751 18.0149L7.19591 15.1578L6.30313 16.586L6.30321 16.5856Z" fill="#214284"/>
<path fill-rule="evenodd" clip-rule="evenodd" d="M5.30655 13.0104C5.4782 13.1147 7.1515 15.0683 7.19615 15.1577L10.2754 18.0149C14.0696 21.1654 18.2868 23.8416 22.7872 26.183C23.2061 26.401 23.413 26.416 23.6323 26.8373C24.5283 28.5576 25.0781 30.6231 25.1804 32.6997C25.3134 35.3986 24.7956 37.9332 24.019 40.4413C23.1394 43.2821 22.9729 42.2227 23.7709 43.3565C23.919 43.5668 24.0725 43.792 24.2187 44.0131C24.5226 44.4727 24.7734 44.8801 25.0783 45.3632C25.6344 46.2438 26.1887 47.1902 26.7332 48.1287C27.2681 49.0508 27.824 50.0018 28.3552 50.9272L30.0085 53.6988C30.2188 53.5901 30.3514 53.2897 30.484 53.0636C32.2158 50.1112 33.9893 46.8893 35.8374 44.0513C37.1465 42.0407 37.0406 43.4963 36.0776 40.5151C35.3058 38.126 34.773 35.3156 34.8941 32.7698C34.9991 30.5591 35.4938 28.7861 36.4075 26.9373C36.653 26.4404 36.7619 26.4733 37.2003 26.2321C37.8518 25.8736 38.4877 25.5433 39.1377 25.1699C44.0805 22.3308 48.1771 19.8214 52.1184 15.8909C52.3838 15.6263 52.5877 15.3407 52.8802 15.1337C52.992 14.9469 53.6126 14.3029 53.8377 14.059C54.0812 13.7954 54.4686 13.1909 54.7894 13.0143C54.8519 12.8129 55.4891 12.028 55.6578 11.7739C55.9545 11.3269 56.1976 10.933 56.4468 10.4315C56.5633 10.197 56.6573 10.0037 56.7961 9.75458C57.171 9.08173 57.4956 8.19802 57.7771 7.49916C58.1482 6.57851 58.516 5.22706 58.7302 4.18949C58.9701 3.02849 59.1032 1.59731 59.2089 0.326172C58.8721 0.354214 58.781 0.529669 58.6104 0.753923C58.4269 0.995375 58.3375 1.0795 58.1493 1.31892L55.0723 5.42505C54.8989 5.65464 54.7908 5.78206 54.6308 6.00987C54.3534 6.405 54.071 6.80641 53.7754 7.20662C53.1759 8.01807 52.6294 8.83562 52.0425 9.64207C51.9049 9.97112 51.4553 10.5449 51.244 10.8319C50.9765 11.195 50.7657 11.6548 50.2554 11.7551C50.2349 11.7713 30.5744 16.8486 30.0058 16.8333L9.83052 11.7528C9.356 11.6826 9.05465 11.1435 8.80871 10.7959C8.59149 10.489 8.17051 9.97545 8.03776 9.64207C7.88899 9.49398 7.76894 9.26236 7.62737 9.05716L4.62786 4.87352C4.15877 4.19347 1.49907 0.489851 0.886963 0.326341L1.04691 2.29795C1.32302 5.56314 2.92397 9.7068 4.85601 12.3828C5.02842 12.6215 5.15168 12.776 5.30655 13.0104Z" fill="#FF5D27"/>
<path fill-rule="evenodd" clip-rule="evenodd" d="M9.83057 11.7529L30.0059 16.8334C30.5744 16.8487 50.235 11.7714 50.2555 11.7552C49.9615 11.5313 49.646 11.1025 49.3544 10.8145L47.4444 9.09566C45.9663 7.79631 43.7696 6.42096 41.8858 5.49879C34.7646 2.01264 25.2811 1.8266 18.1588 5.52522C16.396 6.44053 15.026 7.22072 13.6117 8.31793C11.5863 9.88932 11.4501 10.152 9.83057 11.7529Z" fill="#214284"/>
<path fill-rule="evenodd" clip-rule="evenodd" d="M54.7893 13.0138C54.4684 13.1905 54.081 13.795 53.8376 14.0586C53.6124 14.3026 52.9919 14.9465 52.88 15.1333C52.986 15.3996 53.588 16.4262 53.7754 16.5811C54.119 16.3451 54.347 15.9995 54.7152 15.6468C55.071 15.3059 55.2476 14.9985 55.6512 14.6309C55.8623 16.148 55.2018 18.0248 55.0804 19.4809C55.809 20.3297 56.8386 25.1717 56.9618 26.023C57.3364 28.6093 57.3331 31.2744 56.9796 33.8739C55.29 46.3034 44.4514 57.1852 30.0872 57.2207C11.5928 57.2665 -0.978522 39.472 3.84239 22.619C3.94922 22.2456 4.65866 19.8268 4.99856 19.4852C4.94248 18.8005 4.71111 17.9371 4.60605 17.2135C4.48922 16.4086 4.39171 15.5059 4.40137 14.6624C4.89402 14.9022 5.76884 16.2797 6.30316 16.5853L7.19594 15.1571C7.1513 15.0677 5.47799 13.1141 5.30635 13.0098L4.30716 14.563C3.98099 15.1662 3.7009 15.6163 3.386 16.2467C2.80296 17.4135 2.256 18.5138 1.82385 19.8156C0.958855 22.4214 0.0668383 25.5486 0.0971681 28.3514C0.105979 29.1671 -0.079219 29.9054 0.0403209 30.7778C0.141222 31.5142 0.0958125 32.4224 0.198154 33.2252C0.773912 37.7416 1.82698 40.9397 3.99183 44.9037C4.13992 45.1748 4.2931 45.4574 4.45296 45.7058C5.29059 47.0075 5.71538 47.5388 6.57994 48.7095C6.78954 48.9935 6.93263 49.1088 7.15613 49.3964L9.35054 51.7012C10.1966 52.4463 10.651 52.9753 11.7552 53.7958L14.0324 55.3862C15.9025 56.5037 15.6201 56.3236 17.356 57.193C19.6214 58.3278 22.6647 59.1928 25.1936 59.6159C28.9036 60.2367 33.2668 60.1007 36.8912 59.2369C38.0746 58.9549 39.6912 58.4574 40.7979 58.0135C43.999 56.7294 46.2261 55.5025 48.9376 53.2876C49.1973 53.0755 49.3938 52.9731 49.6403 52.7274C49.8915 52.4771 50.0637 52.3856 50.3119 52.136C52.9807 49.4528 54.0297 48.3471 56.068 44.9466C56.2143 44.7024 56.4152 44.3725 56.5246 44.1402C57.746 41.5454 58.2608 40.6571 59.0518 37.6684C59.5821 35.6649 59.9924 33.0956 59.9955 30.8756C59.9961 30.4182 60.1156 30.18 60.0457 29.7293C59.9778 29.2922 60.0015 28.8958 60.0009 28.4284C59.9978 26 59.0998 22.099 58.2733 19.8934C58.1518 19.5692 58.0677 19.2606 57.9472 18.9564C57.1157 16.8565 56.7175 16.3163 55.7905 14.6403L54.7895 13.0141L54.7893 13.0138Z" fill="#0FA7C8"/>
<path fill-rule="evenodd" clip-rule="evenodd" d="M53.7753 16.5813C53.1521 17.5364 49.0052 20.9362 48.0379 21.6774C44.5162 24.3755 41.8206 25.8281 37.8207 27.7137C37.2318 27.9913 37.2888 28.4195 37.0703 29.6458C36.3375 33.7589 36.4442 37.8201 38.2173 41.2852C38.5023 41.172 42.516 37.3947 43.3052 36.6804C43.4736 36.528 43.7795 36.3172 43.9041 36.1743C44.1953 35.8403 44.0977 34.7384 44.1266 34.191C44.2004 32.7936 44.3062 31.3613 44.3501 29.9733C45.5231 29.6182 46.933 28.9872 48.161 28.502C48.7797 28.2576 49.3954 28.0266 50.0298 27.779C52.2276 26.9212 52.4128 27.2509 53.8241 23.6013C54.0806 22.9381 54.2853 22.2932 54.502 21.5893C54.7036 20.9343 54.8283 20.0612 55.0804 19.4808C55.2018 18.0247 55.8624 16.1479 55.6513 14.6309C55.2476 14.9985 55.0709 15.306 54.7152 15.6468C54.3469 15.9996 54.1189 16.3452 53.7755 16.5811L53.7753 16.5813Z" fill="#FF5D27"/>
<path fill-rule="evenodd" clip-rule="evenodd" d="M4.99873 19.485C5.40945 20.4124 6.37467 25.5682 8.11355 26.9665C8.62043 27.374 15.1166 29.6326 15.704 30.0097C15.9146 31.3236 15.8821 35.6784 16.1273 36.0834L19.5342 39.224C19.9971 39.6122 21.4906 41.1318 21.8645 41.2813C23.2753 38.6083 23.6308 35.5276 23.3198 32.0337C23.2483 31.2302 23.1515 30.4459 23.0145 29.6719C22.7904 28.4056 22.8536 27.9973 22.2675 27.7229C17.6574 25.5642 14.4402 23.6745 10.5495 20.5035C9.63503 19.7582 6.68356 17.2269 6.30333 16.585C5.76901 16.2794 4.89419 14.902 4.40154 14.6621C4.39188 15.5056 4.48939 16.4084 4.60622 17.2132C4.71128 17.9368 4.94265 18.8003 4.99873 19.4849V19.485Z" fill="#FF5D27"/>
<path fill-rule="evenodd" clip-rule="evenodd" d="M8.0376 9.64169C8.17035 9.97514 8.59133 10.4886 8.80855 10.7955C9.05458 11.1432 9.35593 11.6822 9.83036 11.7524C11.4499 10.1515 11.5861 9.88882 13.6115 8.31743C15.0258 7.22022 16.3958 6.44003 18.1586 5.52472C25.2809 1.82609 34.7644 2.01214 41.8856 5.49828C43.7694 6.42038 45.9661 7.79581 47.4442 9.09516L49.3542 10.814C49.6459 11.1021 49.9614 11.5309 50.2553 11.7547C50.7656 11.6544 50.9764 11.1945 51.2438 10.8315C51.4552 10.5445 51.9047 9.97074 52.0424 9.64169C51.1468 8.51584 49.1491 6.83423 47.8904 5.88486L43.6469 3.26151C40.6164 1.81923 38.9679 1.19679 35.5133 0.503276C29.3634 -0.731433 22.2063 0.395258 17.197 2.90492C16.7228 3.14256 16.3035 3.31166 15.8775 3.5587C13.3903 5.00098 11.7205 6.03066 9.58941 8.08411C9.37516 8.29057 9.24943 8.34132 9.03382 8.55473C8.64656 8.93792 8.40935 9.23927 8.03768 9.64177L8.0376 9.64169Z" fill="#0FA7C8"/>
<path fill-rule="evenodd" clip-rule="evenodd" d="M29.4425 53.9828L22.8269 44.5342C22.5996 44.8399 22.0106 47.5132 21.9448 48.0873C21.5375 51.6396 26.4824 54.1677 29.4425 53.9828H29.4425Z" fill="#FF5D27"/>
<path fill-rule="evenodd" clip-rule="evenodd" d="M30.6392 53.992C33.0454 54.0264 35.3293 52.9373 36.9125 51.3642C37.592 50.6892 38.2696 49.5576 38.1409 48.1643C38.0982 47.7003 37.4296 44.776 37.269 44.5674L35.6048 46.8979C35.0754 47.6583 30.8681 53.5287 30.6392 53.9921V53.992Z" fill="#FF5D27"/>
</svg>
